{"glyphs":{"0":{"ha":686,"x_min":49,"x_max":638,"o":"m 503 704 q 477 751 503 704 q 343 799 451 799 q 183 704 235 799 q 132 415 132 610 q 183 131 132 221 q 343 42 235 42 q 503 131 451 42 q 554 415 554 221 q 503 704 554 610 m 120 752 q 156 807 120 752 q 343 861 192 861 q 566 752 494 861 q 638 415 638 643 q 566 83 638 188 q 343 -21 494 -21 q 120 83 192 -21 q 49 415 49 188 q 120 752 49 643 z "},"1":{"ha":475,"x_min":63,"x_max":411,"o":"m 379 0 l 81 0 l 81 10 q 99 44 81 38 q 119 50 107 49 l 210 54 l 210 767 l 104 728 q 74 736 86 721 q 63 768 63 751 l 206 849 q 254 861 229 861 q 290 821 290 861 l 290 57 l 411 49 q 379 0 417 0 z "},"2":{"ha":610,"x_min":50,"x_max":561,"o":"m 71 688 q 138 810 71 760 q 310 861 206 861 q 481 803 415 861 q 546 644 546 744 q 389 306 546 494 q 303 211 338 246 q 215 124 268 176 q 147 57 163 72 l 489 61 l 503 149 q 529 186 507 175 q 561 188 551 197 l 561 0 l 56 0 q 50 40 47 24 q 112 101 61 51 q 183 172 163 151 q 249 242 203 192 q 317 320 296 292 q 372 395 339 349 q 422 476 406 442 q 463 636 463 565 q 419 752 463 707 q 299 797 376 797 q 178 750 221 797 q 136 618 136 703 q 90 635 108 618 q 71 688 71 651 z "},"3":{"ha":592,"x_min":47,"x_max":550,"o":"m 329 508 q 399 567 371 528 q 426 664 426 606 q 387 760 426 722 q 283 799 347 799 q 186 763 219 799 q 151 661 153 726 q 97 683 117 664 q 82 733 78 703 q 147 823 89 785 q 297 861 206 861 q 450 808 388 861 q 513 679 513 756 q 347 458 513 525 q 496 383 442 443 q 550 235 550 324 q 467 51 550 124 q 254 -21 385 -21 q 107 13 167 -21 q 47 97 47 46 q 97 163 47 149 q 153 73 111 107 q 276 39 194 39 q 412 94 357 39 q 464 233 467 149 q 435 327 463 289 q 365 383 408 365 q 181 408 288 414 l 179 472 q 329 508 251 472 z "},"4":{"ha":632,"x_min":28,"x_max":611,"o":"m 611 274 l 611 211 l 489 211 l 489 0 l 413 -14 l 413 211 l 54 211 q 35 240 43 222 q 28 271 28 258 l 407 847 q 486 847 447 858 l 488 274 l 611 274 m 413 274 l 413 758 l 101 274 l 413 274 z "},"5":{"ha":574,"x_min":46,"x_max":542,"o":"m 290 519 q 472 459 403 519 q 542 272 542 399 q 462 62 542 144 q 251 -21 382 -21 q 100 9 154 -21 q 46 90 46 39 q 101 142 46 136 q 257 39 117 39 q 402 102 347 39 q 457 268 457 165 q 401 413 457 371 q 262 454 344 454 q 118 417 179 454 l 101 426 l 121 849 l 478 847 l 474 779 l 181 779 l 169 503 q 290 519 225 519 z "},"6":{"ha":649,"x_min":76,"x_max":597,"o":"m 163 419 q 370 482 258 482 q 540 421 482 482 q 597 249 597 360 q 529 58 597 138 q 344 -21 461 -21 q 76 335 76 -21 q 164 726 76 592 q 414 861 251 861 q 525 838 488 861 q 563 778 563 815 q 507 715 563 722 q 482 775 507 749 q 404 801 457 801 q 240 701 303 801 q 163 419 176 600 m 160 331 q 208 113 160 188 q 340 39 256 39 q 469 92 425 39 q 514 236 514 146 q 472 374 514 326 q 351 421 431 421 q 160 351 243 421 l 160 331 z "},"7":{"ha":525,"x_min":21,"x_max":514,"o":"m 21 849 l 504 849 q 514 813 514 829 l 168 -6 l 85 21 l 431 793 l 93 788 l 79 692 q 51 660 75 668 q 21 661 28 651 l 21 849 z "},"8":{"ha":621,"x_min":64,"x_max":579,"o":"m 401 463 q 533 360 486 413 q 579 217 579 308 q 504 53 579 126 q 308 -21 429 -21 q 127 39 186 -21 q 65 183 68 99 q 118 338 61 268 q 258 453 175 408 q 156 543 192 494 q 119 672 119 592 q 179 806 119 751 q 326 861 239 861 q 475 813 414 861 q 536 675 536 764 q 401 463 536 550 m 334 806 q 302 806 334 806 q 230 767 271 806 q 189 673 189 729 q 231 576 189 617 q 360 486 272 536 q 465 669 465 565 q 431 768 465 731 q 334 806 397 806 m 306 425 q 188 328 235 390 q 140 199 140 267 q 185 85 140 132 q 317 39 231 39 q 457 88 404 39 q 510 203 510 136 q 464 317 510 271 q 335 408 418 363 l 306 425 z "},"9":{"ha":599,"x_min":33,"x_max":554,"o":"m 286 861 q 554 506 554 861 q 467 114 554 249 q 217 -21 379 -21 q 106 2 143 -21 q 68 63 68 25 q 124 125 68 118 q 149 65 124 92 q 226 39 174 39 q 391 140 328 39 q 468 421 454 240 q 260 358 372 358 q 91 419 149 358 q 33 592 33 481 q 101 782 33 703 q 286 861 169 861 m 471 510 q 423 727 471 653 q 290 801 375 801 q 161 748 206 801 q 117 604 117 694 q 158 467 117 514 q 279 419 200 419 q 471 489 388 419 l 471 510 z "},"\u0000":{"ha":0,"x_min":0,"x_max":0,"o":""},"\r":{"ha":0,"x_min":0,"x_max":0,"o":""}," ":{"ha":372,"x_min":0,"x_max":0,"o":""},"!":{"ha":350,"x_min":111,"x_max":239,"o":"m 221 -2 q 212 -11 221 -2 q 175 -21 203 -21 q 129 -2 147 -21 q 111 44 111 17 q 129 91 111 72 q 175 110 147 110 q 221 91 203 110 q 239 44 239 72 q 221 -2 239 17 m 147 258 l 135 958 q 224 964 171 972 l 200 258 q 147 258 174 250 z "},"\"":{"ha":374,"x_min":69,"x_max":304,"o":"m 86 704 l 69 943 q 168 947 118 957 l 144 704 q 86 704 117 699 m 222 704 l 206 943 q 304 947 254 957 l 281 704 q 222 704 253 699 z "},"#":{"ha":979,"x_min":83,"x_max":896,"o":"m 621 326 l 838 326 q 856 264 853 297 l 603 264 l 533 24 l 468 24 l 538 264 l 294 264 l 225 24 l 160 24 l 229 264 l 103 264 q 83 326 86 290 l 247 326 l 324 589 l 142 589 q 122 649 126 619 l 342 649 l 413 894 l 478 894 l 407 649 l 650 650 l 721 894 l 786 894 l 715 650 l 876 650 q 896 589 890 629 l 697 589 l 621 326 m 556 326 l 632 589 l 389 589 l 313 326 l 556 326 z "},"$":{"ha":636,"x_min":56,"x_max":581,"o":"m 508 775 q 543 706 543 746 q 522 649 543 665 q 475 633 501 633 q 322 764 475 764 q 198 732 246 764 q 150 642 150 700 q 222 522 150 569 q 373 451 275 488 q 526 368 471 414 q 581 232 581 322 q 515 67 581 142 q 343 -21 450 -7 l 350 -137 q 269 -137 311 -150 l 278 -22 q 124 22 192 -17 q 56 115 56 60 q 71 158 56 140 q 110 176 86 176 q 181 73 128 110 q 314 36 235 36 q 451 81 393 36 q 510 211 510 125 q 458 324 510 286 q 313 395 418 354 q 141 489 208 436 q 74 621 74 542 q 131 755 74 700 q 278 824 189 810 l 269 940 q 350 940 311 953 l 343 828 q 508 775 449 825 z "},"%":{"ha":1024,"x_min":63,"x_max":961,"o":"m 601 213 q 781 449 601 449 q 961 217 961 449 q 914 40 961 101 q 781 -21 867 -21 q 648 38 694 -21 q 601 213 601 96 m 781 396 q 665 215 665 396 q 779 33 665 33 q 897 217 897 33 q 867 349 897 301 q 781 396 838 396 m 63 625 q 242 861 63 861 q 422 629 422 861 q 375 453 422 514 q 242 392 328 392 q 109 450 156 392 q 63 625 63 508 m 242 808 q 126 627 126 808 q 240 446 126 446 q 358 629 358 446 q 328 761 358 714 q 242 808 299 808 m 793 861 l 301 0 l 229 0 l 721 861 l 793 861 z "},"&":{"ha":1001,"x_min":56,"x_max":981,"o":"m 885 46 q 961 85 933 46 q 981 42 981 68 q 957 -3 981 17 q 892 -24 933 -24 q 643 93 800 -24 q 343 -25 517 -25 q 129 42 203 -25 q 56 215 56 108 q 102 364 56 290 q 247 490 149 438 q 144 728 144 628 q 203 883 144 828 q 361 938 261 938 q 492 888 431 938 q 554 747 554 838 q 494 583 554 657 q 351 478 433 510 q 399 424 365 460 q 643 185 522 289 q 740 404 713 278 l 661 413 q 693 461 656 461 l 890 461 q 890 451 889 457 q 890 438 892 444 q 885 426 888 432 q 851 411 878 414 l 806 408 q 692 147 774 254 q 885 46 821 46 m 324 522 q 442 617 404 553 q 481 747 481 681 q 441 844 481 814 q 361 875 401 875 q 250 836 286 875 q 214 738 214 797 q 317 521 214 656 l 322 524 l 324 522 m 139 222 q 139 186 139 222 q 192 93 139 150 q 367 36 244 36 q 594 132 490 36 q 353 365 488 221 q 283 444 325 394 q 176 351 214 407 q 139 222 139 294 z "},"'":{"ha":238,"x_min":69,"x_max":168,"o":"m 86 704 l 69 943 q 168 947 118 957 l 144 704 q 86 704 117 699 z "},"(":{"ha":376,"x_min":83,"x_max":363,"o":"m 172 347 q 354 -236 172 -10 l 308 -272 q 232 -174 261 -217 q 163 -55 203 -132 q 103 122 124 22 q 83 340 83 221 q 106 564 83 460 q 170 748 129 668 q 244 876 211 828 q 319 975 276 924 l 363 943 q 319 878 329 894 q 272 796 308 863 q 219 675 236 729 q 172 347 172 515 z "},")":{"ha":376,"x_min":14,"x_max":293,"o":"m 270 564 q 282 512 270 564 q 293 340 293 460 q 273 122 293 221 q 213 -55 253 22 q 144 -174 174 -132 q 68 -272 115 -217 l 22 -236 q 204 347 204 -10 q 104 796 204 611 q 58 878 68 863 q 14 943 47 894 l 57 975 q 133 876 100 924 q 206 748 165 828 q 270 564 247 668 z "},"*":{"ha":833,"x_min":104,"x_max":600,"o":"m 375 760 l 565 858 q 600 754 600 811 l 389 717 l 540 561 q 451 497 508 517 l 353 688 l 253 496 q 164 561 200 513 l 314 715 l 104 753 q 140 857 111 817 l 331 758 l 297 969 q 407 969 354 985 l 375 760 z "},"+":{"ha":653,"x_min":69,"x_max":583,"o":"m 583 439 l 583 369 l 363 369 l 363 147 l 290 147 l 290 369 l 69 369 l 69 439 l 290 439 l 290 661 l 363 661 l 363 439 l 583 439 z "},",":{"ha":239,"x_min":56,"x_max":183,"o":"m 56 44 q 56 58 56 44 q 73 89 56 71 q 119 107 90 107 q 165 89 147 107 q 183 27 183 71 q 152 -67 183 -17 q 83 -133 121 -118 q 68 -127 78 -136 q 58 -112 58 -118 q 110 -24 94 -87 q 70 -1 85 -21 q 56 44 56 18 z "},"-":{"ha":532,"x_min":69,"x_max":463,"o":"m 69 375 l 463 375 l 463 306 l 69 306 l 69 375 z "},".":{"ha":239,"x_min":56,"x_max":183,"o":"m 165 -2 q 156 -11 165 -2 q 119 -21 147 -21 q 74 -2 92 -21 q 56 44 56 17 q 74 91 56 72 q 119 110 92 110 q 165 91 147 110 q 183 44 183 72 q 165 -2 183 17 z "},"/":{"ha":568,"x_min":28,"x_max":540,"o":"m 110 -197 l 28 -197 l 458 967 l 540 967 l 110 -197 z "},":":{"ha":239,"x_min":56,"x_max":183,"o":"m 165 423 q 156 414 165 423 q 119 404 147 404 q 74 423 92 404 q 56 469 56 442 q 74 516 56 497 q 119 535 92 535 q 165 516 147 535 q 183 469 183 497 q 165 423 183 442 m 165 -2 q 156 -11 165 -2 q 119 -21 147 -21 q 74 -2 92 -21 q 56 44 56 17 q 74 91 56 72 q 119 110 92 110 q 165 91 147 110 q 183 44 183 72 q 165 -2 183 17 z "},";":{"ha":263,"x_min":56,"x_max":207,"o":"m 79 44 q 79 58 79 44 q 97 89 79 71 q 142 107 114 107 q 189 89 171 107 q 207 27 207 71 q 176 -67 207 -17 q 107 -133 144 -118 q 92 -127 101 -136 q 82 -112 82 -118 q 133 -24 118 -87 q 94 -1 108 -21 q 79 44 79 18 m 165 516 q 174 507 165 516 q 183 469 183 497 q 165 423 183 442 q 119 404 147 404 q 74 423 92 404 q 56 469 56 442 q 74 516 56 497 q 119 535 92 535 q 165 516 147 535 z "},"<":{"ha":613,"x_min":56,"x_max":543,"o":"m 543 606 l 158 404 l 543 203 l 510 139 l 56 378 l 56 431 l 510 669 l 543 606 z "},"=":{"ha":653,"x_min":69,"x_max":583,"o":"m 69 353 l 583 353 l 583 283 l 69 283 l 69 353 m 69 532 l 583 532 l 583 463 l 69 463 l 69 532 z "},">":{"ha":585,"x_min":42,"x_max":529,"o":"m 75 669 l 529 431 l 529 378 l 75 139 l 42 203 l 426 404 l 42 606 l 75 669 z "},"?":{"ha":669,"x_min":69,"x_max":600,"o":"m 249 91 q 258 100 249 91 q 294 110 267 110 q 340 91 322 110 q 358 44 358 72 q 340 -2 358 17 q 294 -21 322 -21 q 249 -2 267 -21 q 231 44 231 17 q 249 91 231 72 m 69 796 q 142 926 69 867 q 338 985 215 985 q 530 924 460 985 q 600 754 600 863 q 518 566 600 646 q 332 461 436 486 l 324 249 q 267 249 296 244 l 260 504 q 445 602 374 533 q 517 751 517 671 q 468 879 517 831 q 331 928 419 928 q 194 872 243 928 q 144 735 144 815 q 69 796 69 735 z "},"@":{"ha":1319,"x_min":69,"x_max":1250,"o":"m 685 -226 q 238 -69 407 -226 q 69 352 69 88 q 241 783 69 617 q 694 950 413 950 q 1097 828 944 950 q 1250 508 1250 706 q 1135 192 1250 310 q 833 74 1021 74 q 775 103 783 74 q 775 149 771 121 q 574 57 675 57 q 418 131 472 57 q 381 348 364 204 q 486 580 399 492 q 706 668 574 668 q 843 635 779 668 l 846 657 l 913 667 l 839 129 q 1089 225 994 124 q 1183 501 1183 326 q 1048 785 1183 676 q 692 894 913 894 q 291 747 443 894 q 139 359 139 599 q 292 -26 139 119 q 694 -171 444 -171 q 1011 -87 881 -171 l 1028 -143 q 685 -226 872 -226 m 679 606 q 525 533 582 606 q 454 363 468 461 q 474 194 440 264 q 603 125 508 125 q 688 144 650 125 q 783 204 726 163 l 831 546 q 771 586 811 567 q 679 606 731 606 z "},"A":{"ha":829,"x_min":14,"x_max":814,"o":"m 782 0 l 531 0 l 531 11 q 549 50 531 42 q 569 56 557 54 l 639 60 l 560 328 l 254 328 l 176 63 l 279 54 q 247 0 285 0 l 14 0 l 14 11 q 32 50 14 42 q 108 60 42 54 l 378 939 q 456 939 417 944 l 724 63 l 725 63 l 814 54 q 782 0 819 0 m 274 390 l 542 390 l 407 846 l 274 390 z "},"B":{"ha":738,"x_min":58,"x_max":696,"o":"m 97 940 l 381 940 q 580 875 511 940 q 649 710 649 810 q 500 500 649 565 q 637 424 579 483 q 696 272 694 364 q 612 72 697 144 q 388 0 526 0 l 58 0 q 58 11 58 0 q 76 50 58 42 q 97 56 85 54 l 167 60 l 167 878 l 65 886 q 97 940 60 940 m 247 881 l 247 517 l 315 517 q 504 565 446 517 q 563 709 563 614 q 499 848 563 804 q 318 885 436 892 l 249 881 l 247 881 m 353 58 q 552 109 494 57 q 610 267 610 161 q 545 419 610 374 q 332 461 481 464 l 247 460 l 247 60 l 353 58 z "},"C":{"ha":760,"x_min":54,"x_max":724,"o":"m 453 958 q 639 908 564 958 q 714 785 714 858 q 640 711 714 713 q 587 847 640 799 q 443 894 533 894 q 220 776 297 894 q 143 467 143 658 q 218 165 143 275 q 451 54 293 54 q 707 139 608 54 q 724 111 724 131 q 643 26 724 72 q 443 -21 563 -21 q 160 101 260 -21 q 55 442 61 222 q 157 810 49 661 q 453 958 265 958 z "},"D":{"ha":906,"x_min":58,"x_max":850,"o":"m 97 940 l 379 940 q 740 827 629 940 q 850 478 850 714 q 731 122 850 243 q 379 0 613 0 l 58 0 l 58 11 q 76 50 58 42 q 97 56 85 54 l 167 60 l 167 878 l 65 886 q 97 940 60 940 m 247 58 l 350 58 q 656 160 549 58 q 764 478 764 261 q 652 793 764 694 q 318 883 540 892 l 247 881 l 247 58 z "},"E":{"ha":760,"x_min":58,"x_max":696,"o":"m 696 179 l 696 0 l 58 0 l 58 11 q 76 50 58 42 q 97 56 85 54 l 167 60 l 167 875 l 65 885 q 99 938 60 938 l 679 938 l 679 744 q 625 713 679 707 l 611 868 l 247 875 l 247 497 l 519 513 q 519 422 528 471 l 247 438 l 247 63 l 628 71 l 642 211 q 674 211 653 217 q 696 179 696 206 z "},"F":{"ha":708,"x_min":58,"x_max":681,"o":"m 681 938 l 681 758 q 626 726 681 721 l 611 875 l 250 875 l 250 514 l 521 529 q 521 439 529 488 l 250 454 l 250 63 l 369 54 q 338 0 375 0 l 58 0 q 58 11 58 0 q 76 50 58 42 q 97 56 85 54 l 167 60 l 167 875 l 65 885 q 99 938 60 938 l 681 938 z "},"G":{"ha":850,"x_min":56,"x_max":828,"o":"m 558 421 l 828 421 q 828 411 828 421 q 789 365 828 369 l 756 361 l 756 90 q 616 10 706 40 q 436 -21 526 -21 q 162 98 261 -21 q 56 442 63 217 q 161 815 49 668 q 481 961 274 961 q 683 908 617 961 q 750 783 750 856 q 676 711 750 711 q 619 852 676 807 q 461 897 561 897 q 224 777 306 897 q 142 465 142 657 q 216 159 142 274 q 451 44 290 44 q 674 111 589 44 l 674 358 l 528 367 q 558 421 522 421 z "},"H":{"ha":971,"x_min":58,"x_max":913,"o":"m 874 0 l 615 0 l 615 11 q 633 50 615 42 q 654 56 642 54 l 724 60 l 724 439 l 247 439 l 247 63 l 350 54 q 318 0 356 0 l 58 0 l 58 11 q 76 50 58 42 q 97 56 85 54 l 167 60 l 167 875 l 65 883 q 97 938 60 938 l 357 938 l 357 928 q 339 888 357 897 q 318 882 331 883 l 249 878 l 249 501 l 724 501 l 724 875 l 622 883 q 654 938 617 938 l 913 938 l 913 928 q 894 888 913 897 q 874 882 886 883 l 804 878 l 804 63 l 906 54 q 874 0 911 0 z "},"I":{"ha":415,"x_min":58,"x_max":357,"o":"m 247 878 l 247 63 l 350 54 q 318 0 356 0 l 58 0 l 58 11 q 76 50 58 42 q 97 56 85 54 l 167 60 l 167 875 l 65 883 q 97 938 60 938 l 357 938 l 357 928 q 339 888 357 897 q 318 882 331 883 l 249 878 l 247 878 z "},"J":{"ha":425,"x_min":-28,"x_max":367,"o":"m 100 938 l 367 938 q 367 928 367 938 q 349 888 367 897 q 265 878 339 883 l 265 178 q 215 -12 265 61 q 75 -86 164 -86 q 3 -64 33 -86 q -28 -14 -28 -42 q 26 38 -28 40 q 94 -21 31 -21 q 163 20 142 -21 q 185 163 185 61 l 185 875 l 68 883 q 100 938 63 938 z "},"K":{"ha":819,"x_min":58,"x_max":779,"o":"m 549 938 l 779 938 q 779 928 779 938 q 761 888 779 897 q 686 878 751 883 l 372 501 l 693 57 l 778 49 q 746 0 783 0 l 631 0 l 321 440 l 247 351 l 247 63 l 350 54 q 318 0 356 0 l 58 0 l 58 11 q 76 50 58 42 q 97 56 85 54 l 167 60 l 167 875 l 65 883 q 97 938 60 938 l 357 938 l 357 928 q 339 888 357 897 q 318 882 331 883 l 249 878 l 247 440 l 604 875 l 517 883 q 549 938 511 938 z "},"L":{"ha":721,"x_min":58,"x_max":693,"o":"m 693 179 l 693 0 l 58 0 l 58 11 q 76 50 58 42 q 97 56 85 54 l 167 60 l 167 878 l 64 886 q 96 940 58 940 l 356 940 l 356 931 q 338 890 356 900 q 317 885 329 886 l 247 881 l 247 63 l 625 68 l 639 211 q 693 179 693 217 z "},"M":{"ha":1092,"x_min":21,"x_max":1069,"o":"m 1038 0 l 794 0 l 794 11 q 813 50 794 42 q 897 60 822 54 l 844 799 l 581 176 q 526 174 547 169 l 253 776 l 197 63 l 296 54 q 264 0 301 0 l 21 0 l 21 11 q 39 50 21 42 q 124 60 49 54 l 192 878 l 92 886 q 124 940 86 940 l 271 940 l 563 290 l 831 940 l 982 940 q 1014 886 1019 940 l 917 878 l 981 65 l 1069 54 q 1038 0 1075 0 z "},"N":{"ha":947,"x_min":58,"x_max":913,"o":"m 664 938 l 913 938 q 913 928 913 938 q 894 888 913 897 q 874 882 886 883 l 801 878 l 801 15 q 739 0 769 0 l 236 781 l 236 63 l 339 54 q 307 0 344 0 l 58 0 q 58 11 58 0 q 76 50 58 42 q 97 56 85 54 l 168 60 l 168 875 l 65 883 q 97 938 60 938 l 235 938 l 735 160 l 735 875 l 632 883 q 664 938 626 938 z "},"O":{"ha":874,"x_min":56,"x_max":818,"o":"m 206 167 q 298 76 239 108 q 436 43 357 43 q 663 160 588 44 q 738 465 738 275 q 669 769 738 653 q 442 894 597 894 q 213 776 288 893 q 138 471 138 660 q 206 167 138 282 m 453 958 q 638 908 553 958 q 726 831 689 879 q 790 696 764 782 q 818 497 817 610 q 717 122 821 264 q 414 -21 614 -21 q 156 100 250 -21 q 56 444 61 221 q 156 813 50 667 q 453 958 261 958 z "},"P":{"ha":750,"x_min":58,"x_max":722,"o":"m 97 940 l 381 940 q 637 867 551 940 q 722 681 722 794 q 347 385 722 385 q 247 389 297 385 l 247 63 l 350 54 q 318 0 356 0 l 58 0 q 58 11 58 0 q 76 50 58 42 q 97 56 85 54 l 167 60 l 167 878 l 65 886 q 97 940 60 940 m 336 443 q 563 497 490 443 q 636 667 636 550 q 559 840 636 785 q 318 885 482 894 l 247 881 l 247 447 q 336 443 294 443 z "},"Q":{"ha":897,"x_min":56,"x_max":842,"o":"m 831 -92 q 842 -132 842 -106 q 819 -177 842 -158 q 760 -196 796 -196 q 685 -185 724 -196 q 604 -152 647 -175 q 533 -112 561 -129 q 456 -63 504 -96 q 390 -19 407 -31 q 149 108 238 -11 q 56 447 61 228 q 156 813 50 667 q 453 958 261 958 q 638 908 553 958 q 726 831 689 879 q 790 696 764 782 q 818 497 817 610 q 738 153 821 290 q 496 -14 656 15 q 761 -114 689 -114 q 831 -92 796 -114 m 206 167 q 298 76 239 108 q 436 43 357 43 q 663 160 588 44 q 738 465 738 275 q 669 769 738 653 q 442 894 597 894 q 213 776 288 893 q 138 471 138 660 q 206 167 138 282 z "},"R":{"ha":782,"x_min":58,"x_max":763,"o":"m 58 0 l 58 14 q 67 44 58 38 q 97 56 85 56 l 167 60 l 167 878 l 65 886 q 65 899 65 888 q 65 914 64 910 q 68 925 65 918 q 97 940 74 940 l 397 940 q 690 714 690 940 q 615 531 690 599 q 425 446 540 463 q 606 156 513 261 q 763 51 700 51 q 747 -1 763 18 q 707 -21 732 -21 q 522 126 626 -21 q 357 440 417 274 l 353 440 q 249 444 300 440 l 249 63 l 351 54 q 331 1 351 8 q 319 0 326 0 l 58 0 m 249 881 l 249 503 q 343 499 299 499 q 538 551 471 499 q 606 694 606 603 q 550 844 606 801 q 414 886 494 886 q 250 881 363 886 l 249 881 z "},"S":{"ha":675,"x_min":35,"x_max":640,"o":"m 550 903 q 596 819 596 867 q 573 752 596 771 q 519 733 550 733 q 476 847 519 806 q 348 889 433 889 q 208 851 263 889 q 154 742 154 813 q 232 607 154 658 q 374 533 293 567 q 490 482 454 500 q 567 433 526 464 q 640 269 640 379 q 547 69 640 158 q 307 -21 454 -21 q 117 24 200 -21 q 35 138 35 68 q 52 189 35 168 q 97 210 69 210 q 178 90 118 131 q 335 49 239 49 q 494 103 431 49 q 557 250 557 157 q 545 321 557 292 q 502 374 533 350 q 447 410 471 397 q 345 457 408 431 q 242 504 282 483 q 157 558 201 525 q 71 723 71 621 q 149 890 71 825 q 349 958 228 956 q 550 903 472 961 z "},"T":{"ha":825,"x_min":28,"x_max":797,"o":"m 28 938 l 797 938 l 797 778 q 743 746 797 740 l 735 875 l 456 875 l 456 63 l 558 54 q 526 0 564 0 l 267 0 q 267 11 267 0 q 285 50 267 42 q 306 56 293 54 l 375 60 l 375 875 l 90 875 l 82 746 q 28 778 28 740 l 28 938 z "},"U":{"ha":889,"x_min":36,"x_max":854,"o":"m 614 938 l 854 938 q 854 928 854 938 q 836 888 854 897 q 815 882 828 883 l 749 878 l 749 339 q 671 76 749 174 q 426 -21 593 -21 q 138 317 138 -21 l 138 875 l 36 883 q 68 938 31 938 l 326 938 q 326 928 326 938 q 308 888 326 897 q 288 882 300 883 l 218 878 l 217 329 q 436 42 217 42 q 619 113 554 42 q 683 328 683 183 l 683 875 l 582 883 q 614 938 576 938 z "},"V":{"ha":840,"x_min":8,"x_max":833,"o":"m 631 938 l 833 938 q 833 928 833 938 q 794 882 833 886 l 768 878 l 443 0 l 385 0 l 83 875 l 8 883 q 40 938 3 938 l 282 938 l 282 928 q 264 888 282 897 q 243 882 256 883 l 174 878 l 172 878 l 424 115 l 696 875 l 599 883 q 631 938 593 938 z "},"W":{"ha":1303,"x_min":8,"x_max":1296,"o":"m 1083 938 l 1296 938 q 1296 928 1296 938 q 1278 888 1296 897 q 1232 879 1269 883 l 943 0 l 878 0 l 654 710 l 404 0 l 344 0 l 82 875 l 8 883 q 40 938 3 938 l 278 938 l 278 928 q 260 888 278 897 q 174 878 250 883 l 383 131 l 629 856 l 701 856 l 918 126 l 1154 875 l 1051 883 q 1083 938 1046 938 z "},"X":{"ha":842,"x_min":14,"x_max":826,"o":"m 794 0 l 571 0 l 571 11 q 589 50 571 42 q 651 60 597 54 l 414 411 l 185 63 l 186 63 l 265 54 q 233 0 271 0 l 14 0 l 14 11 q 32 50 14 42 q 99 58 42 56 l 376 465 l 97 878 l 22 886 q 54 940 17 940 l 282 940 l 282 931 q 264 890 282 900 q 196 881 254 886 l 432 533 l 638 879 l 558 886 q 590 940 553 940 l 797 940 l 797 931 q 779 890 797 900 q 732 882 771 886 l 722 882 l 468 479 l 751 63 l 826 54 q 794 0 832 0 z "},"Y":{"ha":806,"x_min":8,"x_max":799,"o":"m 593 940 l 799 940 q 799 931 799 940 q 760 885 799 889 l 732 881 l 731 881 l 450 378 l 450 63 l 553 54 q 521 0 558 0 l 258 0 l 258 11 q 276 50 258 42 q 297 56 285 54 l 367 60 l 367 378 l 83 878 l 8 886 q 40 940 3 940 l 281 940 l 281 931 q 263 890 281 900 q 242 885 254 886 l 175 881 l 422 440 l 657 878 l 561 886 q 593 940 556 940 z "},"Z":{"ha":719,"x_min":32,"x_max":682,"o":"m 681 0 l 46 0 q 32 29 43 4 l 569 886 l 165 874 l 147 747 q 127 710 143 719 q 93 704 111 700 l 93 951 l 668 951 q 682 922 674 942 l 143 63 l 607 75 l 625 213 q 645 250 629 240 q 681 256 661 260 l 681 0 z "},"[":{"ha":289,"x_min":83,"x_max":275,"o":"m 158 896 l 158 -194 l 275 -194 l 275 -250 l 83 -250 l 83 951 l 275 951 l 275 896 l 158 896 z "},"\\":{"ha":568,"x_min":26,"x_max":539,"o":"m 539 -197 l 457 -197 l 26 967 l 108 967 l 539 -197 z "},"]":{"ha":275,"x_min":14,"x_max":206,"o":"m 131 -194 l 131 896 l 14 896 l 14 951 l 206 951 l 206 -250 l 14 -250 l 14 -194 l 131 -194 z "},"^":{"ha":664,"x_min":69,"x_max":594,"o":"m 594 283 l 519 283 l 339 783 l 147 283 l 69 283 l 313 907 l 365 907 l 594 283 z "},"_":{"ha":528,"x_min":-56,"x_max":583,"o":"m -56 -124 l 583 -124 l 583 -193 l -56 -193 l -56 -124 z "},"`":{"ha":833,"x_min":97,"x_max":406,"o":"m 369 735 l 97 882 q 132 924 110 906 q 178 943 154 942 l 406 771 q 369 735 390 744 z "},"a":{"ha":690,"x_min":69,"x_max":663,"o":"m 586 -22 q 494 71 504 -22 q 401 6 458 33 q 262 -21 344 -21 q 124 28 179 -21 q 69 164 69 76 q 121 292 69 238 q 333 358 182 358 q 493 336 419 358 l 493 460 q 451 583 493 533 q 329 633 408 633 q 174 496 190 633 q 128 508 146 493 q 110 560 110 524 q 169 656 110 617 q 321 694 228 694 q 469 660 393 694 q 542 588 514 639 q 569 464 569 538 l 569 49 l 663 38 q 586 -22 663 -22 m 493 257 q 333 299 426 299 q 199 265 240 299 q 158 173 158 231 q 195 81 158 115 q 297 46 232 46 q 493 133 410 46 l 493 257 z "},"b":{"ha":754,"x_min":22,"x_max":699,"o":"m 204 588 q 426 694 308 694 q 619 608 543 694 q 699 354 694 522 q 615 83 703 186 q 372 -21 528 -21 q 194 24 286 -21 l 128 50 l 128 878 l 50 886 q 22 939 22 889 l 204 964 l 204 588 m 397 44 q 561 128 507 44 q 615 336 615 213 q 563 541 615 460 q 403 622 511 622 q 306 601 347 622 q 204 529 265 579 l 204 117 q 282 68 231 92 q 397 44 333 44 z "},"c":{"ha":621,"x_min":56,"x_max":567,"o":"m 378 694 q 513 660 464 694 q 563 568 563 625 q 496 504 563 504 q 460 592 494 554 q 356 629 425 629 q 194 542 250 629 q 139 329 139 456 q 183 139 139 219 q 358 47 235 47 q 553 121 460 47 q 567 94 567 111 q 488 16 567 53 q 324 -21 410 -21 q 127 69 196 -21 q 56 317 58 160 q 138 584 53 474 q 378 694 224 694 z "},"d":{"ha":743,"x_min":56,"x_max":715,"o":"m 640 -21 q 551 89 558 -21 q 330 -21 447 -21 q 136 66 213 -21 q 56 321 60 153 q 140 592 51 489 q 383 694 228 694 q 551 656 464 694 l 551 878 l 474 886 q 446 939 446 889 l 628 964 l 628 50 l 715 39 q 640 -21 713 -21 m 358 629 q 194 546 249 629 q 139 339 139 463 q 192 133 139 215 q 353 51 244 51 q 449 73 408 51 q 551 144 490 94 l 551 557 q 474 606 525 582 q 358 629 422 629 z "},"e":{"ha":628,"x_min":56,"x_max":585,"o":"m 585 372 l 144 372 q 142 322 142 339 q 194 125 142 203 q 356 47 247 47 q 556 121 464 47 q 569 93 569 111 q 494 18 569 57 q 331 -21 419 -21 q 132 63 208 -21 q 56 319 56 147 q 147 593 56 492 q 367 694 239 694 q 471 671 426 694 q 539 608 515 647 q 585 436 585 531 l 585 372 m 499 426 q 463 576 501 517 q 351 636 424 636 q 226 578 279 636 q 153 426 172 521 l 499 426 z "},"f":{"ha":419,"x_min":68,"x_max":461,"o":"m 381 49 q 381 31 381 38 q 379 17 381 24 q 375 8 378 10 q 349 0 361 0 l 68 0 l 68 10 q 86 44 68 38 q 169 54 96 49 l 169 618 l 71 618 q 70 629 71 621 q 70 642 69 638 q 72 653 71 646 q 76 664 74 660 q 103 674 83 674 l 169 674 l 169 729 q 217 919 169 854 q 357 985 265 985 q 431 967 400 985 q 461 919 461 949 q 446 874 461 889 q 407 860 431 860 q 385 910 406 892 q 336 929 364 929 q 267 891 289 929 q 246 768 246 853 l 246 674 l 414 674 q 381 618 418 618 l 246 618 l 246 57 l 381 49 z "},"g":{"ha":636,"x_min":25,"x_max":621,"o":"m 288 215 q 226 221 263 215 q 183 152 179 171 q 299 131 188 133 q 548 91 476 128 q 619 -55 619 54 q 533 -237 619 -164 q 308 -311 446 -311 q 97 -259 169 -311 q 25 -125 25 -207 q 144 71 25 -11 q 104 129 104 86 q 174 239 104 172 q 60 410 69 290 q 118 612 50 529 q 304 694 186 694 q 444 654 386 694 l 607 696 q 621 659 619 679 q 607 625 622 639 q 483 617 586 614 q 528 457 531 557 q 465 286 526 357 q 288 215 403 215 m 296 640 q 259 639 296 640 q 179 584 222 638 q 136 456 136 531 q 178 325 136 382 q 293 269 219 268 q 409 327 367 271 q 451 458 451 383 q 410 587 451 532 q 296 640 369 642 m 96 -103 q 157 -203 96 -168 q 325 -239 218 -239 q 496 -187 432 -239 q 560 -65 560 -136 q 453 40 560 21 q 299 54 392 51 q 186 60 206 57 q 121 -15 146 31 q 96 -103 96 -60 z "},"h":{"ha":849,"x_min":68,"x_max":813,"o":"m 781 0 l 529 0 l 529 10 q 547 44 529 38 q 629 54 557 49 l 629 404 q 584 567 629 511 q 467 622 539 622 q 349 599 394 622 q 250 528 303 575 l 250 57 l 357 49 q 325 0 361 0 l 72 0 l 72 10 q 90 44 72 38 q 174 54 100 49 l 174 878 l 96 886 q 68 939 68 889 l 250 964 l 250 594 q 472 694 342 694 q 634 628 565 694 q 704 417 703 563 l 706 57 l 813 49 q 781 0 817 0 z "},"i":{"ha":393,"x_min":68,"x_max":357,"o":"m 325 0 l 72 0 l 72 10 q 90 44 72 38 q 174 54 100 49 l 174 615 l 96 622 q 68 674 68 625 l 250 694 l 250 57 l 357 49 q 325 0 361 0 m 244 831 q 236 822 244 831 q 200 814 228 814 q 156 831 172 814 q 140 874 140 847 q 156 917 140 900 q 200 933 172 933 q 244 917 228 933 q 260 874 260 900 q 244 831 260 847 z "},"j":{"ha":329,"x_min":-83,"x_max":226,"o":"m 123 917 q 131 925 123 917 q 167 933 139 933 q 210 917 194 933 q 226 874 226 900 q 210 831 226 847 q 167 814 194 814 q 123 831 139 814 q 107 874 107 847 q 123 917 107 900 m 215 -12 q 169 -226 215 -140 q 19 -311 124 -311 q -53 -292 -22 -311 q -83 -240 -83 -274 q -29 -187 -83 -183 q 39 -246 -25 -246 q 139 -62 139 -246 l 139 615 l 61 624 q 33 674 33 626 l 215 694 l 215 -12 z "},"k":{"ha":728,"x_min":68,"x_max":735,"o":"m 472 674 l 683 674 l 683 664 q 644 624 683 628 l 601 619 l 394 394 l 642 56 l 735 49 q 703 0 739 0 l 597 0 l 346 342 l 250 236 l 250 57 l 357 49 q 325 0 361 0 l 72 0 l 72 10 q 90 44 72 38 q 174 54 100 49 l 174 878 l 96 886 q 68 939 68 889 l 250 964 l 250 313 l 524 617 l 440 625 q 472 674 436 674 z "},"l":{"ha":385,"x_min":68,"x_max":349,"o":"m 317 0 l 69 0 l 69 10 q 88 44 69 38 q 174 54 97 50 l 174 879 l 96 888 q 68 938 68 890 l 250 963 l 250 57 l 349 49 q 317 0 353 0 z "},"m":{"ha":1281,"x_min":68,"x_max":1244,"o":"m 1213 0 l 961 0 l 961 10 q 979 44 961 38 q 1061 54 989 49 l 1061 403 q 1016 565 1061 510 q 889 621 971 621 q 784 594 829 621 q 683 515 739 568 q 696 415 696 478 l 696 57 l 803 49 q 771 0 808 0 l 519 0 l 519 10 q 538 44 519 38 q 619 54 547 49 l 619 403 q 572 565 619 508 q 443 621 525 621 q 342 597 386 621 q 250 526 299 574 l 250 57 l 357 49 q 325 0 361 0 l 72 0 l 72 10 q 90 44 72 38 q 174 54 100 49 l 174 619 l 110 619 q 68 672 68 619 l 228 694 l 246 594 l 250 594 q 458 694 342 694 q 579 663 522 694 q 667 563 636 631 q 722 625 696 600 q 798 672 749 650 q 904 694 847 694 q 1067 628 997 694 q 1138 415 1138 561 l 1138 57 l 1244 49 q 1213 0 1250 0 z "},"n":{"ha":839,"x_min":68,"x_max":803,"o":"m 771 0 l 525 0 l 525 10 q 543 44 525 38 q 629 54 553 50 l 629 418 q 468 625 629 625 q 360 601 410 625 q 250 525 311 578 l 250 57 l 349 49 q 317 0 353 0 l 69 0 l 69 10 q 88 44 69 38 q 174 54 97 50 l 174 615 l 96 624 q 68 672 68 626 l 228 694 l 247 583 l 251 583 q 489 694 368 694 q 642 631 578 694 q 706 433 706 568 l 706 57 l 803 49 q 771 0 808 0 z "},"o":{"ha":693,"x_min":56,"x_max":638,"o":"m 194 547 q 166 505 194 547 q 139 335 139 463 q 191 124 139 207 q 344 42 243 40 q 499 125 444 43 q 554 333 554 207 q 503 547 554 460 q 350 632 451 633 q 194 547 249 631 m 356 694 q 535 636 451 694 q 608 533 581 603 q 638 363 636 463 q 559 85 640 192 q 340 -21 478 -21 q 131 67 203 -21 q 56 320 58 154 q 137 590 54 486 q 356 694 219 694 z "},"p":{"ha":747,"x_min":15,"x_max":692,"o":"m 197 585 q 423 694 310 694 q 612 608 536 694 q 692 353 688 522 q 608 82 696 185 q 365 -21 521 -21 q 197 18 285 -21 l 197 -239 l 304 -247 q 272 -296 308 -296 l 19 -296 l 19 -286 q 38 -250 19 -258 q 121 -242 47 -247 l 121 611 l 43 619 q 15 667 15 622 l 175 688 l 197 585 m 390 44 q 554 128 500 44 q 608 335 608 211 q 556 541 608 460 q 396 622 504 622 q 299 601 340 622 q 197 529 258 579 l 197 115 q 275 67 224 90 q 390 44 326 44 z "},"q":{"ha":713,"x_min":56,"x_max":732,"o":"m 700 -296 l 447 -296 l 447 -286 q 465 -250 447 -258 q 549 -242 475 -247 l 549 68 q 333 -21 451 -21 q 136 67 214 -21 q 56 321 58 154 q 138 591 53 488 q 378 694 224 694 q 549 656 467 694 l 549 674 l 625 674 l 625 -239 l 732 -247 q 700 -296 736 -296 m 354 629 q 193 546 247 629 q 139 339 139 463 q 192 135 139 215 q 356 54 246 54 q 453 73 413 54 q 549 132 494 92 l 549 560 q 472 607 524 585 q 354 629 421 629 z "},"r":{"ha":549,"x_min":68,"x_max":542,"o":"m 464 694 q 542 626 542 694 q 525 533 542 554 q 474 521 508 518 q 421 619 474 619 q 250 524 356 619 l 250 57 l 371 49 q 339 0 375 0 l 72 0 q 72 10 72 0 q 90 44 72 38 q 174 54 100 49 l 174 610 l 96 618 q 68 667 68 621 l 239 689 l 247 585 l 251 585 q 358 661 296 628 q 464 694 419 694 z "},"s":{"ha":533,"x_min":32,"x_max":503,"o":"m 57 504 q 129 644 58 592 q 281 694 200 696 q 417 665 363 693 q 471 585 472 636 q 446 536 469 550 q 399 524 422 522 q 371 601 400 572 q 279 632 342 631 q 174 603 217 633 q 129 524 131 572 q 169 447 128 475 q 288 390 211 419 q 390 349 364 361 q 447 314 415 336 q 502 192 504 274 q 430 44 500 111 q 242 -21 360 -22 q 94 16 158 -18 q 32 106 31 50 q 50 150 33 133 q 90 165 67 167 q 149 77 103 111 q 263 42 194 43 q 378 75 331 40 q 428 165 426 110 q 397 247 429 219 q 301 297 365 274 q 217 328 238 321 q 159 356 197 336 q 103 393 121 375 q 57 504 57 442 z "},"t":{"ha":507,"x_min":36,"x_max":486,"o":"m 210 618 l 210 203 q 227 83 210 119 q 295 47 244 47 q 378 58 346 47 q 463 108 411 68 q 486 76 486 100 q 421 9 486 40 q 297 -22 356 -22 q 170 31 207 -22 q 133 186 133 83 l 133 618 l 36 618 q 68 674 31 674 l 133 674 l 133 835 l 210 861 l 210 674 l 472 674 q 464 618 474 651 l 210 618 z "},"u":{"ha":783,"x_min":25,"x_max":754,"o":"m 364 -21 q 201 46 271 -21 q 131 258 131 113 l 131 617 l 25 625 q 57 674 19 674 l 207 674 l 207 271 q 252 108 207 164 q 387 51 297 51 q 572 135 476 51 l 572 617 l 465 625 q 497 674 461 674 l 649 674 l 649 75 l 726 67 q 754 14 754 64 l 594 1 l 579 74 q 364 -21 488 -21 z "},"v":{"ha":647,"x_min":7,"x_max":640,"o":"m 467 674 l 640 674 q 640 656 640 674 q 631 635 640 644 q 601 624 621 625 l 596 624 l 346 0 l 288 0 l 57 617 l 7 625 q 36 674 3 674 l 244 674 l 244 664 q 226 628 244 636 q 144 619 217 625 l 325 97 l 518 617 l 435 625 q 467 674 431 674 z "},"w":{"ha":968,"x_min":7,"x_max":961,"o":"m 788 674 l 961 674 q 961 656 961 674 q 951 635 961 644 q 922 624 942 625 l 918 624 l 689 0 l 640 0 l 485 447 l 317 0 l 268 0 l 60 617 l 7 625 q 36 674 3 674 l 244 674 l 244 664 q 226 628 244 636 q 146 619 217 625 l 301 101 l 483 617 l 513 617 l 675 108 l 842 617 l 840 617 l 756 625 q 788 674 750 674 z "},"x":{"ha":660,"x_min":14,"x_max":651,"o":"m 619 0 l 414 0 l 414 10 q 453 50 414 46 l 501 54 l 329 292 l 176 57 l 261 49 q 229 0 267 0 l 14 0 q 14 10 15 4 q 15 22 13 15 q 19 35 17 29 q 53 50 26 47 l 104 54 l 106 54 l 297 335 l 93 617 l 92 617 l 25 625 q 57 674 19 674 l 265 674 l 265 664 q 226 624 265 628 l 179 619 l 347 388 l 496 617 l 419 625 q 451 674 414 674 l 642 674 q 642 663 640 669 q 641 650 643 657 q 636 638 639 643 q 603 624 629 624 l 569 622 l 378 346 l 588 57 l 651 49 q 619 0 656 0 z "},"y":{"ha":672,"x_min":8,"x_max":667,"o":"m 488 674 l 667 674 q 667 664 665 669 q 666 651 668 658 q 661 639 664 644 q 611 622 654 626 l 367 17 q 242 -232 293 -165 q 142 -299 192 -299 q 71 -278 93 -299 q 49 -232 49 -258 q 63 -190 49 -206 q 93 -174 76 -174 q 117 -176 110 -174 q 150 -226 106 -226 q 314 26 210 -226 l 75 617 l 8 625 q 40 674 3 674 l 260 674 l 260 664 q 242 628 260 636 q 161 619 232 625 l 349 124 l 539 617 l 456 625 q 488 674 450 674 z "},"z":{"ha":539,"x_min":21,"x_max":518,"o":"m 72 674 l 503 674 q 517 643 511 661 l 118 54 l 457 60 l 464 140 q 477 170 465 158 q 500 182 489 182 q 518 179 511 182 l 518 0 l 33 0 q 21 31 25 13 l 424 625 l 132 618 l 128 539 q 115 509 126 521 q 91 497 103 497 q 72 500 79 497 l 72 674 z "},"{":{"ha":425,"x_min":69,"x_max":411,"o":"m 140 790 q 188 924 140 874 q 308 974 236 974 q 411 956 381 974 l 401 915 q 360 918 371 918 q 253 888 288 918 q 218 783 218 857 q 230 662 218 750 q 242 529 242 574 q 171 356 242 379 l 171 347 q 242 174 242 324 q 230 40 242 129 q 218 -82 218 -49 q 253 -186 218 -156 q 360 -217 288 -217 q 401 -214 371 -217 l 411 -254 q 308 -272 381 -272 q 188 -222 236 -272 q 140 -89 140 -172 q 151 50 140 -37 q 163 187 163 138 q 156 255 163 236 q 134 292 149 274 q 110 315 119 310 q 69 335 101 321 l 69 368 q 131 407 114 385 q 156 449 149 429 q 163 517 163 469 q 151 651 163 565 q 140 790 140 736 z "},"|":{"ha":353,"x_min":139,"x_max":214,"o":"m 139 -272 l 139 974 l 214 974 l 214 -272 l 139 -272 z "},"}":{"ha":425,"x_min":-14,"x_max":328,"o":"m -14 956 q 89 974 17 974 q 209 924 161 974 q 257 790 257 874 q 246 651 257 736 q 235 517 235 565 q 242 449 235 469 q 266 407 249 429 q 328 368 283 385 l 328 335 q 287 315 296 321 q 263 292 278 310 q 242 255 249 274 q 235 187 235 236 q 246 50 235 138 q 257 -89 257 -37 q 209 -222 257 -172 q 89 -272 161 -272 q -14 -254 17 -272 l -4 -214 q 38 -217 26 -217 q 144 -186 110 -217 q 179 -82 179 -156 q 167 40 179 -49 q 156 174 156 129 q 226 347 156 324 l 226 356 q 156 529 156 379 q 167 662 156 574 q 179 783 179 750 q 144 888 179 857 q 38 918 110 918 q -4 915 26 918 l -14 956 z "},"~":{"ha":742,"x_min":139,"x_max":603,"o":"m 179 339 l 139 358 q 201 448 158 418 q 287 475 243 478 q 383 433 331 472 q 470 391 436 393 q 528 407 504 389 q 563 456 553 425 l 603 440 q 549 350 588 385 q 457 319 510 315 q 349 361 404 322 q 260 403 294 400 q 179 339 208 404 z "}," ":{"ha":372,"x_min":0,"x_max":0,"o":""},"¡":{"ha":350,"x_min":111,"x_max":239,"o":"m 135 -32 l 147 668 q 200 668 174 676 l 224 -37 q 135 -32 171 -46 m 129 928 q 138 938 129 928 q 175 947 147 947 q 221 928 203 947 q 239 882 239 910 q 221 835 239 854 q 175 817 203 817 q 129 835 147 817 q 111 882 111 854 q 129 928 111 910 z "},"¢":{"ha":650,"x_min":69,"x_max":581,"o":"m 576 568 q 510 504 576 504 q 474 597 508 558 q 369 636 440 636 q 208 549 264 636 q 153 329 153 461 q 197 139 153 218 q 372 46 249 46 q 567 119 474 46 q 581 93 581 110 q 526 27 581 60 q 400 -17 472 -6 l 407 -142 q 324 -142 363 -156 l 332 -22 q 140 70 207 -21 q 69 308 72 161 q 136 563 67 456 q 333 690 206 669 l 324 822 q 407 822 367 835 l 400 694 q 529 658 482 693 q 576 568 576 624 z "},"£":{"ha":692,"x_min":69,"x_max":622,"o":"m 214 442 q 224 540 224 539 q 299 780 236 706 q 475 854 363 854 q 576 830 532 854 q 619 756 619 806 q 549 689 619 689 q 454 793 549 793 q 346 733 390 793 q 290 540 301 672 l 281 442 l 528 442 l 528 379 l 274 379 q 247 156 258 224 q 199 56 235 89 l 622 56 q 579 0 628 0 l 78 0 q 69 39 69 13 q 143 78 118 53 q 178 153 168 103 q 207 379 188 203 l 81 379 l 81 442 l 214 442 z "},"¤":{"ha":803,"x_min":69,"x_max":733,"o":"m 218 386 q 218 342 218 386 q 272 242 218 297 q 410 188 325 188 q 548 242 496 188 q 600 386 600 297 q 548 531 600 475 q 410 586 496 586 q 272 531 325 586 q 218 386 218 475 m 617 563 q 675 388 675 492 q 621 215 675 285 l 733 115 q 678 63 707 79 l 578 174 q 406 121 510 121 q 231 179 301 121 l 125 63 q 69 115 96 79 l 190 224 q 143 388 143 290 q 194 554 143 486 l 69 665 q 125 718 96 701 l 235 597 q 405 653 306 653 q 574 603 504 653 l 678 718 q 733 665 707 701 l 617 563 z "},"¥":{"ha":763,"x_min":15,"x_max":749,"o":"m 540 849 l 749 849 q 749 839 749 849 q 710 793 749 797 l 682 789 l 681 789 l 467 440 l 611 440 l 611 378 l 438 378 l 438 307 l 611 307 l 611 244 l 438 244 l 438 63 l 540 54 q 508 0 546 0 l 251 0 l 251 11 q 269 50 251 42 q 290 56 278 54 l 360 60 l 360 244 l 164 244 l 164 307 l 360 307 l 360 378 l 164 378 l 164 440 l 329 440 l 93 786 l 90 786 l 15 794 q 47 849 10 849 l 289 849 l 289 839 q 271 799 289 808 q 194 789 261 794 l 407 453 l 603 786 l 508 794 q 540 849 503 849 z "},"¦":{"ha":353,"x_min":139,"x_max":214,"o":"m 139 465 l 139 974 l 214 974 l 214 465 l 139 465 m 214 236 l 214 -272 l 139 -272 l 139 236 l 214 236 z "},"§":{"ha":717,"x_min":56,"x_max":661,"o":"m 661 -57 q 568 -267 661 -178 q 328 -357 475 -357 q 138 -312 221 -357 q 56 -199 56 -268 q 73 -147 56 -168 q 118 -126 90 -126 q 199 -244 139 -203 q 352 -285 260 -285 q 511 -235 444 -285 q 578 -87 578 -185 q 549 7 578 -32 q 492 62 521 46 q 419 97 463 78 q 339 131 375 115 q 262 169 303 147 q 178 222 221 190 q 92 388 92 286 q 178 557 92 489 q 92 726 92 628 q 175 892 92 825 q 472 950 297 986 q 571 903 525 939 q 617 820 617 868 q 594 753 617 772 q 540 735 571 735 q 497 847 540 806 q 369 888 454 888 q 229 850 283 888 q 175 743 175 813 q 279 592 175 654 q 340 560 315 571 q 412 530 364 550 q 489 496 460 510 q 556 458 518 482 q 614 411 594 435 q 661 279 661 356 q 593 96 661 176 q 661 -57 661 36 m 175 407 q 279 256 175 318 q 340 224 315 235 q 434 184 364 214 q 542 132 504 154 q 578 243 578 182 q 549 343 578 304 q 492 398 521 382 q 419 433 463 414 q 236 518 297 485 q 175 407 175 479 z "},"¨":{"ha":833,"x_min":179,"x_max":529,"o":"m 529 842 q 529 829 529 842 q 510 797 529 815 q 464 778 492 778 q 417 797 436 778 q 399 843 399 817 q 417 889 399 869 q 464 908 436 908 q 510 889 492 908 q 529 842 529 869 m 310 842 q 310 829 310 842 q 291 797 310 815 q 245 778 272 778 q 199 797 218 778 q 179 842 179 815 q 199 889 179 869 q 245 908 218 908 q 291 889 272 908 q 310 842 310 869 z "},"©":{"ha":886,"x_min":69,"x_max":817,"o":"m 471 642 q 549 622 521 642 q 576 576 576 601 q 563 540 576 550 q 532 531 549 531 q 513 575 532 557 q 449 593 493 593 q 376 547 406 593 q 347 431 347 500 q 468 283 347 283 q 571 314 532 283 q 579 294 579 307 q 542 249 579 271 q 456 228 504 228 q 328 280 372 228 q 282 423 283 332 q 331 578 281 514 q 471 642 381 642 m 747 432 q 747 503 747 432 q 662 660 747 574 q 441 746 576 746 q 222 658 306 746 q 139 430 139 569 q 224 204 139 290 q 444 118 308 118 q 663 204 579 118 q 747 432 747 290 m 69 432 q 69 516 69 432 q 173 703 69 600 q 444 806 276 806 q 714 703 611 806 q 817 432 817 600 q 715 161 817 264 q 444 58 613 58 q 172 161 275 58 q 69 432 69 264 z "},"ª":{"ha":433,"x_min":49,"x_max":400,"o":"m 347 481 q 279 521 293 481 q 172 481 232 481 q 81 507 113 481 q 49 581 49 533 q 204 688 49 688 q 275 681 240 688 l 275 725 q 200 811 275 811 q 122 746 129 811 q 87 753 101 743 q 72 792 72 764 q 107 841 72 819 q 200 863 142 863 q 303 833 258 863 q 349 729 349 803 l 349 531 l 400 525 q 386 493 400 506 q 347 481 372 481 m 275 629 q 206 643 243 643 q 149 628 169 643 q 129 590 129 613 q 147 550 129 567 q 200 533 164 533 q 275 561 236 533 l 275 629 z "},"«":{"ha":749,"x_min":88,"x_max":703,"o":"m 458 606 l 179 338 l 179 331 l 460 63 l 426 29 l 88 307 q 88 363 82 333 l 426 639 l 458 606 m 701 606 l 422 338 l 422 331 l 703 63 l 669 29 l 331 307 q 331 363 325 333 l 669 639 l 701 606 z "},"¬":{"ha":656,"x_min":69,"x_max":586,"o":"m 586 442 l 586 224 l 514 224 l 514 372 l 69 372 l 69 442 l 586 442 z "},"­":{"ha":532,"x_min":69,"x_max":463,"o":"m 69 375 l 463 375 l 463 306 l 69 306 l 69 375 z "},"®":{"ha":813,"x_min":97,"x_max":715,"o":"m 97 653 q 97 723 97 653 q 183 879 97 793 q 406 965 268 965 q 630 881 544 965 q 715 654 715 796 q 630 428 715 513 q 407 343 544 343 q 183 428 269 343 q 97 653 97 514 m 160 654 q 160 597 160 654 q 228 468 160 539 q 408 397 297 397 q 585 467 518 397 q 653 651 653 536 q 587 838 653 767 q 410 910 521 910 q 230 840 300 910 q 160 654 160 769 m 283 839 l 410 839 q 532 754 532 839 q 438 657 532 675 q 503 560 468 594 q 565 525 538 525 q 523 490 563 490 q 444 540 483 490 q 382 653 406 590 l 365 653 l 365 535 l 407 532 q 389 496 407 496 l 267 496 q 285 533 267 532 l 307 535 l 307 801 l 268 803 q 283 839 268 839 m 365 803 l 365 689 q 400 688 374 688 q 449 704 426 688 q 471 749 471 721 q 393 803 471 803 l 365 803 z "},"¯":{"ha":833,"x_min":181,"x_max":535,"o":"m 181 876 l 535 876 l 535 803 l 181 803 l 181 876 z "},"°":{"ha":426,"x_min":69,"x_max":357,"o":"m 154 866 q 143 855 154 866 q 132 806 132 843 q 155 744 132 768 q 215 719 178 719 q 273 743 251 719 q 294 804 294 767 q 272 865 294 842 q 213 889 250 889 q 154 866 176 889 m 110 704 q 90 724 110 704 q 69 804 69 743 q 110 903 69 865 q 214 942 151 942 q 317 904 276 942 q 357 805 357 867 q 317 704 357 743 q 213 665 276 665 q 110 704 150 665 z "},"±":{"ha":653,"x_min":69,"x_max":583,"o":"m 363 439 l 583 439 l 583 369 l 363 369 l 363 197 l 290 197 l 290 369 l 69 369 l 69 439 l 290 439 l 290 661 l 363 661 l 363 439 m 69 92 l 69 161 l 583 161 l 583 92 l 69 92 z "},"²":{"ha":435,"x_min":49,"x_max":386,"o":"m 386 385 l 56 385 q 49 422 46 407 q 237 601 181 532 q 294 733 293 669 q 272 792 294 769 q 208 814 250 814 q 119 707 119 814 q 61 757 61 704 q 106 832 61 801 q 219 863 150 863 q 328 828 288 863 q 369 743 369 793 q 348 649 369 693 q 286 564 326 606 q 139 436 193 472 l 335 436 l 342 482 q 360 507 344 500 q 386 508 375 514 l 386 385 z "},"³":{"ha":411,"x_min":47,"x_max":369,"o":"m 129 651 q 222 675 175 651 q 269 751 269 699 q 197 815 269 815 q 142 794 161 815 q 122 740 124 774 q 81 753 94 742 q 70 791 68 765 q 108 839 72 817 q 205 861 144 861 q 305 832 265 861 q 344 754 344 803 q 240 638 344 674 q 334 598 299 631 q 369 510 369 565 q 317 414 369 456 q 192 372 264 372 q 84 393 121 372 q 47 447 47 414 q 92 493 47 489 q 120 440 96 460 q 189 419 144 419 q 264 444 233 419 q 293 517 294 469 q 244 583 292 564 q 129 599 196 603 l 129 651 z "},"´":{"ha":833,"x_min":258,"x_max":567,"o":"m 567 882 l 294 735 q 258 771 274 744 l 486 943 q 532 924 510 942 q 567 882 554 906 z "},"µ":{"ha":774,"x_min":140,"x_max":751,"o":"m 751 38 q 674 -22 751 -22 q 585 63 596 -22 q 387 -21 499 -21 q 211 53 275 -21 l 219 -260 q 140 -260 182 -271 l 149 222 q 147 258 147 233 l 147 674 l 224 674 l 224 271 q 269 108 224 164 q 403 51 314 51 q 582 129 493 51 l 582 674 l 658 674 l 658 49 l 751 38 z "},"¶":{"ha":782,"x_min":69,"x_max":711,"o":"m 390 940 l 679 940 q 711 886 717 940 l 610 878 l 610 -125 l 526 -125 l 526 878 l 440 878 l 440 -125 l 357 -125 l 357 417 q 228 441 283 417 q 142 493 174 465 q 90 569 111 521 q 69 681 69 618 q 151 867 69 793 q 390 940 233 940 z "},"·":{"ha":239,"x_min":56,"x_max":183,"o":"m 165 302 q 156 293 165 302 q 119 283 147 283 q 74 302 92 283 q 56 349 56 321 q 74 395 56 376 q 119 414 92 414 q 165 395 147 414 q 183 349 183 376 q 165 302 183 321 z "},"¸":{"ha":833,"x_min":297,"x_max":525,"o":"m 414 -57 q 525 -157 525 -57 q 490 -233 525 -204 q 394 -262 454 -262 q 297 -224 333 -262 q 314 -183 293 -197 q 385 -210 347 -210 q 453 -156 453 -210 q 350 -107 453 -107 l 385 25 l 433 25 l 414 -57 z "},"¹":{"ha":372,"x_min":63,"x_max":308,"o":"m 76 406 q 106 439 76 439 l 158 440 l 158 781 l 101 764 q 74 772 86 760 q 63 794 63 785 l 168 849 q 204 857 183 857 q 231 826 231 857 l 231 442 l 308 438 q 306 413 311 426 q 281 399 301 399 l 76 399 l 76 406 z "},"º":{"ha":493,"x_min":64,"x_max":406,"o":"m 328 666 q 328 698 328 666 q 304 770 328 729 q 236 811 281 811 q 166 770 192 811 q 140 667 140 729 q 165 565 140 604 q 233 525 189 525 q 303 564 278 525 q 328 666 328 603 m 64 662 q 63 707 64 662 q 110 808 63 753 q 234 863 158 863 q 357 817 310 863 q 406 678 404 772 q 360 529 407 585 q 231 474 313 474 q 108 522 150 474 q 64 662 65 571 z "},"»":{"ha":749,"x_min":46,"x_max":661,"o":"m 326 338 l 47 606 l 79 639 l 418 363 q 418 307 424 333 l 79 29 l 46 63 l 326 331 l 326 338 m 569 338 l 290 606 l 322 639 l 661 363 q 661 307 667 333 l 322 29 l 289 63 l 569 331 l 569 338 z "},"¼":{"ha":833,"x_min":38,"x_max":796,"o":"m 796 146 l 796 97 l 722 97 l 722 -4 l 651 -12 l 651 97 l 447 97 q 428 140 429 125 l 661 467 q 721 469 693 475 l 722 146 l 796 146 m 651 146 l 651 375 l 488 146 l 651 146 m 639 861 l 711 861 l 219 0 l 147 0 l 639 861 m 51 392 q 81 425 51 425 l 133 428 l 133 781 l 76 763 q 49 772 61 758 q 38 796 38 785 l 143 853 q 179 861 158 861 q 206 829 206 861 l 206 429 l 283 424 q 281 398 286 413 q 256 383 276 383 l 51 383 l 51 392 z "},"½":{"ha":833,"x_min":25,"x_max":810,"o":"m 810 0 l 479 0 q 472 38 469 22 q 650 203 604 147 q 718 349 718 283 q 696 407 718 385 q 632 429 674 429 q 543 322 543 429 q 485 372 485 319 q 529 447 485 417 q 642 478 574 478 q 752 443 711 478 q 793 358 793 408 q 772 265 793 308 q 708 181 750 221 q 563 51 617 88 l 758 51 l 765 97 q 783 122 768 115 q 810 124 799 129 l 810 0 m 619 861 l 692 861 l 200 0 l 128 0 l 619 861 m 39 392 q 68 425 39 425 l 121 428 l 121 781 l 64 763 q 37 772 49 758 q 25 796 25 785 l 131 853 q 167 861 146 861 q 193 829 193 861 l 193 429 l 271 424 q 269 398 274 413 q 243 383 264 383 l 39 383 l 39 392 z "},"¾":{"ha":833,"x_min":29,"x_max":810,"o":"m 810 146 l 810 97 l 736 97 l 736 -4 l 665 -12 l 665 97 l 461 97 q 442 140 443 125 l 675 467 q 735 469 707 475 l 736 146 l 810 146 m 665 146 l 665 375 l 501 146 l 665 146 m 665 861 l 738 861 l 246 0 l 174 0 l 665 861 m 111 651 q 204 675 157 651 q 251 751 251 699 q 179 815 251 815 q 124 794 143 815 q 104 740 106 774 q 63 753 76 742 q 52 791 50 765 q 90 839 54 817 q 187 861 126 861 q 287 832 247 861 q 326 754 326 803 q 222 638 326 674 q 316 598 281 631 q 351 510 351 565 q 299 414 351 456 q 174 372 246 372 q 66 393 103 372 q 29 447 29 414 q 74 493 29 489 q 102 440 78 460 q 171 419 126 419 q 246 444 215 419 q 275 517 276 469 q 226 583 274 564 q 111 599 178 603 l 111 651 z "},"¿":{"ha":669,"x_min":69,"x_max":600,"o":"m 421 841 q 412 832 421 841 q 375 822 403 822 q 329 841 347 822 q 311 888 311 860 q 329 934 311 915 q 375 953 347 953 q 421 934 403 953 q 439 888 439 915 q 421 841 439 860 m 600 136 q 527 6 600 65 q 332 -53 454 -53 q 140 8 210 -53 q 69 178 69 69 q 151 366 69 286 q 338 471 233 446 l 346 683 q 403 683 374 688 l 410 428 q 224 330 296 399 q 153 181 153 261 q 201 53 153 101 q 338 4 250 4 q 476 60 426 4 q 525 197 525 117 q 600 136 600 197 z "},"À":{"ha":829,"x_min":14,"x_max":814,"o":"m 782 0 l 531 0 l 531 11 q 549 50 531 42 q 569 56 557 54 l 639 60 l 560 328 l 254 328 l 176 63 l 279 54 q 247 0 285 0 l 14 0 l 14 11 q 32 50 14 42 q 108 60 42 54 l 378 939 q 456 939 417 944 l 724 63 l 725 63 l 814 54 q 782 0 819 0 m 274 390 l 542 390 l 407 846 l 274 390 m 321 1207 l 549 1035 q 513 999 533 1008 l 240 1146 q 275 1188 253 1169 q 321 1207 297 1206 z "},"Á":{"ha":829,"x_min":14,"x_max":814,"o":"m 782 0 l 531 0 l 531 11 q 549 50 531 42 q 569 56 557 54 l 639 60 l 560 328 l 254 328 l 176 63 l 279 54 q 247 0 285 0 l 14 0 l 14 11 q 32 50 14 42 q 108 60 42 54 l 378 939 q 456 939 417 944 l 724 63 l 725 63 l 814 54 q 782 0 819 0 m 274 390 l 542 390 l 407 846 l 274 390 m 614 1160 l 342 1013 q 306 1049 321 1022 l 533 1221 q 579 1201 557 1219 q 614 1160 601 1183 z "},"Â":{"ha":829,"x_min":14,"x_max":814,"o":"m 782 0 l 531 0 l 531 11 q 549 50 531 42 q 569 56 557 54 l 639 60 l 560 328 l 254 328 l 176 63 l 279 54 q 247 0 285 0 l 14 0 l 14 11 q 32 50 14 42 q 108 60 42 54 l 378 939 q 456 939 417 944 l 724 63 l 725 63 l 814 54 q 782 0 819 0 m 274 390 l 542 390 l 407 846 l 274 390 m 415 1122 l 231 999 q 194 1035 210 1008 l 375 1200 q 456 1200 415 1211 l 636 1035 q 600 999 621 1008 l 415 1122 z "},"Ã":{"ha":829,"x_min":14,"x_max":814,"o":"m 782 0 l 531 0 l 531 11 q 549 50 531 42 q 569 56 557 54 l 639 60 l 560 328 l 254 328 l 176 63 l 279 54 q 247 0 285 0 l 14 0 l 14 11 q 32 50 14 42 q 108 60 42 54 l 378 939 q 456 939 417 944 l 724 63 l 725 63 l 814 54 q 782 0 819 0 m 274 390 l 542 390 l 407 846 l 274 390 m 643 1182 q 595 1088 632 1125 q 506 1050 558 1050 q 395 1085 453 1050 q 307 1119 338 1119 q 228 1051 251 1119 l 186 1067 q 241 1162 201 1129 q 325 1194 281 1194 q 424 1158 369 1194 q 514 1122 479 1122 q 571 1142 549 1122 q 601 1194 593 1163 l 643 1182 z "},"Ä":{"ha":829,"x_min":14,"x_max":814,"o":"m 782 0 l 531 0 l 531 11 q 549 50 531 42 q 569 56 557 54 l 639 60 l 560 328 l 254 328 l 176 63 l 279 54 q 247 0 285 0 l 14 0 l 14 11 q 32 50 14 42 q 108 60 42 54 l 378 939 q 456 939 417 944 l 724 63 l 725 63 l 814 54 q 782 0 819 0 m 274 390 l 542 390 l 407 846 l 274 390 m 371 1106 q 371 1093 371 1106 q 352 1060 371 1079 q 306 1042 333 1042 q 260 1060 279 1042 q 240 1106 240 1079 q 260 1153 240 1133 q 306 1172 279 1172 q 352 1153 333 1172 q 371 1106 371 1133 m 590 1106 q 590 1093 590 1106 q 572 1060 590 1079 q 525 1042 553 1042 q 478 1061 497 1042 q 460 1107 460 1081 q 478 1153 460 1133 q 525 1172 497 1172 q 572 1153 553 1172 q 590 1106 590 1133 z "},"Å":{"ha":829,"x_min":14,"x_max":814,"o":"m 782 0 l 531 0 l 531 11 q 549 50 531 42 q 569 56 557 54 l 639 60 l 560 328 l 254 328 l 176 63 l 279 54 q 247 0 285 0 l 14 0 l 14 11 q 32 50 14 42 q 108 60 42 54 l 378 939 q 456 939 417 944 l 724 63 l 725 63 l 814 54 q 782 0 819 0 m 274 390 l 542 390 l 407 846 l 274 390 m 542 1138 q 542 1110 542 1138 q 507 1050 542 1083 q 416 1017 472 1017 q 326 1049 360 1017 q 293 1135 293 1081 q 328 1222 293 1189 q 420 1256 364 1256 q 510 1224 476 1256 q 542 1138 543 1192 m 465 1183 q 456 1191 465 1183 q 418 1200 447 1200 q 372 1183 389 1200 q 354 1136 354 1165 q 372 1090 354 1107 q 418 1072 389 1072 q 465 1090 447 1072 q 482 1136 482 1107 q 465 1183 482 1165 z "},"Æ":{"ha":1186,"x_min":14,"x_max":1122,"o":"m 1122 179 l 1122 0 l 474 0 l 474 11 q 492 50 474 42 q 513 56 500 54 l 582 60 l 582 440 l 360 440 l 176 63 l 279 54 q 247 0 285 0 l 14 0 l 14 11 q 32 50 14 42 q 107 60 42 54 l 538 939 l 1094 940 l 1094 747 q 1040 715 1094 710 l 1026 871 l 663 878 l 663 500 l 935 515 q 935 425 943 474 l 663 440 l 663 63 l 1054 71 l 1068 211 q 1100 211 1078 217 q 1122 179 1122 206 m 582 503 l 582 878 l 571 878 l 389 503 l 582 503 z "},"Ç":{"ha":760,"x_min":54,"x_max":724,"o":"m 453 958 q 639 908 564 958 q 714 785 714 858 q 640 711 714 713 q 587 847 640 799 q 443 894 533 894 q 220 776 297 894 q 143 467 143 658 q 218 165 143 275 q 451 54 293 54 q 707 139 608 54 q 724 111 724 131 q 651 31 724 75 q 471 -19 579 -14 l 463 -57 q 547 -83 519 -57 q 574 -157 574 -110 q 538 -233 574 -204 q 442 -262 503 -262 q 346 -224 382 -262 q 363 -183 342 -197 q 433 -210 396 -210 q 501 -156 501 -210 q 399 -107 501 -107 l 421 -21 q 155 108 249 -12 q 55 445 61 229 q 157 810 49 661 q 453 958 265 958 z "},"È":{"ha":760,"x_min":58,"x_max":696,"o":"m 515 999 l 243 1146 q 278 1188 256 1169 q 324 1207 300 1206 l 551 1035 q 515 999 536 1008 m 696 179 l 696 0 l 58 0 l 58 11 q 76 50 58 42 q 97 56 85 54 l 167 60 l 167 875 l 65 885 q 99 938 60 938 l 679 938 l 679 744 q 625 713 679 707 l 611 868 l 247 875 l 247 497 l 519 513 q 519 422 528 471 l 247 438 l 247 63 l 628 71 l 642 211 q 674 211 653 217 q 696 179 696 206 z "},"É":{"ha":760,"x_min":58,"x_max":696,"o":"m 617 1160 l 344 1013 q 308 1049 324 1022 l 536 1221 q 582 1201 560 1219 q 617 1160 604 1183 m 696 179 l 696 0 l 58 0 l 58 11 q 76 50 58 42 q 97 56 85 54 l 167 60 l 167 875 l 65 885 q 99 938 60 938 l 679 938 l 679 744 q 625 713 679 707 l 611 868 l 247 875 l 247 497 l 519 513 q 519 422 528 471 l 247 438 l 247 63 l 628 71 l 642 211 q 674 211 653 217 q 696 179 696 206 z "},"Ê":{"ha":760,"x_min":58,"x_max":696,"o":"m 696 179 l 696 0 l 58 0 l 58 11 q 76 50 58 42 q 97 56 85 54 l 167 60 l 167 875 l 65 885 q 99 938 60 938 l 679 938 l 679 744 q 625 713 679 707 l 611 868 l 247 875 l 247 497 l 519 513 q 519 422 528 471 l 247 438 l 247 63 l 628 71 l 642 211 q 674 211 653 217 q 696 179 696 206 m 418 1122 l 233 999 q 197 1035 213 1008 l 378 1200 q 458 1200 418 1211 l 639 1035 q 603 999 624 1008 l 418 1122 z "},"Ë":{"ha":760,"x_min":58,"x_max":696,"o":"m 593 1106 q 593 1093 593 1106 q 574 1060 593 1079 q 528 1042 556 1042 q 481 1061 500 1042 q 463 1107 463 1081 q 481 1153 463 1133 q 528 1172 500 1172 q 574 1153 556 1172 q 593 1106 593 1133 m 374 1106 q 374 1093 374 1106 q 355 1060 374 1079 q 309 1042 336 1042 q 263 1060 282 1042 q 243 1106 243 1079 q 263 1153 243 1133 q 309 1172 282 1172 q 355 1153 336 1172 q 374 1106 374 1133 m 696 179 l 696 0 l 58 0 l 58 11 q 76 50 58 42 q 97 56 85 54 l 167 60 l 167 875 l 65 885 q 99 938 60 938 l 679 938 l 679 744 q 625 713 679 707 l 611 868 l 247 875 l 247 497 l 519 513 q 519 422 528 471 l 247 438 l 247 63 l 628 71 l 642 211 q 674 211 653 217 q 696 179 696 206 z "},"Ì":{"ha":415,"x_min":39,"x_max":357,"o":"m 247 878 l 247 63 l 350 54 q 318 0 356 0 l 58 0 l 58 11 q 76 50 58 42 q 97 56 85 54 l 167 60 l 167 875 l 65 883 q 97 938 60 938 l 357 938 l 357 928 q 339 888 357 897 q 318 882 331 883 l 249 878 l 247 878 m 119 1207 l 347 1035 q 311 999 332 1008 l 39 1146 q 74 1188 51 1169 q 119 1207 96 1206 z "},"Í":{"ha":415,"x_min":58,"x_max":413,"o":"m 97 938 l 357 938 q 357 928 357 938 q 339 888 357 897 q 318 882 331 883 l 249 878 l 247 878 l 247 63 l 350 54 q 318 0 356 0 l 58 0 q 58 11 58 0 q 76 50 58 42 q 97 56 85 54 l 167 60 l 167 875 l 65 883 q 97 938 60 938 m 413 1160 l 140 1013 q 104 1049 119 1022 l 332 1221 q 378 1201 356 1219 q 413 1160 400 1183 z "},"Î":{"ha":415,"x_min":-7,"x_max":435,"o":"m 254 1200 l 435 1035 q 399 999 419 1008 l 214 1122 l 29 999 q -7 1035 8 1008 l 174 1200 q 254 1200 214 1211 m 97 938 l 357 938 q 357 928 357 938 q 339 888 357 897 q 318 882 331 883 l 249 878 l 247 878 l 247 63 l 350 54 q 318 0 356 0 l 58 0 q 58 11 58 0 q 76 50 58 42 q 97 56 85 54 l 167 60 l 167 875 l 65 883 q 97 938 60 938 z "},"Ï":{"ha":415,"x_min":39,"x_max":389,"o":"m 258 1107 q 258 1120 258 1107 q 277 1153 258 1133 q 324 1172 296 1172 q 370 1153 351 1172 q 389 1106 389 1133 q 370 1060 389 1079 q 324 1042 351 1042 q 277 1061 296 1042 q 258 1107 258 1081 m 97 938 l 357 938 l 357 928 q 339 888 357 897 q 318 882 331 883 l 249 878 l 247 878 l 247 63 l 350 54 q 318 0 356 0 l 58 0 l 58 11 q 76 50 58 42 q 97 56 85 54 l 167 60 l 167 875 l 65 883 q 97 938 60 938 m 105 1172 q 118 1172 105 1172 q 151 1153 132 1172 q 169 1106 169 1133 q 151 1060 169 1079 q 105 1042 132 1042 q 58 1060 78 1042 q 39 1106 39 1079 q 58 1153 39 1133 q 105 1172 78 1172 z "},"Ð":{"ha":951,"x_min":58,"x_max":850,"o":"m 97 940 l 379 940 q 740 827 629 940 q 850 478 850 714 q 731 122 850 243 q 379 0 613 0 l 58 0 l 58 11 q 76 50 58 42 q 97 56 85 54 l 167 60 l 167 438 l 96 438 l 96 500 l 167 500 l 167 878 l 65 886 q 97 940 60 940 m 247 58 l 350 58 q 656 160 549 58 q 764 478 764 261 q 652 793 764 694 q 318 883 540 892 l 247 881 l 247 500 l 510 500 l 510 438 l 247 438 l 247 58 z "},"Ñ":{"ha":947,"x_min":58,"x_max":913,"o":"m 664 938 l 913 938 q 913 928 913 938 q 894 888 913 897 q 874 882 886 883 l 801 878 l 801 15 q 739 0 769 0 l 236 781 l 236 63 l 339 54 q 307 0 344 0 l 58 0 q 58 11 58 0 q 76 50 58 42 q 97 56 85 54 l 168 60 l 168 875 l 65 883 q 97 938 60 938 l 235 938 l 735 160 l 735 875 l 632 883 q 664 938 626 938 m 694 1182 q 647 1088 683 1125 q 557 1050 610 1050 q 447 1085 504 1050 q 358 1119 389 1119 q 279 1051 303 1119 l 238 1067 q 292 1162 253 1129 q 376 1194 332 1194 q 476 1158 421 1194 q 565 1122 531 1122 q 622 1142 600 1122 q 653 1194 644 1163 l 694 1182 z "},"Ò":{"ha":874,"x_min":56,"x_max":818,"o":"m 556 999 l 283 1146 q 318 1188 296 1169 q 364 1207 340 1206 l 592 1035 q 556 999 576 1008 m 453 958 q 638 908 553 958 q 726 831 689 879 q 790 696 764 782 q 818 497 817 610 q 717 122 821 264 q 414 -21 614 -21 q 156 100 250 -21 q 56 444 61 221 q 156 813 50 667 q 453 958 261 958 m 206 167 q 298 76 239 108 q 436 43 357 43 q 663 160 588 44 q 738 465 738 275 q 669 769 738 653 q 442 894 597 894 q 213 776 288 893 q 138 471 138 660 q 206 167 138 282 z "},"Ó":{"ha":874,"x_min":56,"x_max":818,"o":"m 657 1160 l 385 1013 q 349 1049 364 1022 l 576 1221 q 622 1201 600 1219 q 657 1160 644 1183 m 206 167 q 298 76 239 108 q 436 43 357 43 q 663 160 588 44 q 738 465 738 275 q 669 769 738 653 q 442 894 597 894 q 213 776 288 893 q 138 471 138 660 q 206 167 138 282 m 453 958 q 638 908 553 958 q 726 831 689 879 q 790 696 764 782 q 818 497 817 610 q 717 122 821 264 q 414 -21 614 -21 q 156 100 250 -21 q 56 444 61 221 q 156 813 50 667 q 453 958 261 958 z "},"Ô":{"ha":874,"x_min":56,"x_max":818,"o":"m 414 -21 q 156 100 250 -21 q 56 444 61 221 q 156 813 50 667 q 453 958 261 958 q 638 908 553 958 q 726 831 689 879 q 790 696 764 782 q 818 497 817 610 q 717 122 821 264 q 414 -21 614 -21 m 667 774 q 632 834 667 774 q 442 894 597 894 q 213 776 288 893 q 138 463 138 660 q 206 167 138 282 q 298 76 239 108 q 436 43 357 43 q 663 160 588 44 q 738 464 738 275 q 667 774 738 653 m 458 1122 l 274 999 q 238 1035 253 1008 l 418 1200 q 499 1200 458 1211 l 679 1035 q 643 999 664 1008 l 458 1122 z "},"Õ":{"ha":874,"x_min":56,"x_max":818,"o":"m 229 1067 q 284 1162 244 1129 q 368 1194 324 1194 q 467 1158 413 1194 q 557 1122 522 1122 q 614 1142 592 1122 q 644 1194 636 1163 l 686 1182 q 638 1088 675 1125 q 549 1050 601 1050 q 438 1085 496 1050 q 350 1119 381 1119 q 271 1051 294 1119 l 229 1067 m 206 167 q 298 76 239 108 q 436 43 357 43 q 663 160 588 44 q 738 465 738 275 q 669 769 738 653 q 442 894 597 894 q 213 776 288 893 q 138 471 138 660 q 206 167 138 282 m 453 958 q 638 908 553 958 q 726 831 689 879 q 790 696 764 782 q 818 497 817 610 q 717 122 821 264 q 414 -21 614 -21 q 156 100 250 -21 q 56 444 61 221 q 156 813 50 667 q 453 958 261 958 z "},"Ö":{"ha":874,"x_min":56,"x_max":818,"o":"m 633 1106 q 633 1093 633 1106 q 615 1060 633 1079 q 568 1042 596 1042 q 522 1061 540 1042 q 503 1107 503 1081 q 522 1153 503 1133 q 568 1172 540 1172 q 615 1153 596 1172 q 633 1106 633 1133 m 414 1106 q 414 1093 414 1106 q 395 1060 414 1079 q 349 1042 376 1042 q 303 1060 322 1042 q 283 1106 283 1079 q 303 1153 283 1133 q 349 1172 322 1172 q 395 1153 376 1172 q 414 1106 414 1133 m 206 167 q 298 76 239 108 q 436 43 357 43 q 663 160 588 44 q 738 465 738 275 q 669 769 738 653 q 442 894 597 894 q 213 776 288 893 q 138 471 138 660 q 206 167 138 282 m 453 958 q 638 908 553 958 q 726 831 689 879 q 790 696 764 782 q 818 497 817 610 q 717 122 821 264 q 414 -21 614 -21 q 156 100 250 -21 q 56 444 61 221 q 156 813 50 667 q 453 958 261 958 z "},"×":{"ha":572,"x_min":69,"x_max":503,"o":"m 503 571 l 336 404 l 503 238 l 453 188 l 286 354 l 119 188 l 69 238 l 236 404 l 69 571 l 119 621 l 286 454 l 453 621 l 503 571 z "},"Ø":{"ha":944,"x_min":56,"x_max":818,"o":"m 414 -21 q 268 10 336 -21 l 250 -21 l 183 15 l 204 50 q 56 417 63 168 q 156 813 50 667 q 453 958 261 958 q 685 875 593 958 l 731 954 l 799 921 l 738 815 q 818 497 817 696 q 717 122 821 264 q 414 -21 614 -21 m 138 463 q 243 118 138 225 l 643 806 q 438 894 568 894 q 213 776 288 893 q 138 463 138 660 m 436 43 q 663 160 588 44 q 738 451 738 275 q 689 732 738 626 l 304 72 q 436 43 361 43 z "},"Ù":{"ha":889,"x_min":36,"x_max":854,"o":"m 544 999 l 272 1146 q 307 1188 285 1169 q 353 1207 329 1206 l 581 1035 q 544 999 565 1008 m 614 938 l 854 938 q 854 928 854 938 q 836 888 854 897 q 815 882 828 883 l 749 878 l 749 339 q 671 76 749 174 q 426 -21 593 -21 q 138 317 138 -21 l 138 875 l 36 883 q 68 938 31 938 l 326 938 q 326 928 326 938 q 308 888 326 897 q 288 882 300 883 l 218 878 l 217 329 q 436 42 217 42 q 619 113 554 42 q 683 328 683 183 l 683 875 l 582 883 q 614 938 576 938 z "},"Ú":{"ha":889,"x_min":36,"x_max":854,"o":"m 646 1160 l 374 1013 q 338 1049 353 1022 l 565 1221 q 611 1201 589 1219 q 646 1160 633 1183 m 614 938 l 854 938 q 854 928 854 938 q 836 888 854 897 q 815 882 828 883 l 749 878 l 749 339 q 671 76 749 174 q 426 -21 593 -21 q 138 317 138 -21 l 138 875 l 36 883 q 68 938 31 938 l 326 938 q 326 928 326 938 q 308 888 326 897 q 288 882 300 883 l 218 878 l 217 329 q 436 42 217 42 q 619 113 554 42 q 683 328 683 183 l 683 875 l 582 883 q 614 938 576 938 z "},"Û":{"ha":889,"x_min":36,"x_max":854,"o":"m 614 938 l 854 938 q 854 928 854 938 q 836 888 854 897 q 815 882 828 883 l 749 878 l 749 339 q 671 76 749 174 q 426 -21 593 -21 q 138 317 138 -21 l 138 875 l 36 883 q 68 938 31 938 l 326 938 q 326 928 326 938 q 308 888 326 897 q 288 882 300 883 l 218 878 l 217 329 q 436 42 217 42 q 619 113 554 42 q 683 328 683 183 l 683 875 l 582 883 q 614 938 576 938 m 447 1122 l 263 999 q 226 1035 242 1008 l 407 1200 q 488 1200 447 1211 l 668 1035 q 632 999 653 1008 l 447 1122 z "},"Ü":{"ha":889,"x_min":36,"x_max":854,"o":"m 622 1106 q 622 1093 622 1106 q 603 1060 622 1079 q 557 1042 585 1042 q 510 1061 529 1042 q 492 1107 492 1081 q 510 1153 492 1133 q 557 1172 529 1172 q 603 1153 585 1172 q 622 1106 622 1133 m 403 1106 q 403 1093 403 1106 q 384 1060 403 1079 q 338 1042 365 1042 q 292 1060 311 1042 q 272 1106 272 1079 q 292 1153 272 1133 q 338 1172 311 1172 q 384 1153 365 1172 q 403 1106 403 1133 m 614 938 l 854 938 l 854 928 q 836 888 854 897 q 815 882 828 883 l 749 878 l 749 339 q 671 76 749 174 q 426 -21 593 -21 q 138 317 138 -21 l 138 875 l 36 883 q 68 938 31 938 l 326 938 l 326 928 q 308 888 326 897 q 288 882 300 883 l 218 878 l 217 329 q 436 42 217 42 q 619 113 554 42 q 683 328 683 183 l 683 875 l 582 883 q 614 938 576 938 z "},"Ý":{"ha":806,"x_min":8,"x_max":799,"o":"m 593 940 l 799 940 q 799 931 799 940 q 760 885 799 889 l 732 881 l 731 881 l 450 378 l 450 63 l 553 54 q 521 0 558 0 l 258 0 l 258 11 q 276 50 258 42 q 297 56 285 54 l 367 60 l 367 378 l 83 878 l 8 886 q 40 940 3 940 l 281 940 l 281 931 q 263 890 281 900 q 242 885 254 886 l 175 881 l 422 440 l 657 878 l 561 886 q 593 940 556 940 m 614 1160 l 342 1013 q 306 1049 321 1022 l 533 1221 q 579 1201 557 1219 q 614 1160 601 1183 z "},"Þ":{"ha":839,"x_min":58,"x_max":729,"o":"m 247 758 l 381 758 q 643 685 557 758 q 729 499 729 613 q 347 203 729 203 q 247 206 314 203 l 247 63 l 350 54 q 318 0 356 0 l 58 0 q 58 11 58 0 q 76 50 58 42 q 97 56 85 54 l 167 60 l 167 878 l 65 886 q 97 940 60 940 l 357 940 q 357 931 357 940 q 339 890 357 900 q 318 885 331 886 l 249 881 l 247 881 l 247 758 m 318 701 l 247 701 l 247 264 q 336 261 308 261 q 563 315 490 261 q 636 483 636 368 q 560 650 636 599 q 318 701 485 701 z "},"ß":{"ha":817,"x_min":68,"x_max":785,"o":"m 68 10 q 107 50 68 50 l 172 53 l 172 632 q 198 802 172 731 q 268 911 224 874 q 476 979 354 982 q 626 941 564 978 q 688 819 688 904 q 611 672 688 736 q 549 622 581 646 q 472 510 472 565 q 497 452 472 479 q 546 411 521 425 q 613 377 571 397 q 677 344 654 357 q 729 308 700 332 q 785 189 785 265 q 722 46 785 113 q 554 -21 658 -21 q 426 14 481 -21 q 372 105 372 49 q 426 161 372 161 q 476 74 439 106 q 572 42 513 42 q 671 79 631 42 q 711 172 711 117 q 699 223 711 206 q 680 248 686 240 q 656 266 674 256 q 631 281 639 276 q 601 297 624 286 q 552 322 578 308 q 506 349 526 336 q 456 385 486 361 q 400 488 400 428 q 433 592 400 547 q 506 665 467 638 q 578 733 544 693 q 611 814 611 772 q 594 872 611 847 q 474 921 564 921 q 304 847 360 921 q 249 653 249 772 l 249 0 l 68 0 l 68 10 z "},"à":{"ha":690,"x_min":69,"x_max":663,"o":"m 586 -22 q 494 71 504 -22 q 401 6 458 33 q 262 -21 344 -21 q 124 28 179 -21 q 69 164 69 76 q 121 292 69 238 q 333 358 182 358 q 493 336 419 358 l 493 460 q 451 583 493 533 q 329 633 408 633 q 174 496 190 633 q 128 508 146 493 q 110 560 110 524 q 169 656 110 617 q 321 694 228 694 q 469 660 393 694 q 542 588 514 639 q 569 464 569 538 l 569 49 l 663 38 q 586 -22 663 -22 m 493 257 q 333 299 426 299 q 199 265 240 299 q 158 173 158 231 q 195 81 158 115 q 297 46 232 46 q 493 133 410 46 l 493 257 m 224 943 l 451 771 q 415 735 436 744 l 143 882 q 178 924 156 906 q 224 943 200 942 z "},"á":{"ha":690,"x_min":69,"x_max":663,"o":"m 586 -22 q 494 71 504 -22 q 401 6 458 33 q 262 -21 344 -21 q 124 28 179 -21 q 69 164 69 76 q 121 292 69 238 q 333 358 182 358 q 493 336 419 358 l 493 460 q 451 583 493 533 q 329 633 408 633 q 174 496 190 633 q 128 508 146 493 q 110 560 110 524 q 169 656 110 617 q 321 694 228 694 q 469 660 393 694 q 542 588 514 639 q 569 464 569 538 l 569 49 l 663 38 q 586 -22 663 -22 m 493 257 q 333 299 426 299 q 199 265 240 299 q 158 173 158 231 q 195 81 158 115 q 297 46 232 46 q 493 133 410 46 l 493 257 m 517 882 l 244 735 q 208 771 224 744 l 436 943 q 482 924 460 942 q 517 882 504 906 z "},"â":{"ha":690,"x_min":69,"x_max":663,"o":"m 586 -22 q 494 71 504 -22 q 401 6 458 33 q 262 -21 344 -21 q 124 28 179 -21 q 69 164 69 76 q 121 292 69 238 q 333 358 182 358 q 493 336 419 358 l 493 460 q 451 583 493 533 q 329 633 408 633 q 174 496 190 633 q 128 508 146 493 q 110 560 110 524 q 169 656 110 617 q 321 694 228 694 q 469 660 393 694 q 542 588 514 639 q 569 464 569 538 l 569 49 l 663 38 q 586 -22 663 -22 m 493 257 q 333 299 426 299 q 199 265 240 299 q 158 173 158 231 q 195 81 158 115 q 297 46 232 46 q 493 133 410 46 l 493 257 m 318 858 l 133 735 q 97 771 113 744 l 278 936 q 358 936 318 947 l 539 771 q 503 735 524 744 l 318 858 z "},"ã":{"ha":690,"x_min":69,"x_max":663,"o":"m 586 -22 q 494 71 504 -22 q 401 6 458 33 q 262 -21 344 -21 q 124 28 179 -21 q 69 164 69 76 q 121 292 69 238 q 333 358 182 358 q 493 336 419 358 l 493 460 q 451 583 493 533 q 329 633 408 633 q 174 496 190 633 q 128 508 146 493 q 110 560 110 524 q 169 656 110 617 q 321 694 228 694 q 469 660 393 694 q 542 588 514 639 q 569 464 569 538 l 569 49 l 663 38 q 586 -22 663 -22 m 493 257 q 333 299 426 299 q 199 265 240 299 q 158 173 158 231 q 195 81 158 115 q 297 46 232 46 q 493 133 410 46 l 493 257 m 508 908 l 550 893 q 494 803 533 838 q 403 772 456 768 q 295 814 350 775 q 210 855 240 853 q 158 838 179 857 q 126 793 138 819 l 86 811 q 147 901 106 871 q 233 928 189 931 q 330 885 278 925 q 418 843 382 846 q 508 908 486 839 z "},"ä":{"ha":690,"x_min":69,"x_max":663,"o":"m 586 -22 q 494 71 504 -22 q 401 6 458 33 q 262 -21 344 -21 q 124 28 179 -21 q 69 164 69 76 q 121 292 69 238 q 333 358 182 358 q 493 336 419 358 l 493 460 q 451 583 493 533 q 329 633 408 633 q 174 496 190 633 q 128 508 146 493 q 110 560 110 524 q 169 656 110 617 q 321 694 228 694 q 469 660 393 694 q 542 588 514 639 q 569 464 569 538 l 569 49 l 663 38 q 586 -22 663 -22 m 493 257 q 333 299 426 299 q 199 265 240 299 q 158 173 158 231 q 195 81 158 115 q 297 46 232 46 q 493 133 410 46 l 493 257 m 274 842 q 274 829 274 842 q 255 797 274 815 q 209 778 236 778 q 163 797 182 778 q 143 842 143 815 q 163 889 143 869 q 209 908 182 908 q 255 889 236 908 q 274 842 274 869 m 493 842 q 493 829 493 842 q 474 797 493 815 q 428 778 456 778 q 381 797 400 778 q 363 843 363 817 q 381 889 363 869 q 428 908 400 908 q 474 889 456 908 q 493 842 493 869 z "},"å":{"ha":690,"x_min":69,"x_max":663,"o":"m 586 -22 q 494 71 504 -22 q 401 6 458 33 q 262 -21 344 -21 q 124 28 179 -21 q 69 164 69 76 q 121 292 69 238 q 333 358 182 358 q 493 336 419 358 l 493 460 q 451 583 493 533 q 329 633 408 633 q 174 496 190 633 q 128 508 146 493 q 110 560 110 524 q 169 656 110 617 q 321 694 228 694 q 469 660 393 694 q 542 588 514 639 q 569 464 569 538 l 569 49 l 663 38 q 586 -22 663 -22 m 493 257 q 333 299 426 299 q 199 265 240 299 q 158 173 158 231 q 195 81 158 115 q 297 46 232 46 q 493 133 410 46 l 493 257 m 445 874 q 445 847 445 874 q 410 786 444 819 q 319 753 375 753 q 229 785 263 753 q 196 871 196 817 q 231 958 196 925 q 323 992 267 992 q 413 960 379 992 q 445 874 446 928 m 367 919 q 359 927 367 919 q 321 936 350 936 q 274 919 292 936 q 257 872 257 901 q 274 826 257 843 q 321 808 292 808 q 367 826 350 808 q 385 872 385 843 q 367 919 385 901 z "},"æ":{"ha":1065,"x_min":69,"x_max":1022,"o":"m 936 426 q 900 576 939 517 q 789 636 861 636 q 663 578 717 636 q 590 426 610 521 l 936 426 m 493 257 q 334 299 426 299 q 200 265 242 299 q 158 173 158 232 q 197 80 158 114 q 299 46 235 46 q 493 131 406 46 l 493 257 m 556 551 q 665 658 600 621 q 797 694 731 694 q 908 671 864 694 q 976 608 953 647 q 1022 436 1022 531 l 1022 372 l 582 372 q 579 318 579 339 q 632 124 579 201 q 793 47 685 47 q 993 121 901 47 q 1007 93 1007 111 q 932 18 1007 57 q 768 -21 857 -21 q 542 101 613 -21 q 435 16 503 53 q 274 -21 367 -21 q 125 28 181 -21 q 69 160 69 76 q 130 301 69 243 q 333 358 190 358 q 493 336 419 358 l 493 460 q 451 583 493 533 q 325 633 408 633 q 192 561 228 633 q 174 496 176 529 q 129 508 149 493 q 110 557 110 522 q 169 656 110 617 q 321 694 228 696 q 417 678 361 694 q 556 551 531 646 z "},"ç":{"ha":621,"x_min":56,"x_max":567,"o":"m 378 694 q 513 660 464 694 q 563 568 563 625 q 496 504 563 504 q 460 592 494 554 q 356 629 425 629 q 194 542 250 629 q 139 329 139 456 q 183 139 139 219 q 358 47 235 47 q 553 121 460 47 q 567 94 567 111 q 493 18 567 54 q 335 -21 419 -18 l 326 -57 q 410 -83 383 -57 q 438 -157 438 -110 q 402 -233 438 -204 q 306 -262 367 -262 q 210 -224 246 -262 q 226 -183 206 -197 q 297 -210 260 -210 q 365 -156 365 -210 q 263 -107 365 -107 l 286 -18 q 117 83 176 -6 q 56 304 58 172 q 138 584 53 474 q 378 694 224 694 z "},"è":{"ha":628,"x_min":56,"x_max":585,"o":"m 585 372 l 144 372 q 142 322 142 339 q 194 125 142 203 q 356 47 247 47 q 556 121 464 47 q 569 93 569 111 q 494 18 569 57 q 331 -21 419 -21 q 132 63 208 -21 q 56 319 56 147 q 147 593 56 492 q 367 694 239 694 q 471 671 426 694 q 539 608 515 647 q 585 436 585 531 l 585 372 m 499 426 q 463 576 501 517 q 351 636 424 636 q 226 578 279 636 q 153 426 172 521 l 499 426 m 263 943 l 490 771 q 454 735 475 744 l 182 882 q 217 924 194 906 q 263 943 239 942 z "},"é":{"ha":628,"x_min":56,"x_max":585,"o":"m 585 372 l 144 372 q 142 322 142 339 q 194 125 142 203 q 356 47 247 47 q 556 121 464 47 q 569 93 569 111 q 494 18 569 57 q 331 -21 419 -21 q 132 63 208 -21 q 56 319 56 147 q 147 593 56 492 q 367 694 239 694 q 471 671 426 694 q 539 608 515 647 q 585 436 585 531 l 585 372 m 499 426 q 463 576 501 517 q 351 636 424 636 q 226 578 279 636 q 153 426 172 521 l 499 426 m 556 882 l 283 735 q 247 771 263 744 l 475 943 q 521 924 499 942 q 556 882 543 906 z "},"ê":{"ha":628,"x_min":56,"x_max":585,"o":"m 585 372 l 144 372 q 142 322 142 339 q 194 125 142 203 q 356 47 247 47 q 556 121 464 47 q 569 93 569 111 q 494 18 569 57 q 331 -21 419 -21 q 132 63 208 -21 q 56 319 56 147 q 147 593 56 492 q 367 694 239 694 q 471 671 426 694 q 539 608 515 647 q 585 436 585 531 l 585 372 m 499 426 q 463 576 501 517 q 351 636 424 636 q 226 578 279 636 q 153 426 172 521 l 499 426 m 357 858 l 172 735 q 136 771 151 744 l 317 936 q 397 936 357 947 l 578 771 q 542 735 563 744 l 357 858 z "},"ë":{"ha":628,"x_min":56,"x_max":585,"o":"m 585 372 l 144 372 q 142 322 142 339 q 194 125 142 203 q 356 47 247 47 q 556 121 464 47 q 569 93 569 111 q 494 18 569 57 q 331 -21 419 -21 q 132 63 208 -21 q 56 319 56 147 q 147 593 56 492 q 367 694 239 694 q 471 671 426 694 q 539 608 515 647 q 585 436 585 531 l 585 372 m 499 426 q 463 576 501 517 q 351 636 424 636 q 226 578 279 636 q 153 426 172 521 l 499 426 m 313 842 q 313 829 313 842 q 294 797 313 815 q 248 778 275 778 q 201 797 221 778 q 182 842 182 815 q 201 889 182 869 q 248 908 221 908 q 294 889 275 908 q 313 842 313 869 m 532 842 q 532 829 532 842 q 513 797 532 815 q 467 778 494 778 q 420 797 439 778 q 401 843 401 817 q 420 889 401 869 q 467 908 439 908 q 513 889 494 908 q 532 842 532 869 z "},"ì":{"ha":393,"x_min":17,"x_max":357,"o":"m 325 0 l 72 0 l 72 10 q 90 44 72 38 q 174 54 100 49 l 174 615 l 96 622 q 68 674 68 625 l 250 694 l 250 57 l 357 49 q 325 0 361 0 m 97 943 l 325 771 q 289 735 310 744 l 17 882 q 51 924 29 906 q 97 943 74 942 z "},"í":{"ha":393,"x_min":68,"x_max":390,"o":"m 325 0 l 72 0 l 72 10 q 90 44 72 38 q 174 54 100 49 l 174 615 l 96 622 q 68 674 68 625 l 250 694 l 250 57 l 357 49 q 325 0 361 0 m 390 882 l 118 735 q 82 771 97 744 l 310 943 q 356 924 333 942 q 390 882 378 906 z "},"î":{"ha":393,"x_min":-29,"x_max":413,"o":"m 232 936 l 413 771 q 376 735 397 744 l 192 858 l 7 735 q -29 771 -14 744 l 151 936 q 232 936 192 947 m 325 0 l 72 0 l 72 10 q 90 44 72 38 q 174 54 100 49 l 174 615 l 96 622 q 68 674 68 625 l 250 694 l 250 57 l 357 49 q 325 0 361 0 z "},"ï":{"ha":393,"x_min":17,"x_max":367,"o":"m 325 0 l 72 0 l 72 10 q 90 44 72 38 q 174 54 100 49 l 174 615 l 96 622 q 68 674 68 625 l 250 694 l 250 57 l 357 49 q 325 0 361 0 m 83 908 q 96 908 83 908 q 128 889 110 908 q 147 842 147 869 q 128 797 147 815 q 83 778 110 778 q 36 797 56 778 q 17 842 17 815 q 36 889 17 869 q 83 908 56 908 m 367 842 q 367 829 367 842 q 348 797 367 815 q 301 778 329 778 q 255 797 274 778 q 236 843 236 817 q 255 889 236 869 q 301 908 274 908 q 348 889 329 908 q 367 842 367 869 z "},"ð":{"ha":697,"x_min":56,"x_max":642,"o":"m 642 394 q 554 92 642 204 q 318 -21 467 -21 q 124 62 190 -21 q 56 285 58 144 q 140 563 51 460 q 376 667 228 667 q 506 636 451 667 q 374 803 458 735 l 247 722 l 213 776 l 315 842 q 154 904 229 894 l 189 964 q 385 886 290 944 l 503 961 l 538 907 l 440 846 q 642 394 642 682 m 139 311 q 139 249 139 311 q 186 119 139 188 q 335 51 233 51 q 497 142 436 51 q 558 386 558 233 q 539 546 558 472 q 364 601 479 601 q 194 518 249 601 q 139 311 139 435 z "},"ñ":{"ha":839,"x_min":68,"x_max":803,"o":"m 239 793 l 199 811 q 260 901 218 871 q 346 928 301 931 q 442 885 390 925 q 531 843 494 846 q 621 908 599 839 l 663 893 q 607 803 646 838 q 515 772 568 768 q 408 814 463 775 q 322 855 353 853 q 271 838 292 857 q 239 793 250 819 m 771 0 l 525 0 l 525 10 q 543 44 525 38 q 629 54 553 50 l 629 418 q 468 625 629 625 q 360 601 410 625 q 250 525 311 578 l 250 57 l 349 49 q 317 0 353 0 l 69 0 l 69 10 q 88 44 69 38 q 174 54 97 50 l 174 615 l 96 624 q 68 672 68 626 l 228 694 l 247 583 l 251 583 q 489 694 368 694 q 642 631 578 694 q 706 433 706 568 l 706 57 l 803 49 q 771 0 808 0 z "},"ò":{"ha":693,"x_min":56,"x_max":638,"o":"m 447 735 l 175 882 q 210 924 188 906 q 256 943 232 942 l 483 771 q 447 735 468 744 m 356 694 q 535 636 451 694 q 608 533 581 603 q 638 363 636 463 q 559 85 640 192 q 340 -21 478 -21 q 131 67 203 -21 q 56 320 58 154 q 137 590 54 486 q 356 694 219 694 m 194 547 q 166 505 194 547 q 139 335 139 463 q 191 124 139 207 q 344 42 243 40 q 499 125 444 43 q 554 333 554 207 q 503 547 554 460 q 350 632 451 633 q 194 547 249 631 z "},"ó":{"ha":693,"x_min":56,"x_max":638,"o":"m 194 547 q 166 505 194 547 q 139 335 139 463 q 191 124 139 207 q 344 42 243 40 q 499 125 444 43 q 554 333 554 207 q 503 547 554 460 q 350 632 451 633 q 194 547 249 631 m 356 694 q 535 636 451 694 q 608 533 581 603 q 638 363 636 463 q 559 85 640 192 q 340 -21 478 -21 q 131 67 203 -21 q 56 320 58 154 q 137 590 54 486 q 356 694 219 694 m 549 882 l 276 735 q 240 771 256 744 l 468 943 q 514 924 492 942 q 549 882 536 906 z "},"ô":{"ha":693,"x_min":56,"x_max":638,"o":"m 638 363 q 559 85 640 192 q 340 -21 478 -21 q 131 67 203 -21 q 56 320 58 154 q 137 590 54 486 q 356 694 219 694 q 535 636 451 694 q 608 533 581 603 q 638 363 636 463 m 344 42 q 394 42 344 42 q 499 125 444 43 q 554 333 554 207 q 503 547 554 460 q 350 632 451 633 q 194 547 249 631 q 139 335 139 463 q 191 124 139 207 q 344 42 243 40 m 350 858 l 165 735 q 129 771 144 744 l 310 936 q 390 936 350 947 l 571 771 q 535 735 556 744 l 350 858 z "},"õ":{"ha":693,"x_min":56,"x_max":638,"o":"m 158 793 l 118 811 q 179 901 138 871 q 265 928 221 931 q 362 885 310 925 q 450 843 414 846 q 540 908 518 839 l 582 893 q 526 803 565 838 q 435 772 488 768 q 327 814 382 775 q 242 855 272 853 q 190 838 211 857 q 158 793 169 819 m 194 547 q 166 505 194 547 q 139 335 139 463 q 191 124 139 207 q 344 42 243 40 q 499 125 444 43 q 554 333 554 207 q 503 547 554 460 q 350 632 451 633 q 194 547 249 631 m 356 694 q 535 636 451 694 q 608 533 581 603 q 638 363 636 463 q 559 85 640 192 q 340 -21 478 -21 q 131 67 203 -21 q 56 320 58 154 q 137 590 54 486 q 356 694 219 694 z "},"ö":{"ha":693,"x_min":56,"x_max":638,"o":"m 194 547 q 166 505 194 547 q 139 335 139 463 q 191 124 139 207 q 344 42 243 40 q 499 125 444 43 q 554 333 554 207 q 503 547 554 460 q 350 632 451 633 q 194 547 249 631 m 356 694 q 535 636 451 694 q 608 533 581 603 q 638 363 636 463 q 559 85 640 192 q 340 -21 478 -21 q 131 67 203 -21 q 56 320 58 154 q 137 590 54 486 q 356 694 219 694 m 525 842 q 525 829 525 842 q 506 797 525 815 q 460 778 488 778 q 413 797 432 778 q 394 843 394 817 q 413 889 394 869 q 460 908 432 908 q 506 889 488 908 q 525 842 525 869 m 306 842 q 306 829 306 842 q 287 797 306 815 q 241 778 268 778 q 194 797 214 778 q 175 842 175 815 q 194 889 175 869 q 241 908 214 908 q 287 889 268 908 q 306 842 306 869 z "},"÷":{"ha":653,"x_min":69,"x_max":583,"o":"m 367 555 q 358 545 367 555 q 321 536 349 536 q 275 555 293 536 q 257 601 257 574 q 275 648 257 629 q 321 667 293 667 q 367 648 349 667 q 385 601 385 629 q 367 555 385 574 m 367 160 q 358 151 367 160 q 321 142 349 142 q 275 160 293 142 q 257 207 257 179 q 275 253 257 235 q 321 272 293 272 q 367 253 349 272 q 385 207 385 235 q 367 160 385 179 m 69 439 l 583 439 l 583 369 l 69 369 l 69 439 z "},"ø":{"ha":707,"x_min":56,"x_max":639,"o":"m 335 -21 q 203 8 258 -21 l 186 -21 l 124 14 l 144 50 q 56 313 58 139 q 137 590 54 486 q 356 694 219 694 q 500 660 436 694 l 521 694 l 585 663 l 557 614 q 638 361 636 531 q 559 85 640 192 q 335 -21 478 -21 m 347 632 q 194 547 249 631 q 139 335 139 463 q 189 126 139 208 l 461 593 q 347 632 415 632 m 346 42 q 499 125 444 43 q 554 331 554 207 q 510 535 554 454 l 240 72 q 346 42 286 42 z "},"ù":{"ha":783,"x_min":25,"x_max":754,"o":"m 490 735 l 218 882 q 253 924 231 906 q 299 943 275 942 l 526 771 q 490 735 511 744 m 364 -21 q 201 46 271 -21 q 131 258 131 113 l 131 617 l 25 625 q 57 674 19 674 l 207 674 l 207 271 q 252 108 207 164 q 387 51 297 51 q 572 135 476 51 l 572 617 l 465 625 q 497 674 461 674 l 649 674 l 649 75 l 726 67 q 754 14 754 64 l 594 1 l 579 74 q 364 -21 488 -21 z "},"ú":{"ha":783,"x_min":25,"x_max":754,"o":"m 364 -21 q 201 46 271 -21 q 131 258 131 113 l 131 617 l 25 625 q 57 674 19 674 l 207 674 l 207 271 q 252 108 207 164 q 387 51 297 51 q 572 135 476 51 l 572 617 l 465 625 q 497 674 461 674 l 649 674 l 649 75 l 726 67 q 754 14 754 64 l 594 1 l 579 74 q 364 -21 488 -21 m 592 882 l 319 735 q 283 771 299 744 l 511 943 q 557 924 535 942 q 592 882 579 906 z "},"û":{"ha":783,"x_min":25,"x_max":754,"o":"m 364 -21 q 201 46 271 -21 q 131 258 131 113 l 131 617 l 25 625 q 57 674 19 674 l 207 674 l 207 271 q 252 108 207 164 q 387 51 297 51 q 572 135 476 51 l 572 617 l 465 625 q 497 674 461 674 l 649 674 l 649 75 l 726 67 q 754 14 754 64 l 594 1 l 579 74 q 364 -21 488 -21 m 393 858 l 208 735 q 172 771 188 744 l 353 936 q 433 936 393 947 l 614 771 q 578 735 599 744 l 393 858 z "},"ü":{"ha":783,"x_min":25,"x_max":754,"o":"m 364 -21 q 201 46 271 -21 q 131 258 131 113 l 131 617 l 25 625 q 57 674 19 674 l 207 674 l 207 271 q 252 108 207 164 q 387 51 297 51 q 572 135 476 51 l 572 617 l 465 625 q 497 674 461 674 l 649 674 l 649 75 l 726 67 q 754 14 754 64 l 594 1 l 579 74 q 364 -21 488 -21 m 568 842 q 568 829 568 842 q 549 797 568 815 q 503 778 531 778 q 456 797 475 778 q 438 843 438 817 q 456 889 438 869 q 503 908 475 908 q 549 889 531 908 q 568 842 568 869 m 349 842 q 349 829 349 842 q 330 797 349 815 q 284 778 311 778 q 238 797 257 778 q 218 842 218 815 q 238 889 218 869 q 284 908 257 908 q 330 889 311 908 q 349 842 349 869 z "},"ý":{"ha":672,"x_min":8,"x_max":667,"o":"m 488 674 l 667 674 q 667 664 665 669 q 666 651 668 658 q 661 639 664 644 q 611 622 654 626 l 367 17 q 242 -232 293 -165 q 142 -299 192 -299 q 71 -278 93 -299 q 49 -232 49 -258 q 63 -190 49 -206 q 93 -174 76 -174 q 117 -176 110 -174 q 150 -226 106 -226 q 314 26 210 -226 l 75 617 l 8 625 q 40 674 3 674 l 260 674 l 260 664 q 242 628 260 636 q 161 619 232 625 l 349 124 l 539 617 l 456 625 q 488 674 450 674 m 536 882 l 264 735 q 228 771 243 744 l 456 943 q 501 924 479 942 q 536 882 524 906 z "},"þ":{"ha":747,"x_min":15,"x_max":692,"o":"m 197 585 q 423 694 310 694 q 612 608 536 694 q 692 353 688 522 q 608 82 696 185 q 365 -21 521 -21 q 197 18 285 -21 l 197 -239 l 304 -247 q 272 -296 308 -296 l 19 -296 l 19 -286 q 38 -250 19 -258 q 121 -242 47 -247 l 121 888 l 43 896 q 15 943 15 899 l 197 964 l 197 585 m 390 44 q 554 128 500 44 q 608 335 608 211 q 556 541 608 460 q 396 622 504 622 q 299 601 340 622 q 197 529 258 579 l 197 115 q 275 67 224 90 q 390 44 326 44 z "},"ÿ":{"ha":672,"x_min":8,"x_max":667,"o":"m 488 674 l 667 674 q 667 664 665 669 q 666 651 668 658 q 661 639 664 644 q 611 622 654 626 l 367 17 q 242 -232 293 -165 q 142 -299 192 -299 q 71 -278 93 -299 q 49 -232 49 -258 q 63 -190 49 -206 q 93 -174 76 -174 q 117 -176 110 -174 q 150 -226 106 -226 q 314 26 210 -226 l 75 617 l 8 625 q 40 674 3 674 l 260 674 l 260 664 q 242 628 260 636 q 161 619 232 625 l 349 124 l 539 617 l 456 625 q 488 674 450 674 m 293 842 q 293 829 293 842 q 274 797 293 815 q 228 778 256 778 q 182 797 201 778 q 163 842 163 815 q 182 889 163 869 q 228 908 201 908 q 274 889 256 908 q 293 842 293 869 m 513 842 q 513 829 513 842 q 494 797 513 815 q 447 778 475 778 q 401 797 419 778 q 382 843 382 817 q 401 889 382 869 q 447 908 419 908 q 494 889 475 908 q 513 842 513 869 z "},"Ā":{"ha":829,"x_min":14,"x_max":814,"o":"m 782 0 l 531 0 l 531 11 q 549 50 531 42 q 569 56 557 54 l 639 60 l 560 328 l 254 328 l 176 63 l 279 54 q 247 0 285 0 l 14 0 l 14 11 q 32 50 14 42 q 108 60 42 54 l 378 939 q 456 939 417 944 l 724 63 l 725 63 l 814 54 q 782 0 819 0 m 274 390 l 542 390 l 407 846 l 274 390 m 592 1140 l 592 1067 l 238 1067 l 238 1140 l 592 1140 z "},"ā":{"ha":690,"x_min":69,"x_max":663,"o":"m 586 -22 q 494 71 504 -22 q 401 6 458 33 q 262 -21 344 -21 q 124 28 179 -21 q 69 164 69 76 q 121 292 69 238 q 333 358 182 358 q 493 336 419 358 l 493 460 q 451 583 493 533 q 329 633 408 633 q 174 496 190 633 q 128 508 146 493 q 110 560 110 524 q 169 656 110 617 q 321 694 228 694 q 469 660 393 694 q 542 588 514 639 q 569 464 569 538 l 569 49 l 663 38 q 586 -22 663 -22 m 493 257 q 333 299 426 299 q 199 265 240 299 q 158 173 158 231 q 195 81 158 115 q 297 46 232 46 q 493 133 410 46 l 493 257 m 494 876 l 494 803 l 140 803 l 140 876 l 494 876 z "},"Ă":{"ha":829,"x_min":14,"x_max":814,"o":"m 782 0 l 531 0 l 531 11 q 549 50 531 42 q 569 56 557 54 l 639 60 l 560 328 l 254 328 l 176 63 l 279 54 q 247 0 285 0 l 14 0 l 14 11 q 32 50 14 42 q 108 60 42 54 l 378 939 q 456 939 417 944 l 724 63 l 725 63 l 814 54 q 782 0 819 0 m 274 390 l 542 390 l 407 846 l 274 390 m 626 1190 q 562 1072 617 1125 q 415 1019 507 1019 q 268 1072 322 1019 q 204 1190 214 1125 l 250 1211 q 307 1136 265 1171 q 417 1101 349 1101 q 581 1208 540 1101 l 626 1190 z "},"ă":{"ha":690,"x_min":69,"x_max":663,"o":"m 586 -22 q 494 71 504 -22 q 401 6 458 33 q 262 -21 344 -21 q 124 28 179 -21 q 69 164 69 76 q 121 292 69 238 q 333 358 182 358 q 493 336 419 358 l 493 460 q 451 583 493 533 q 329 633 408 633 q 174 496 190 633 q 128 508 146 493 q 110 560 110 524 q 169 656 110 617 q 321 694 228 694 q 469 660 393 694 q 542 588 514 639 q 569 464 569 538 l 569 49 l 663 38 q 586 -22 663 -22 m 493 257 q 333 299 426 299 q 199 265 240 299 q 158 173 158 231 q 195 81 158 115 q 297 46 232 46 q 493 133 410 46 l 493 257 m 529 906 q 465 788 519 840 q 317 735 410 735 q 171 788 225 735 q 107 906 117 840 l 153 926 q 210 851 168 886 q 319 817 251 817 q 483 924 443 817 l 529 906 z "},"Ą":{"ha":829,"x_min":14,"x_max":832,"o":"m 782 0 l 761 0 q 668 -105 668 -39 q 742 -171 668 -171 q 822 -139 779 -171 q 831 -157 828 -143 q 832 -179 835 -171 q 715 -228 797 -228 q 628 -200 664 -228 q 593 -121 593 -172 q 665 0 593 -50 l 531 0 l 531 11 q 549 50 531 42 q 569 56 557 54 l 639 60 l 560 328 l 254 328 l 176 63 l 279 54 q 247 0 285 0 l 14 0 l 14 11 q 32 50 14 42 q 108 60 42 54 l 378 939 q 456 939 417 944 l 724 63 l 725 63 l 814 54 q 782 0 819 0 m 274 390 l 542 390 l 407 846 l 274 390 z "},"ą":{"ha":690,"x_min":69,"x_max":679,"o":"m 515 -119 q 589 -185 515 -185 q 669 -153 626 -185 q 678 -171 675 -157 q 679 -193 682 -185 q 563 -242 644 -242 q 476 -214 511 -242 q 440 -135 440 -186 q 528 -4 440 -56 q 494 71 501 18 q 401 6 458 33 q 262 -21 344 -21 q 124 28 179 -21 q 69 164 69 76 q 121 292 69 238 q 333 358 182 358 q 493 336 419 358 l 493 460 q 451 583 493 533 q 329 633 408 633 q 174 496 190 633 q 128 508 146 493 q 110 560 110 524 q 169 656 110 617 q 321 694 228 694 q 469 660 393 694 q 542 588 514 639 q 569 464 569 538 l 569 49 l 663 38 q 590 -22 663 -19 q 515 -119 515 -58 m 493 257 q 333 299 426 299 q 199 265 240 299 q 158 173 158 231 q 195 81 158 115 q 297 46 232 46 q 493 133 410 46 l 493 257 z "},"Ć":{"ha":760,"x_min":54,"x_max":724,"o":"m 649 1160 l 376 1013 q 340 1049 356 1022 l 568 1221 q 614 1201 592 1219 q 649 1160 636 1183 m 453 958 q 639 908 564 958 q 714 785 714 858 q 640 711 714 713 q 587 847 640 799 q 443 894 533 894 q 220 776 297 894 q 143 467 143 658 q 218 165 143 275 q 451 54 293 54 q 707 139 608 54 q 724 111 724 131 q 643 26 724 72 q 443 -21 563 -21 q 160 101 260 -21 q 55 442 61 222 q 157 810 49 661 q 453 958 265 958 z "},"ć":{"ha":621,"x_min":56,"x_max":567,"o":"m 378 694 q 513 660 464 694 q 563 568 563 625 q 496 504 563 504 q 460 592 494 554 q 356 629 425 629 q 194 542 250 629 q 139 329 139 456 q 183 139 139 219 q 358 47 235 47 q 553 121 460 47 q 567 94 567 111 q 488 16 567 53 q 324 -21 410 -21 q 127 69 196 -21 q 56 317 58 160 q 138 584 53 474 q 378 694 224 694 m 558 882 l 286 735 q 250 771 265 744 l 478 943 q 524 924 501 942 q 558 882 546 906 z "},"Ĉ":{"ha":760,"x_min":54,"x_max":724,"o":"m 724 111 q 643 26 724 72 q 443 -21 563 -21 q 160 101 260 -21 q 55 442 61 222 q 157 810 49 661 q 453 958 265 958 q 639 908 564 958 q 714 785 714 858 q 640 711 714 713 q 587 847 640 799 q 443 894 533 894 q 220 776 297 894 q 143 467 143 658 q 218 165 143 275 q 451 54 293 54 q 707 139 608 54 q 724 111 724 131 m 450 1122 l 265 999 q 229 1035 244 1008 l 410 1200 q 490 1200 450 1211 l 671 1035 q 635 999 656 1008 l 450 1122 z "},"ĉ":{"ha":621,"x_min":56,"x_max":581,"o":"m 567 94 q 488 16 567 53 q 324 -21 410 -21 q 127 69 196 -21 q 56 317 58 160 q 138 584 53 474 q 378 694 224 694 q 513 660 464 694 q 563 568 563 625 q 496 504 563 504 q 460 592 494 554 q 356 629 425 629 q 194 542 250 629 q 139 329 139 456 q 183 139 139 219 q 358 47 235 47 q 553 121 460 47 q 567 94 567 111 m 360 858 l 175 735 q 139 771 154 744 l 319 936 q 400 936 360 947 l 581 771 q 544 735 565 744 l 360 858 z "},"Ċ":{"ha":760,"x_min":54,"x_max":724,"o":"m 453 958 q 639 908 564 958 q 714 785 714 858 q 640 711 714 713 q 587 847 640 799 q 443 894 533 894 q 220 776 297 894 q 143 467 143 658 q 218 165 143 275 q 451 54 293 54 q 707 139 608 54 q 724 111 724 131 q 643 26 724 72 q 443 -21 563 -21 q 160 101 260 -21 q 55 442 61 222 q 157 810 49 661 q 453 958 265 958 m 491 1123 q 483 1115 491 1123 q 447 1107 475 1107 q 403 1123 419 1107 q 388 1167 388 1139 q 403 1210 388 1194 q 447 1226 419 1226 q 491 1210 475 1226 q 507 1167 507 1194 q 491 1123 507 1139 z "},"ċ":{"ha":621,"x_min":56,"x_max":567,"o":"m 400 795 q 392 787 400 795 q 357 779 383 779 q 314 795 331 779 q 297 839 297 811 q 314 883 297 867 q 357 899 331 899 q 400 883 383 899 q 417 839 417 867 q 400 795 417 811 m 378 694 q 513 660 464 694 q 563 568 563 625 q 496 504 563 504 q 460 592 494 554 q 356 629 425 629 q 194 542 250 629 q 139 329 139 456 q 183 139 139 219 q 358 47 235 47 q 553 121 460 47 q 567 94 567 111 q 488 16 567 53 q 324 -21 410 -21 q 127 69 196 -21 q 56 317 58 160 q 138 584 53 474 q 378 694 224 694 z "},"Č":{"ha":760,"x_min":54,"x_max":724,"o":"m 724 111 q 643 26 724 72 q 443 -21 563 -21 q 160 101 260 -21 q 55 442 61 222 q 157 810 49 661 q 453 958 265 958 q 639 908 564 958 q 714 785 714 858 q 640 711 714 713 q 587 847 640 799 q 443 894 533 894 q 220 776 297 894 q 143 467 143 658 q 218 165 143 275 q 451 54 293 54 q 707 139 608 54 q 724 111 724 131 m 671 1185 l 490 1019 q 410 1019 450 1008 l 229 1185 q 265 1221 244 1211 l 450 1097 l 635 1221 q 671 1185 656 1211 z "},"č":{"ha":621,"x_min":56,"x_max":581,"o":"m 567 94 q 488 16 567 53 q 324 -21 410 -21 q 127 69 196 -21 q 56 317 58 160 q 138 584 53 474 q 378 694 224 694 q 513 660 464 694 q 563 568 563 625 q 496 504 563 504 q 460 592 494 554 q 356 629 425 629 q 194 542 250 629 q 139 329 139 456 q 183 139 139 219 q 358 47 235 47 q 553 121 460 47 q 567 94 567 111 m 581 921 l 400 756 q 319 756 360 744 l 139 921 q 175 957 154 947 l 360 833 l 544 957 q 581 921 565 947 z "},"Ď":{"ha":906,"x_min":58,"x_max":850,"o":"m 97 940 l 379 940 q 740 827 629 940 q 850 478 850 714 q 731 122 850 243 q 379 0 613 0 l 58 0 l 58 11 q 76 50 58 42 q 97 56 85 54 l 167 60 l 167 878 l 65 886 q 97 940 60 940 m 247 58 l 350 58 q 656 160 549 58 q 764 478 764 261 q 652 793 764 694 q 318 883 540 892 l 247 881 l 247 58 m 600 1188 l 419 1022 q 339 1022 379 1011 l 158 1188 q 194 1224 174 1214 l 379 1100 l 564 1224 q 600 1188 585 1214 z "},"ď":{"ha":803,"x_min":56,"x_max":789,"o":"m 697 993 q 748 1007 717 1007 q 789 990 779 1007 q 718 742 796 832 q 697 746 711 738 q 682 761 682 754 q 706 880 701 810 q 697 993 711 950 m 640 -21 q 551 89 558 -21 q 330 -21 447 -21 q 136 66 213 -21 q 56 321 60 153 q 140 592 51 489 q 383 694 228 694 q 551 656 464 694 l 551 878 l 474 886 q 446 939 446 889 l 628 964 l 628 50 l 715 39 q 640 -21 713 -21 m 358 629 q 194 546 249 629 q 139 339 139 463 q 192 133 139 215 q 353 51 244 51 q 449 73 408 51 q 551 144 490 94 l 551 557 q 474 606 525 582 q 358 629 422 629 z "},"Đ":{"ha":951,"x_min":58,"x_max":850,"o":"m 97 940 l 379 940 q 740 827 629 940 q 850 478 850 714 q 731 122 850 243 q 379 0 613 0 l 58 0 l 58 11 q 76 50 58 42 q 97 56 85 54 l 167 60 l 167 438 l 96 438 l 96 500 l 167 500 l 167 878 l 65 886 q 97 940 60 940 m 247 58 l 350 58 q 656 160 549 58 q 764 478 764 261 q 652 793 764 694 q 318 883 540 892 l 247 881 l 247 500 l 510 500 l 510 438 l 247 438 l 247 58 z "},"đ":{"ha":763,"x_min":56,"x_max":735,"o":"m 735 742 l 628 742 l 628 50 l 715 39 q 640 -21 713 -21 q 551 89 558 -21 q 330 -21 447 -21 q 136 66 213 -21 q 56 321 60 153 q 140 592 51 489 q 383 694 228 694 q 551 656 464 694 l 551 742 l 446 742 l 446 806 l 551 806 l 551 878 l 474 886 q 446 939 446 889 l 628 964 l 628 806 l 735 806 l 735 742 m 358 629 q 194 546 249 629 q 139 339 139 463 q 192 133 139 215 q 353 51 244 51 q 449 73 408 51 q 551 144 490 94 l 551 557 q 474 606 525 582 q 358 629 422 629 z "},"Ē":{"ha":760,"x_min":58,"x_max":696,"o":"m 240 1140 l 594 1140 l 594 1067 l 240 1067 l 240 1140 m 696 179 l 696 0 l 58 0 l 58 11 q 76 50 58 42 q 97 56 85 54 l 167 60 l 167 875 l 65 885 q 99 938 60 938 l 679 938 l 679 744 q 625 713 679 707 l 611 868 l 247 875 l 247 497 l 519 513 q 519 422 528 471 l 247 438 l 247 63 l 628 71 l 642 211 q 674 211 653 217 q 696 179 696 206 z "},"ē":{"ha":628,"x_min":56,"x_max":585,"o":"m 585 372 l 144 372 q 142 322 142 339 q 194 125 142 203 q 356 47 247 47 q 556 121 464 47 q 569 93 569 111 q 494 18 569 57 q 331 -21 419 -21 q 132 63 208 -21 q 56 319 56 147 q 147 593 56 492 q 367 694 239 694 q 471 671 426 694 q 539 608 515 647 q 585 436 585 531 l 585 372 m 499 426 q 463 576 501 517 q 351 636 424 636 q 226 578 279 636 q 153 426 172 521 l 499 426 m 533 876 l 533 803 l 179 803 l 179 876 l 533 876 z "},"Ĕ":{"ha":760,"x_min":58,"x_max":696,"o":"m 696 179 l 696 0 l 58 0 l 58 11 q 76 50 58 42 q 97 56 85 54 l 167 60 l 167 875 l 65 885 q 99 938 60 938 l 679 938 l 679 744 q 625 713 679 707 l 611 868 l 247 875 l 247 497 l 519 513 q 519 422 528 471 l 247 438 l 247 63 l 628 71 l 642 211 q 674 211 653 217 q 696 179 696 206 m 419 1101 q 583 1208 543 1101 l 629 1190 q 565 1072 619 1125 q 417 1019 510 1019 q 271 1072 325 1019 q 207 1190 217 1125 l 253 1211 q 310 1136 268 1171 q 419 1101 351 1101 z "},"ĕ":{"ha":628,"x_min":56,"x_max":585,"o":"m 585 372 l 144 372 q 142 322 142 339 q 194 125 142 203 q 356 47 247 47 q 556 121 464 47 q 569 93 569 111 q 494 18 569 57 q 331 -21 419 -21 q 132 63 208 -21 q 56 319 56 147 q 147 593 56 492 q 367 694 239 694 q 471 671 426 694 q 539 608 515 647 q 585 436 585 531 l 585 372 m 499 426 q 463 576 501 517 q 351 636 424 636 q 226 578 279 636 q 153 426 172 521 l 499 426 m 568 906 q 503 788 558 840 q 356 735 449 735 q 210 788 264 735 q 146 906 156 840 l 192 926 q 249 851 207 886 q 358 817 290 817 q 522 924 482 817 l 568 906 z "},"Ė":{"ha":760,"x_min":58,"x_max":696,"o":"m 458 1123 q 450 1115 458 1123 q 415 1107 442 1107 q 372 1123 389 1107 q 356 1167 356 1139 q 372 1210 356 1194 q 415 1226 389 1226 q 458 1210 442 1226 q 475 1167 475 1194 q 458 1123 475 1139 m 696 179 l 696 0 l 58 0 l 58 11 q 76 50 58 42 q 97 56 85 54 l 167 60 l 167 875 l 65 885 q 99 938 60 938 l 679 938 l 679 744 q 625 713 679 707 l 611 868 l 247 875 l 247 497 l 519 513 q 519 422 528 471 l 247 438 l 247 63 l 628 71 l 642 211 q 674 211 653 217 q 696 179 696 206 z "},"ė":{"ha":628,"x_min":56,"x_max":585,"o":"m 585 372 l 144 372 q 142 322 142 339 q 194 125 142 203 q 356 47 247 47 q 556 121 464 47 q 569 93 569 111 q 494 18 569 57 q 331 -21 419 -21 q 132 63 208 -21 q 56 319 56 147 q 147 593 56 492 q 367 694 239 694 q 471 671 426 694 q 539 608 515 647 q 585 436 585 531 l 585 372 m 499 426 q 463 576 501 517 q 351 636 424 636 q 226 578 279 636 q 153 426 172 521 l 499 426 m 397 859 q 389 851 397 859 q 354 843 381 843 q 311 859 328 843 q 294 903 294 875 q 311 947 294 931 q 354 963 328 963 q 397 947 381 963 q 414 903 414 931 q 397 859 414 875 z "},"Ę":{"ha":760,"x_min":58,"x_max":842,"o":"m 678 -92 q 751 -157 678 -157 q 832 -125 789 -157 q 841 -143 838 -129 q 842 -165 844 -157 q 794 -200 826 -186 q 718 -214 763 -214 q 638 -186 674 -214 q 603 -103 603 -158 q 657 0 603 -47 l 58 0 l 58 11 q 76 50 58 42 q 97 56 85 54 l 167 60 l 167 875 l 65 885 q 99 938 60 938 l 679 938 l 679 744 q 625 713 679 707 l 611 868 l 247 875 l 247 497 l 519 513 q 519 422 528 471 l 247 438 l 247 63 l 628 71 l 642 211 q 674 211 653 217 q 696 179 696 206 l 696 26 q 763 54 722 43 l 789 21 q 678 -92 678 -18 z "},"ę":{"ha":628,"x_min":56,"x_max":593,"o":"m 429 -71 q 503 -136 429 -136 q 583 -104 540 -136 q 592 -122 589 -108 q 593 -144 596 -136 q 476 -193 558 -193 q 390 -165 425 -193 q 354 -93 354 -137 q 374 -18 354 -49 q 331 -21 346 -21 q 132 63 208 -21 q 56 319 56 147 q 147 593 56 492 q 367 694 239 694 q 471 671 426 694 q 539 608 515 647 q 585 436 585 531 l 585 372 l 144 372 q 142 322 142 339 q 194 125 142 203 q 356 47 247 47 q 556 121 464 47 q 569 90 569 111 q 538 44 569 69 l 540 42 l 472 8 q 429 -71 429 -26 m 499 426 q 463 576 501 517 q 351 636 424 636 q 226 578 279 636 q 153 426 172 521 l 499 426 z "},"Ě":{"ha":760,"x_min":58,"x_max":696,"o":"m 696 179 l 696 0 l 58 0 l 58 11 q 76 50 58 42 q 97 56 85 54 l 167 60 l 167 875 l 65 885 q 99 938 60 938 l 679 938 l 679 744 q 625 713 679 707 l 611 868 l 247 875 l 247 497 l 519 513 q 519 422 528 471 l 247 438 l 247 63 l 628 71 l 642 211 q 674 211 653 217 q 696 179 696 206 m 639 1185 l 458 1019 q 378 1019 418 1008 l 197 1185 q 233 1221 213 1211 l 418 1097 l 603 1221 q 639 1185 624 1211 z "},"ě":{"ha":628,"x_min":56,"x_max":585,"o":"m 585 372 l 144 372 q 142 322 142 339 q 194 125 142 203 q 356 47 247 47 q 556 121 464 47 q 569 93 569 111 q 494 18 569 57 q 331 -21 419 -21 q 132 63 208 -21 q 56 319 56 147 q 147 593 56 492 q 367 694 239 694 q 471 671 426 694 q 539 608 515 647 q 585 436 585 531 l 585 372 m 499 426 q 463 576 501 517 q 351 636 424 636 q 226 578 279 636 q 153 426 172 521 l 499 426 m 578 921 l 397 756 q 317 756 357 744 l 136 921 q 172 957 151 947 l 357 833 l 542 957 q 578 921 563 947 z "},"Ĝ":{"ha":850,"x_min":56,"x_max":828,"o":"m 558 421 l 828 421 q 828 411 828 421 q 789 365 828 369 l 756 361 l 756 90 q 616 10 706 40 q 436 -21 526 -21 q 162 98 261 -21 q 56 442 63 217 q 161 815 49 668 q 481 961 274 961 q 683 908 617 961 q 750 783 750 856 q 676 711 750 711 q 619 852 676 807 q 461 897 561 897 q 224 777 306 897 q 142 465 142 657 q 216 159 142 274 q 451 44 290 44 q 674 111 589 44 l 674 358 l 528 367 q 558 421 522 421 m 438 1122 l 253 999 q 217 1035 232 1008 l 397 1200 q 478 1200 438 1211 l 658 1035 q 622 999 643 1008 l 438 1122 z "},"ĝ":{"ha":636,"x_min":25,"x_max":621,"o":"m 288 215 q 226 221 263 215 q 183 152 179 171 q 299 131 188 133 q 548 91 476 128 q 619 -55 619 54 q 533 -237 619 -164 q 308 -311 446 -311 q 97 -259 169 -311 q 25 -125 25 -207 q 144 71 25 -11 q 104 129 104 86 q 174 239 104 172 q 60 410 69 290 q 118 612 50 529 q 304 694 186 694 q 444 654 386 694 l 607 696 q 621 659 619 679 q 607 625 622 639 q 483 617 586 614 q 528 457 531 557 q 465 286 526 357 q 288 215 403 215 m 296 640 q 259 639 296 640 q 179 584 222 638 q 136 456 136 531 q 178 325 136 382 q 293 269 219 268 q 409 327 367 271 q 451 458 451 383 q 410 587 451 532 q 296 640 369 642 m 96 -103 q 157 -203 96 -168 q 325 -239 218 -239 q 496 -187 432 -239 q 560 -65 560 -136 q 453 40 560 21 q 299 54 392 51 q 186 60 206 57 q 121 -15 146 31 q 96 -103 96 -60 m 319 858 l 135 735 q 99 771 114 744 l 279 936 q 360 936 319 947 l 540 771 q 504 735 525 744 l 319 858 z "},"Ğ":{"ha":850,"x_min":56,"x_max":828,"o":"m 558 421 l 828 421 q 828 411 828 421 q 789 365 828 369 l 756 361 l 756 90 q 616 10 706 40 q 436 -21 526 -21 q 162 98 261 -21 q 56 442 63 217 q 161 815 49 668 q 481 961 274 961 q 683 908 617 961 q 750 783 750 856 q 676 711 750 711 q 619 852 676 807 q 461 897 561 897 q 224 777 306 897 q 142 465 142 657 q 216 159 142 274 q 451 44 290 44 q 674 111 589 44 l 674 358 l 528 367 q 558 421 522 421 m 649 1190 q 584 1072 639 1125 q 437 1019 529 1019 q 290 1072 344 1019 q 226 1190 236 1125 l 272 1211 q 329 1136 288 1171 q 439 1101 371 1101 q 603 1208 563 1101 l 649 1190 z "},"ğ":{"ha":636,"x_min":25,"x_max":621,"o":"m 288 215 q 226 221 263 215 q 183 152 179 171 q 299 131 188 133 q 548 91 476 128 q 619 -55 619 54 q 533 -237 619 -164 q 308 -311 446 -311 q 97 -259 169 -311 q 25 -125 25 -207 q 144 71 25 -11 q 104 129 104 86 q 174 239 104 172 q 60 410 69 290 q 118 612 50 529 q 304 694 186 694 q 444 654 386 694 l 607 696 q 621 659 619 679 q 607 625 622 639 q 483 617 586 614 q 528 457 531 557 q 465 286 526 357 q 288 215 403 215 m 296 640 q 259 639 296 640 q 179 584 222 638 q 136 456 136 531 q 178 325 136 382 q 293 269 219 268 q 409 327 367 271 q 451 458 451 383 q 410 587 451 532 q 296 640 369 642 m 96 -103 q 157 -203 96 -168 q 325 -239 218 -239 q 496 -187 432 -239 q 560 -65 560 -136 q 453 40 560 21 q 299 54 392 51 q 186 60 206 57 q 121 -15 146 31 q 96 -103 96 -60 m 531 906 q 466 788 521 840 q 319 735 411 735 q 172 788 226 735 q 108 906 118 840 l 154 926 q 211 851 169 886 q 321 817 253 817 q 485 924 444 817 l 531 906 z "},"Ġ":{"ha":850,"x_min":56,"x_max":828,"o":"m 558 421 l 828 421 q 828 411 828 421 q 789 365 828 369 l 756 361 l 756 90 q 616 10 706 40 q 436 -21 526 -21 q 162 98 261 -21 q 56 442 63 217 q 161 815 49 668 q 481 961 274 961 q 683 908 617 961 q 750 783 750 856 q 676 711 750 711 q 619 852 676 807 q 461 897 561 897 q 224 777 306 897 q 142 465 142 657 q 216 159 142 274 q 451 44 290 44 q 674 111 589 44 l 674 358 l 528 367 q 558 421 522 421 m 478 1123 q 469 1115 478 1123 q 435 1107 461 1107 q 392 1123 408 1107 q 375 1167 375 1139 q 392 1210 375 1194 q 435 1226 408 1226 q 478 1210 461 1226 q 494 1167 494 1194 q 478 1123 494 1139 z "},"ġ":{"ha":636,"x_min":25,"x_max":621,"o":"m 288 215 q 226 221 263 215 q 183 152 179 171 q 299 131 188 133 q 548 91 476 128 q 619 -55 619 54 q 533 -237 619 -164 q 308 -311 446 -311 q 97 -259 169 -311 q 25 -125 25 -207 q 144 71 25 -11 q 104 129 104 86 q 174 239 104 172 q 60 410 69 290 q 118 612 50 529 q 304 694 186 694 q 444 654 386 694 l 607 696 q 621 659 619 679 q 607 625 622 639 q 483 617 586 614 q 528 457 531 557 q 465 286 526 357 q 288 215 403 215 m 296 640 q 259 639 296 640 q 179 584 222 638 q 136 456 136 531 q 178 325 136 382 q 293 269 219 268 q 409 327 367 271 q 451 458 451 383 q 410 587 451 532 q 296 640 369 642 m 96 -103 q 157 -203 96 -168 q 325 -239 218 -239 q 496 -187 432 -239 q 560 -65 560 -136 q 453 40 560 21 q 299 54 392 51 q 186 60 206 57 q 121 -15 146 31 q 96 -103 96 -60 m 360 859 q 352 851 360 859 q 317 843 344 843 q 273 859 289 843 q 257 903 257 875 q 273 947 257 931 q 317 963 289 963 q 360 947 344 963 q 376 903 376 931 q 360 859 376 875 z "},"Ģ":{"ha":850,"x_min":56,"x_max":828,"o":"m 558 421 l 828 421 q 828 411 828 421 q 789 365 828 369 l 756 361 l 756 90 q 616 10 706 40 q 436 -21 526 -21 q 162 98 261 -21 q 56 442 63 217 q 161 815 49 668 q 481 961 274 961 q 683 908 617 961 q 750 783 750 856 q 676 711 750 711 q 619 852 676 807 q 461 897 561 897 q 224 777 306 897 q 142 465 142 657 q 216 159 142 274 q 451 44 290 44 q 674 111 589 44 l 674 358 l 528 367 q 558 421 522 421 m 360 -111 q 360 -98 360 -111 q 377 -67 360 -85 q 423 -49 394 -49 q 469 -67 451 -49 q 488 -128 488 -85 q 456 -223 488 -172 q 388 -289 425 -274 q 372 -283 382 -292 q 363 -268 363 -274 q 414 -179 399 -243 q 374 -157 389 -176 q 360 -111 360 -137 z "},"ģ":{"ha":636,"x_min":25,"x_max":621,"o":"m 288 215 q 226 221 263 215 q 183 152 179 171 q 299 131 188 133 q 548 91 476 128 q 619 -55 619 54 q 533 -237 619 -164 q 308 -311 446 -311 q 97 -259 169 -311 q 25 -125 25 -207 q 144 71 25 -11 q 104 129 104 86 q 174 239 104 172 q 60 410 69 290 q 118 612 50 529 q 304 694 186 694 q 444 654 386 694 l 607 696 q 621 659 619 679 q 607 625 622 639 q 483 617 586 614 q 528 457 531 557 q 465 286 526 357 q 288 215 403 215 m 296 640 q 259 639 296 640 q 179 584 222 638 q 136 456 136 531 q 178 325 136 382 q 293 269 219 268 q 409 327 367 271 q 451 458 451 383 q 410 587 451 532 q 296 640 369 642 m 96 -103 q 157 -203 96 -168 q 325 -239 218 -239 q 496 -187 432 -239 q 560 -65 560 -136 q 453 40 560 21 q 299 54 392 51 q 186 60 206 57 q 121 -15 146 31 q 96 -103 96 -60 m 372 828 q 372 815 372 828 q 355 783 372 801 q 309 765 338 765 q 263 783 281 765 q 244 845 244 801 q 276 940 244 889 q 344 1006 307 990 q 360 999 350 1008 q 369 985 369 990 q 318 896 333 960 q 358 874 343 893 q 372 828 372 854 z "},"Ĥ":{"ha":971,"x_min":58,"x_max":913,"o":"m 874 0 l 615 0 l 615 11 q 633 50 615 42 q 654 56 642 54 l 724 60 l 724 439 l 247 439 l 247 63 l 350 54 q 318 0 356 0 l 58 0 l 58 11 q 76 50 58 42 q 97 56 85 54 l 167 60 l 167 875 l 65 883 q 97 938 60 938 l 357 938 l 357 928 q 339 888 357 897 q 318 882 331 883 l 249 878 l 249 501 l 724 501 l 724 875 l 622 883 q 654 938 617 938 l 913 938 l 913 928 q 894 888 913 897 q 874 882 886 883 l 804 878 l 804 63 l 906 54 q 874 0 911 0 m 492 1122 l 307 999 q 271 1035 286 1008 l 451 1200 q 532 1200 492 1211 l 713 1035 q 676 999 697 1008 l 492 1122 z "},"ĥ":{"ha":849,"x_min":68,"x_max":813,"o":"m 781 0 l 529 0 l 529 10 q 547 44 529 38 q 629 54 557 49 l 629 404 q 584 567 629 511 q 467 622 539 622 q 349 599 394 622 q 250 528 303 575 l 250 57 l 357 49 q 325 0 361 0 l 72 0 l 72 10 q 90 44 72 38 q 174 54 100 49 l 174 878 l 96 886 q 68 939 68 889 l 250 964 l 250 804 l 394 936 q 475 936 435 947 l 656 771 q 619 735 640 744 l 435 858 l 250 735 l 250 594 q 472 694 342 694 q 634 628 565 694 q 704 417 703 563 l 706 57 l 813 49 q 781 0 817 0 z "},"Ħ":{"ha":971,"x_min":58,"x_max":913,"o":"m 804 703 l 892 703 l 892 640 l 804 640 l 804 63 l 906 54 q 874 0 911 0 l 615 0 l 615 11 q 633 50 615 42 q 654 56 642 54 l 724 60 l 724 439 l 247 439 l 247 63 l 350 54 q 318 0 356 0 l 58 0 l 58 11 q 76 50 58 42 q 97 56 85 54 l 167 60 l 167 640 l 71 640 l 71 703 l 167 703 l 167 875 l 65 883 q 97 938 60 938 l 357 938 l 357 928 q 339 888 357 897 q 318 882 331 883 l 249 878 l 249 703 l 724 703 l 724 875 l 622 883 q 654 938 617 938 l 913 938 l 913 928 q 894 888 913 897 q 874 882 886 883 l 804 878 l 804 703 m 724 501 l 724 640 l 249 640 l 249 501 l 724 501 z "},"ħ":{"ha":857,"x_min":68,"x_max":821,"o":"m 789 0 l 538 0 l 538 10 q 556 44 538 38 q 638 54 565 49 l 638 404 q 592 567 638 511 q 475 622 547 622 q 357 599 403 622 q 258 528 311 575 l 258 57 l 365 49 q 333 0 369 0 l 81 0 l 81 10 q 99 44 81 38 q 182 54 108 49 l 182 742 l 68 742 l 68 806 l 182 806 l 182 878 l 104 886 q 76 939 76 889 l 258 964 l 258 806 l 357 806 l 357 742 l 258 742 l 258 594 q 481 694 350 694 q 642 628 574 694 q 713 417 711 563 l 714 57 l 821 49 q 789 0 825 0 z "},"Ĩ":{"ha":415,"x_min":-15,"x_max":442,"o":"m 442 1182 q 394 1088 431 1125 q 304 1050 357 1050 q 194 1085 251 1050 q 106 1119 136 1119 q 26 1051 50 1119 l -15 1067 q 40 1162 0 1129 q 124 1194 79 1194 q 223 1158 168 1194 q 313 1122 278 1122 q 369 1142 347 1122 q 400 1194 392 1163 l 442 1182 m 97 938 l 357 938 l 357 928 q 339 888 357 897 q 318 882 331 883 l 249 878 l 247 878 l 247 63 l 350 54 q 318 0 356 0 l 58 0 l 58 11 q 76 50 58 42 q 97 56 85 54 l 167 60 l 167 875 l 65 883 q 97 938 60 938 z "},"ĩ":{"ha":393,"x_min":-40,"x_max":424,"o":"m 382 908 l 424 893 q 368 803 407 838 q 276 772 329 768 q 169 814 224 775 q 83 855 114 853 q 32 838 53 857 q 0 793 11 819 l -40 811 q 21 901 -21 871 q 107 928 63 931 q 203 885 151 925 q 292 843 256 846 q 382 908 360 839 m 325 0 l 72 0 l 72 10 q 90 44 72 38 q 174 54 100 49 l 174 615 l 96 622 q 68 674 68 625 l 250 694 l 250 57 l 357 49 q 325 0 361 0 z "},"Ī":{"ha":415,"x_min":36,"x_max":390,"o":"m 36 1140 l 390 1140 l 390 1067 l 36 1067 l 36 1140 m 97 938 l 357 938 q 357 928 357 938 q 339 888 357 897 q 318 882 331 883 l 249 878 l 247 878 l 247 63 l 350 54 q 318 0 356 0 l 58 0 q 58 11 58 0 q 76 50 58 42 q 97 56 85 54 l 167 60 l 167 875 l 65 883 q 97 938 60 938 z "},"ī":{"ha":393,"x_min":14,"x_max":368,"o":"m 14 876 l 368 876 l 368 803 l 14 803 l 14 876 m 325 0 l 72 0 l 72 10 q 90 44 72 38 q 174 54 100 49 l 174 615 l 96 622 q 68 674 68 625 l 250 694 l 250 57 l 357 49 q 325 0 361 0 z "},"Ĭ":{"ha":415,"x_min":3,"x_max":425,"o":"m 425 1190 q 360 1072 415 1125 q 213 1019 306 1019 q 67 1072 121 1019 q 3 1190 13 1125 l 49 1211 q 106 1136 64 1171 q 215 1101 147 1101 q 379 1208 339 1101 l 425 1190 m 97 938 l 357 938 l 357 928 q 339 888 357 897 q 318 882 331 883 l 249 878 l 247 878 l 247 63 l 350 54 q 318 0 356 0 l 58 0 l 58 11 q 76 50 58 42 q 97 56 85 54 l 167 60 l 167 875 l 65 883 q 97 938 60 938 z "},"ĭ":{"ha":393,"x_min":-19,"x_max":403,"o":"m 325 0 l 72 0 l 72 10 q 90 44 72 38 q 174 54 100 49 l 174 615 l 96 622 q 68 674 68 625 l 250 694 l 250 57 l 357 49 q 325 0 361 0 m 403 906 q 338 788 393 840 q 191 735 283 735 q 44 788 99 735 q -19 906 -10 840 l 26 926 q 83 851 42 886 q 193 817 125 817 q 357 924 317 817 l 403 906 z "},"Į":{"ha":415,"x_min":58,"x_max":483,"o":"m 319 -92 q 393 -157 319 -157 q 474 -125 431 -157 q 483 -143 479 -129 q 483 -165 486 -157 q 367 -214 449 -214 q 280 -186 315 -214 q 244 -103 244 -158 q 299 0 244 -47 l 58 0 l 58 11 q 76 50 58 42 q 97 56 85 54 l 167 60 l 167 875 l 65 883 q 97 938 60 938 l 357 938 l 357 928 q 339 888 357 897 q 318 882 331 883 l 249 878 l 247 878 l 247 63 l 350 54 q 351 45 350 53 q 351 33 351 38 q 404 54 375 46 l 431 21 q 319 -92 319 -18 z "},"į":{"ha":393,"x_min":68,"x_max":397,"o":"m 326 0 q 233 -105 233 -39 q 307 -171 233 -171 q 388 -139 344 -171 q 397 -157 393 -143 q 397 -179 400 -171 q 350 -214 382 -200 q 274 -228 318 -228 q 194 -200 229 -228 q 158 -121 158 -172 q 231 0 158 -50 l 72 0 l 72 10 q 90 44 72 38 q 174 54 100 49 l 174 615 l 96 622 q 68 674 68 625 l 250 694 l 250 57 l 357 49 q 326 0 361 1 m 233 859 q 225 851 233 859 q 189 843 217 843 q 145 859 161 843 q 129 903 129 875 q 145 947 129 931 q 189 963 161 963 q 233 947 217 963 q 249 903 249 931 q 233 859 249 875 z "},"İ":{"ha":415,"x_min":58,"x_max":357,"o":"m 247 878 l 247 63 l 350 54 q 318 0 356 0 l 58 0 l 58 11 q 76 50 58 42 q 97 56 85 54 l 167 60 l 167 875 l 65 883 q 97 938 60 938 l 357 938 l 357 928 q 339 888 357 897 q 318 882 331 883 l 249 878 l 247 878 m 255 1123 q 247 1115 255 1123 q 211 1107 239 1107 q 167 1123 183 1107 q 151 1167 151 1139 q 167 1210 151 1194 q 211 1226 183 1226 q 255 1210 239 1226 q 271 1167 271 1194 q 255 1123 271 1139 z "},"ı":{"ha":393,"x_min":68,"x_max":357,"o":"m 325 0 l 72 0 l 72 10 q 90 44 72 38 q 174 54 100 49 l 174 615 l 96 622 q 68 674 68 625 l 250 694 l 250 57 l 357 49 q 325 0 361 0 z "},"Ĳ":{"ha":776,"x_min":58,"x_max":718,"o":"m 446 940 l 718 940 q 718 931 718 940 q 700 890 718 900 q 617 881 690 886 l 615 881 l 613 160 q 565 -52 613 35 q 418 -139 517 -139 q 346 -117 376 -139 q 315 -67 315 -94 q 369 -15 315 -12 q 438 -74 374 -74 q 505 -33 483 -74 q 526 110 526 8 l 529 878 l 414 886 q 446 940 408 940 m 318 0 l 58 0 l 58 11 q 76 50 58 42 q 97 56 85 54 l 167 60 l 167 875 l 65 883 q 97 938 60 938 l 357 938 l 357 928 q 339 888 357 897 q 318 882 331 883 l 249 878 l 247 878 l 247 63 l 350 54 q 318 0 356 0 z "},"ĳ":{"ha":686,"x_min":68,"x_max":583,"o":"m 572 -12 q 526 -226 572 -140 q 376 -311 481 -311 q 304 -292 335 -311 q 274 -240 274 -274 q 328 -187 274 -183 q 396 -246 332 -246 q 496 -62 496 -246 l 496 615 l 418 624 q 390 674 390 626 l 572 694 l 572 -12 m 325 0 l 72 0 l 72 10 q 90 44 72 38 q 174 54 100 49 l 174 615 l 96 622 q 68 674 68 625 l 250 694 l 250 57 l 357 49 q 325 0 361 0 m 244 831 q 236 822 244 831 q 200 814 228 814 q 156 831 172 814 q 140 874 140 847 q 156 917 140 900 q 200 933 172 933 q 244 917 228 933 q 260 874 260 900 q 244 831 260 847 m 567 831 q 558 822 567 831 q 524 814 550 814 q 481 831 497 814 q 464 874 464 847 q 481 917 464 900 q 524 933 497 933 q 567 917 550 933 q 583 874 583 900 q 567 831 583 847 z "},"Ĵ":{"ha":425,"x_min":-28,"x_max":453,"o":"m 272 1200 l 453 1035 q 417 999 438 1008 l 232 1122 l 47 999 q 11 1035 26 1008 l 192 1200 q 272 1200 232 1211 m 100 938 l 367 938 q 367 928 367 938 q 349 888 367 897 q 265 878 339 883 l 265 178 q 215 -12 265 61 q 75 -86 164 -86 q 3 -64 33 -86 q -28 -14 -28 -42 q 26 38 -28 40 q 94 -21 31 -21 q 163 20 142 -21 q 185 163 185 61 l 185 875 l 68 883 q 100 938 63 938 z "},"ĵ":{"ha":318,"x_min":-83,"x_max":374,"o":"m 193 936 l 374 771 q 338 735 358 744 l 153 858 l -32 735 q -68 771 -53 744 l 113 936 q 193 936 153 947 m 215 -12 q 169 -226 215 -140 q 19 -311 124 -311 q -53 -292 -22 -311 q -83 -240 -83 -274 q -29 -187 -83 -183 q 39 -246 -25 -246 q 139 -62 139 -246 l 139 615 l 61 624 q 33 674 33 626 l 215 694 l 215 -12 z "},"Ķ":{"ha":819,"x_min":58,"x_max":779,"o":"m 746 0 l 631 0 l 321 440 l 247 351 l 247 63 l 350 54 q 318 0 356 0 l 58 0 l 58 11 q 76 50 58 42 q 97 56 85 54 l 167 60 l 167 875 l 65 883 q 97 938 60 938 l 357 938 l 357 928 q 339 888 357 897 q 318 882 331 883 l 249 878 l 247 440 l 604 875 l 517 883 q 549 938 511 938 l 779 938 l 779 928 q 761 888 779 897 q 686 878 751 883 l 372 501 l 693 57 l 778 49 q 746 0 783 0 m 342 -111 q 342 -98 342 -111 q 359 -67 342 -85 q 405 -49 376 -49 q 451 -67 433 -49 q 469 -128 469 -85 q 438 -223 469 -172 q 369 -289 407 -274 q 354 -283 364 -292 q 344 -268 344 -274 q 396 -179 381 -243 q 356 -157 371 -176 q 342 -111 342 -137 z "},"ķ":{"ha":728,"x_min":68,"x_max":735,"o":"m 703 0 l 597 0 l 346 342 l 250 236 l 250 57 l 357 49 q 325 0 361 0 l 72 0 l 72 10 q 90 44 72 38 q 174 54 100 49 l 174 878 l 96 886 q 68 939 68 889 l 250 964 l 250 313 l 524 617 l 440 625 q 472 674 436 674 l 683 674 l 683 664 q 644 624 683 628 l 601 619 l 394 394 l 642 56 l 735 49 q 703 0 739 0 m 357 -107 q 357 -94 357 -107 q 374 -62 357 -81 q 420 -44 392 -44 q 467 -62 449 -44 q 485 -124 485 -81 q 453 -219 485 -168 q 385 -285 422 -269 q 369 -278 379 -287 q 360 -264 360 -269 q 411 -175 396 -239 q 372 -153 386 -172 q 357 -107 357 -133 z "},"ĸ":{"ha":728,"x_min":68,"x_max":735,"o":"m 472 674 l 683 674 l 683 664 q 644 624 683 628 l 601 619 l 394 394 l 642 56 l 735 49 q 703 0 739 0 l 597 0 l 346 342 l 250 236 l 250 57 l 357 49 q 325 0 361 0 l 72 0 l 72 10 q 90 44 72 38 q 174 54 100 49 l 174 588 l 96 596 q 68 649 68 599 l 250 674 l 250 313 l 524 617 l 440 625 q 472 674 436 674 z "},"Ĺ":{"ha":721,"x_min":58,"x_max":693,"o":"m 693 179 l 693 0 l 58 0 l 58 11 q 76 50 58 42 q 97 56 85 54 l 167 60 l 167 878 l 64 886 q 96 940 58 940 l 356 940 l 356 931 q 338 890 356 900 q 317 885 329 886 l 247 881 l 247 63 l 625 68 l 639 211 q 693 179 693 217 m 468 1160 l 196 1013 q 160 1049 175 1022 l 388 1221 q 433 1201 411 1219 q 468 1160 456 1183 z "},"ĺ":{"ha":456,"x_min":65,"x_max":374,"o":"m 317 0 l 69 0 l 69 10 q 88 44 69 38 q 174 54 97 50 l 174 879 l 96 888 q 68 938 68 890 l 250 963 l 250 57 l 349 49 q 317 0 353 0 m 374 1094 l 101 947 q 65 983 81 957 l 293 1156 q 339 1136 317 1154 q 374 1094 361 1118 z "},"Ļ":{"ha":721,"x_min":58,"x_max":693,"o":"m 693 179 l 693 0 l 58 0 l 58 11 q 76 50 58 42 q 97 56 85 54 l 167 60 l 167 878 l 64 886 q 96 940 58 940 l 356 940 l 356 931 q 338 890 356 900 q 317 885 329 886 l 247 881 l 247 63 l 625 68 l 639 211 q 693 179 693 217 m 294 -111 q 294 -98 294 -111 q 312 -67 294 -85 q 358 -49 329 -49 q 404 -67 386 -49 q 422 -128 422 -85 q 391 -223 422 -172 q 322 -289 360 -274 q 307 -283 317 -292 q 297 -268 297 -274 q 349 -179 333 -243 q 309 -157 324 -176 q 294 -111 294 -137 z "},"ļ":{"ha":385,"x_min":68,"x_max":349,"o":"m 317 0 l 69 0 l 69 10 q 88 44 69 38 q 174 54 97 50 l 174 879 l 96 888 q 68 938 68 890 l 250 963 l 250 57 l 349 49 q 317 0 353 0 m 172 -107 q 172 -94 172 -107 q 190 -62 172 -81 q 235 -44 207 -44 q 282 -62 264 -44 q 300 -124 300 -81 q 269 -219 300 -168 q 200 -285 238 -269 q 185 -278 194 -287 q 175 -264 175 -269 q 226 -175 211 -239 q 187 -153 201 -172 q 172 -107 172 -133 z "},"Ľ":{"ha":833,"x_min":58,"x_max":693,"o":"m 693 179 l 693 0 l 58 0 l 58 11 q 76 50 58 42 q 97 56 85 54 l 167 60 l 167 878 l 64 886 q 96 940 58 940 l 356 940 l 356 931 q 338 890 356 900 q 317 885 329 886 l 247 881 l 247 63 l 625 68 l 639 211 q 693 179 693 217 m 483 764 q 458 769 476 760 q 440 786 440 779 q 463 910 460 835 q 453 1028 467 985 q 511 1038 472 1043 q 560 1013 550 1032 q 483 764 567 860 z "},"ľ":{"ha":447,"x_min":68,"x_max":421,"o":"m 329 993 q 380 1007 349 1007 q 421 990 411 1007 q 350 742 428 832 q 328 746 343 738 q 314 761 314 754 q 338 880 333 810 q 329 993 343 950 m 317 0 l 69 0 l 69 10 q 88 44 69 38 q 174 54 97 50 l 174 879 l 96 888 q 68 938 68 890 l 250 963 l 250 57 l 349 49 q 317 0 353 0 z "},"Ŀ":{"ha":721,"x_min":58,"x_max":693,"o":"m 693 179 l 693 0 l 58 0 l 58 11 q 76 50 58 42 q 97 56 85 54 l 167 60 l 167 878 l 64 886 q 96 940 58 940 l 356 940 l 356 931 q 338 890 356 900 q 317 885 329 886 l 247 881 l 247 63 l 625 68 l 639 211 q 693 179 693 217 m 604 402 q 595 393 604 402 q 558 383 586 383 q 513 402 531 383 q 494 449 494 421 q 513 495 494 476 q 558 514 531 514 q 604 495 586 514 q 622 449 622 476 q 604 402 622 421 z "},"ŀ":{"ha":385,"x_min":68,"x_max":469,"o":"m 360 509 q 369 518 360 509 q 406 528 378 528 q 451 509 433 528 q 469 463 469 490 q 451 416 469 435 q 406 397 433 397 q 360 416 378 397 q 342 463 342 435 q 360 509 342 490 m 317 0 l 69 0 l 69 10 q 88 44 69 38 q 174 54 97 50 l 174 879 l 96 888 q 68 938 68 890 l 250 963 l 250 57 l 349 49 q 317 0 353 0 z "},"Ł":{"ha":733,"x_min":49,"x_max":706,"o":"m 706 179 l 706 0 l 71 0 l 71 11 q 89 50 71 42 q 110 56 97 54 l 179 60 l 179 331 l 88 258 l 49 307 l 179 411 l 179 878 l 76 886 q 108 940 71 940 l 368 940 l 368 931 q 350 890 368 900 q 329 885 342 886 l 260 881 l 260 475 l 431 611 l 471 561 l 260 394 l 260 63 l 638 68 l 651 211 q 706 179 706 217 z "},"ł":{"ha":456,"x_min":53,"x_max":371,"o":"m 317 0 l 69 0 l 69 10 q 88 44 69 38 q 174 54 97 50 l 174 400 l 96 329 l 53 376 l 174 486 l 174 879 l 96 888 q 68 938 68 890 l 250 963 l 250 554 l 328 625 l 371 578 l 250 468 l 250 57 l 349 49 q 317 0 353 0 z "},"Ń":{"ha":947,"x_min":58,"x_max":913,"o":"m 664 938 l 913 938 q 913 928 913 938 q 894 888 913 897 q 874 882 886 883 l 801 878 l 801 15 q 739 0 769 0 l 236 781 l 236 63 l 339 54 q 307 0 344 0 l 58 0 q 58 11 58 0 q 76 50 58 42 q 97 56 85 54 l 168 60 l 168 875 l 65 883 q 97 938 60 938 l 235 938 l 735 160 l 735 875 l 632 883 q 664 938 626 938 m 665 1160 l 393 1013 q 357 1049 372 1022 l 585 1221 q 631 1201 608 1219 q 665 1160 653 1183 z "},"ń":{"ha":839,"x_min":68,"x_max":803,"o":"m 771 0 l 525 0 l 525 10 q 543 44 525 38 q 629 54 553 50 l 629 418 q 468 625 629 625 q 360 601 410 625 q 250 525 311 578 l 250 57 l 349 49 q 317 0 353 0 l 69 0 l 69 10 q 88 44 69 38 q 174 54 97 50 l 174 615 l 96 624 q 68 672 68 626 l 228 694 l 247 583 l 251 583 q 489 694 368 694 q 642 631 578 694 q 706 433 706 568 l 706 57 l 803 49 q 771 0 808 0 m 629 882 l 357 735 q 321 771 336 744 l 549 943 q 594 924 572 942 q 629 882 617 906 z "},"Ņ":{"ha":947,"x_min":58,"x_max":913,"o":"m 664 938 l 913 938 q 913 928 913 938 q 894 888 913 897 q 874 882 886 883 l 801 878 l 801 15 q 739 0 769 0 l 236 781 l 236 63 l 339 54 q 307 0 344 0 l 58 0 q 58 11 58 0 q 76 50 58 42 q 97 56 85 54 l 168 60 l 168 875 l 65 883 q 97 938 60 938 l 235 938 l 735 160 l 735 875 l 632 883 q 664 938 626 938 m 453 -111 q 453 -98 453 -111 q 470 -67 453 -85 q 516 -49 488 -49 q 563 -67 544 -49 q 581 -128 581 -85 q 549 -223 581 -172 q 481 -289 518 -274 q 465 -283 475 -292 q 456 -268 456 -274 q 507 -179 492 -243 q 467 -157 482 -176 q 453 -111 453 -137 z "},"ņ":{"ha":839,"x_min":68,"x_max":803,"o":"m 771 0 l 525 0 l 525 10 q 543 44 525 38 q 629 54 553 50 l 629 418 q 468 625 629 625 q 360 601 410 625 q 250 525 311 578 l 250 57 l 349 49 q 317 0 353 0 l 69 0 l 69 10 q 88 44 69 38 q 174 54 97 50 l 174 615 l 96 624 q 68 672 68 626 l 228 694 l 247 583 l 251 583 q 489 694 368 694 q 642 631 578 694 q 706 433 706 568 l 706 57 l 803 49 q 771 0 808 0 m 397 -107 q 397 -94 397 -107 q 415 -62 397 -81 q 460 -44 432 -44 q 507 -62 489 -44 q 525 -124 525 -81 q 494 -219 525 -168 q 425 -285 463 -269 q 410 -278 419 -287 q 400 -264 400 -269 q 451 -175 436 -239 q 412 -153 426 -172 q 397 -107 397 -133 z "},"Ň":{"ha":947,"x_min":58,"x_max":913,"o":"m 664 938 l 913 938 q 913 928 913 938 q 894 888 913 897 q 874 882 886 883 l 801 878 l 801 15 q 739 0 769 0 l 236 781 l 236 63 l 339 54 q 307 0 344 0 l 58 0 q 58 11 58 0 q 76 50 58 42 q 97 56 85 54 l 168 60 l 168 875 l 65 883 q 97 938 60 938 l 235 938 l 735 160 l 735 875 l 632 883 q 664 938 626 938 m 688 1185 l 507 1019 q 426 1019 467 1008 l 246 1185 q 282 1221 261 1211 l 467 1097 l 651 1221 q 688 1185 672 1211 z "},"ň":{"ha":839,"x_min":68,"x_max":803,"o":"m 771 0 l 525 0 l 525 10 q 543 44 525 38 q 629 54 553 50 l 629 418 q 468 625 629 625 q 360 601 410 625 q 250 525 311 578 l 250 57 l 349 49 q 317 0 353 0 l 69 0 l 69 10 q 88 44 69 38 q 174 54 97 50 l 174 615 l 96 624 q 68 672 68 626 l 228 694 l 247 583 l 251 583 q 489 694 368 694 q 642 631 578 694 q 706 433 706 568 l 706 57 l 803 49 q 771 0 808 0 m 651 921 l 471 756 q 390 756 431 744 l 210 921 q 246 957 225 947 l 431 833 l 615 957 q 651 921 636 947 z "},"Ŋ":{"ha":947,"x_min":58,"x_max":913,"o":"m 664 938 l 913 938 q 913 928 913 938 q 894 888 913 897 q 874 882 886 883 l 801 878 l 801 15 q 755 -169 801 -92 q 615 -246 708 -246 q 543 -224 574 -246 q 513 -175 513 -201 q 567 -122 513 -119 q 635 -181 571 -181 q 735 6 733 -181 l 236 778 l 236 63 l 339 54 q 307 0 344 0 l 58 0 l 58 11 q 76 50 58 42 q 97 56 85 54 l 168 60 l 168 875 l 65 883 q 97 938 60 938 l 235 938 l 735 160 l 735 875 l 632 883 q 664 938 626 938 z "},"ŋ":{"ha":808,"x_min":68,"x_max":706,"o":"m 489 694 q 642 631 578 694 q 706 433 706 568 l 706 47 q 660 -166 706 -81 q 510 -251 614 -251 q 438 -233 468 -251 q 407 -181 407 -214 q 461 -128 407 -124 q 529 -186 465 -186 q 629 -3 629 -186 l 629 418 q 468 625 629 625 q 360 601 410 625 q 250 525 311 578 l 250 57 l 349 49 q 317 0 353 0 l 69 0 q 69 10 69 0 q 88 44 69 38 q 174 54 97 50 l 174 615 l 96 624 q 68 672 68 626 l 228 694 l 247 583 l 251 583 q 489 694 368 694 z "},"Ō":{"ha":874,"x_min":56,"x_max":818,"o":"m 281 1140 l 635 1140 l 635 1067 l 281 1067 l 281 1140 m 206 167 q 298 76 239 108 q 436 43 357 43 q 663 160 588 44 q 738 465 738 275 q 669 769 738 653 q 442 894 597 894 q 213 776 288 893 q 138 471 138 660 q 206 167 138 282 m 453 958 q 638 908 553 958 q 726 831 689 879 q 790 696 764 782 q 818 497 817 610 q 717 122 821 264 q 414 -21 614 -21 q 156 100 250 -21 q 56 444 61 221 q 156 813 50 667 q 453 958 261 958 z "},"ō":{"ha":693,"x_min":56,"x_max":638,"o":"m 194 547 q 166 505 194 547 q 139 335 139 463 q 191 124 139 207 q 344 42 243 40 q 499 125 444 43 q 554 333 554 207 q 503 547 554 460 q 350 632 451 633 q 194 547 249 631 m 356 694 q 535 636 451 694 q 608 533 581 603 q 638 363 636 463 q 559 85 640 192 q 340 -21 478 -21 q 131 67 203 -21 q 56 320 58 154 q 137 590 54 486 q 356 694 219 694 m 172 876 l 526 876 l 526 803 l 172 803 l 172 876 z "},"Ŏ":{"ha":874,"x_min":56,"x_max":818,"o":"m 206 167 q 298 76 239 108 q 436 43 357 43 q 663 160 588 44 q 738 465 738 275 q 669 769 738 653 q 442 894 597 894 q 213 776 288 893 q 138 471 138 660 q 206 167 138 282 m 453 958 q 638 908 553 958 q 726 831 689 879 q 790 696 764 782 q 818 497 817 610 q 717 122 821 264 q 414 -21 614 -21 q 156 100 250 -21 q 56 444 61 221 q 156 813 50 667 q 453 958 261 958 m 460 1101 q 624 1208 583 1101 l 669 1190 q 605 1072 660 1125 q 458 1019 550 1019 q 311 1072 365 1019 q 247 1190 257 1125 l 293 1211 q 350 1136 308 1171 q 460 1101 392 1101 z "},"ŏ":{"ha":693,"x_min":56,"x_max":638,"o":"m 351 817 q 515 924 475 817 l 561 906 q 497 788 551 840 q 349 735 442 735 q 203 788 257 735 q 139 906 149 840 l 185 926 q 242 851 200 886 q 351 817 283 817 m 194 547 q 166 505 194 547 q 139 335 139 463 q 191 124 139 207 q 344 42 243 40 q 499 125 444 43 q 554 333 554 207 q 503 547 554 460 q 350 632 451 633 q 194 547 249 631 m 356 694 q 535 636 451 694 q 608 533 581 603 q 638 363 636 463 q 559 85 640 192 q 340 -21 478 -21 q 131 67 203 -21 q 56 320 58 154 q 137 590 54 486 q 356 694 219 694 z "},"Ő":{"ha":874,"x_min":56,"x_max":818,"o":"m 206 167 q 298 76 239 108 q 436 43 357 43 q 663 160 588 44 q 738 465 738 275 q 669 769 738 653 q 442 894 597 894 q 213 776 288 893 q 138 471 138 660 q 206 167 138 282 m 453 958 q 638 908 553 958 q 726 831 689 879 q 790 696 764 782 q 818 497 817 610 q 717 122 821 264 q 414 -21 614 -21 q 156 100 250 -21 q 56 444 61 221 q 156 813 50 667 q 453 958 261 958 m 569 1103 l 297 956 q 261 992 276 965 l 489 1164 q 535 1144 513 1163 q 569 1103 557 1126 m 818 1103 l 546 956 q 510 992 525 965 l 738 1164 q 783 1144 761 1163 q 818 1103 806 1126 z "},"ő":{"ha":693,"x_min":56,"x_max":781,"o":"m 194 547 q 166 505 194 547 q 139 335 139 463 q 191 124 139 207 q 344 42 243 40 q 499 125 444 43 q 554 333 554 207 q 503 547 554 460 q 350 632 451 633 q 194 547 249 631 m 356 694 q 535 636 451 694 q 608 533 581 603 q 638 363 636 463 q 559 85 640 192 q 340 -21 478 -21 q 131 67 203 -21 q 56 320 58 154 q 137 590 54 486 q 356 694 219 694 m 621 849 l 349 701 q 313 738 328 711 l 540 910 q 586 890 564 908 q 621 849 608 872 m 781 828 l 508 681 q 472 717 488 690 l 700 889 q 746 869 724 888 q 781 828 768 851 z "},"Œ":{"ha":1214,"x_min":54,"x_max":1150,"o":"m 458 43 q 610 79 546 43 l 610 863 q 460 897 549 897 q 221 778 300 896 q 142 471 142 661 q 217 162 142 281 q 458 43 292 43 m 1150 0 l 578 0 q 435 -21 514 -21 q 161 100 261 -21 q 55 444 61 221 q 161 815 49 668 q 476 961 274 961 q 611 940 547 961 l 1122 940 l 1122 747 q 1068 715 1122 710 l 1054 871 l 690 878 l 690 500 l 963 515 q 963 425 971 474 l 690 440 l 690 63 l 1082 71 l 1096 211 q 1128 211 1106 217 q 1150 179 1150 206 l 1150 0 z "},"œ":{"ha":1121,"x_min":56,"x_max":1078,"o":"m 992 426 q 956 576 994 517 q 844 636 917 636 q 719 578 772 636 q 646 426 665 521 l 992 426 m 193 550 q 166 508 193 550 q 139 336 139 465 q 191 121 139 207 q 342 36 243 35 q 494 122 440 38 q 549 336 549 207 q 497 551 549 465 q 346 636 444 638 q 193 550 247 635 m 601 532 q 713 652 644 610 q 851 694 782 694 q 964 671 919 694 q 1032 608 1008 647 q 1078 436 1078 531 l 1078 372 l 638 372 q 635 322 635 339 q 688 125 635 203 q 849 47 740 47 q 1049 121 957 47 q 1063 93 1063 111 q 988 18 1063 57 q 828 -21 913 -21 q 680 19 743 -21 q 583 132 617 58 q 332 -21 503 -21 q 131 65 203 -21 q 56 318 58 151 q 133 590 53 485 q 354 694 214 694 q 495 658 426 694 q 601 532 564 621 z "},"Ŕ":{"ha":782,"x_min":58,"x_max":763,"o":"m 58 0 l 58 14 q 67 44 58 38 q 97 56 85 56 l 167 60 l 167 878 l 65 886 q 65 899 65 888 q 65 914 64 910 q 68 925 65 918 q 97 940 74 940 l 397 940 q 690 714 690 940 q 615 531 690 599 q 425 446 540 463 q 606 156 513 261 q 763 51 700 51 q 747 -1 763 18 q 707 -21 732 -21 q 522 126 626 -21 q 357 440 417 274 l 353 440 q 249 444 300 440 l 249 63 l 351 54 q 331 1 351 8 q 319 0 326 0 l 58 0 m 249 881 l 249 503 q 343 499 299 499 q 538 551 471 499 q 606 694 606 603 q 550 844 606 801 q 414 886 494 886 q 250 881 363 886 l 249 881 m 563 1160 l 290 1013 q 254 1049 269 1022 l 482 1221 q 528 1201 506 1219 q 563 1160 550 1183 z "},"ŕ":{"ha":549,"x_min":68,"x_max":542,"o":"m 464 694 q 542 626 542 694 q 525 533 542 554 q 474 521 508 518 q 421 619 474 619 q 250 524 356 619 l 250 57 l 371 49 q 339 0 375 0 l 72 0 q 72 10 72 0 q 90 44 72 38 q 174 54 100 49 l 174 610 l 96 618 q 68 667 68 621 l 239 689 l 247 585 l 251 585 q 358 661 296 628 q 464 694 419 694 m 504 882 l 232 735 q 196 771 211 744 l 424 943 q 469 924 447 942 q 504 882 492 906 z "},"Ŗ":{"ha":782,"x_min":58,"x_max":763,"o":"m 58 0 l 58 14 q 67 44 58 38 q 97 56 85 56 l 167 60 l 167 878 l 65 886 q 65 899 65 888 q 65 914 64 910 q 68 925 65 918 q 97 940 74 940 l 397 940 q 690 714 690 940 q 615 531 690 599 q 425 446 540 463 q 606 156 513 261 q 763 51 700 51 q 747 -1 763 18 q 707 -21 732 -21 q 522 126 626 -21 q 357 440 417 274 l 353 440 q 249 444 300 440 l 249 63 l 351 54 q 331 1 351 8 q 319 0 326 0 l 58 0 m 249 881 l 249 503 q 343 499 299 499 q 538 551 471 499 q 606 694 606 603 q 550 844 606 801 q 414 886 494 886 q 250 881 363 886 l 249 881 m 336 -111 q 336 -98 336 -111 q 353 -67 336 -85 q 399 -49 371 -49 q 446 -67 428 -49 q 464 -128 464 -85 q 433 -223 464 -172 q 364 -289 401 -274 q 349 -283 358 -292 q 339 -268 339 -274 q 390 -179 375 -243 q 351 -157 365 -176 q 336 -111 336 -137 z "},"ŗ":{"ha":549,"x_min":68,"x_max":542,"o":"m 464 694 q 542 626 542 694 q 525 533 542 554 q 474 521 508 518 q 421 619 474 619 q 250 524 356 619 l 250 57 l 371 49 q 339 0 375 0 l 72 0 l 72 10 q 90 44 72 38 q 174 54 100 49 l 174 610 l 96 618 q 68 667 68 621 l 239 689 l 247 585 l 251 585 q 358 661 296 628 q 464 694 419 694 m 185 -107 q 185 -94 185 -107 q 202 -62 185 -81 q 248 -44 219 -44 q 294 -62 276 -44 q 313 -124 313 -81 q 281 -219 313 -168 q 213 -285 250 -269 q 197 -278 207 -287 q 188 -264 188 -269 q 239 -175 224 -239 q 199 -153 214 -172 q 185 -107 185 -133 z "},"Ř":{"ha":782,"x_min":58,"x_max":763,"o":"m 58 0 l 58 14 q 67 44 58 38 q 97 56 85 56 l 167 60 l 167 878 l 65 886 q 65 899 65 888 q 65 914 64 910 q 68 925 65 918 q 97 940 74 940 l 397 940 q 690 714 690 940 q 615 531 690 599 q 425 446 540 463 q 606 156 513 261 q 763 51 700 51 q 747 -1 763 18 q 707 -21 732 -21 q 522 126 626 -21 q 357 440 417 274 l 353 440 q 249 444 300 440 l 249 63 l 351 54 q 331 1 351 8 q 319 0 326 0 l 58 0 m 249 881 l 249 503 q 343 499 299 499 q 538 551 471 499 q 606 694 606 603 q 550 844 606 801 q 414 886 494 886 q 250 881 363 886 l 249 881 m 585 1185 l 404 1019 q 324 1019 364 1008 l 143 1185 q 179 1221 158 1211 l 364 1097 l 549 1221 q 585 1185 569 1211 z "},"ř":{"ha":549,"x_min":68,"x_max":542,"o":"m 464 694 q 542 626 542 694 q 525 533 542 554 q 474 521 508 518 q 421 619 474 619 q 250 524 356 619 l 250 57 l 371 49 q 339 0 375 0 l 72 0 l 72 10 q 90 44 72 38 q 174 54 100 49 l 174 610 l 96 618 q 68 667 68 621 l 239 689 l 247 585 l 251 585 q 358 661 296 628 q 464 694 419 694 m 526 921 l 346 756 q 265 756 306 744 l 85 921 q 121 957 100 947 l 306 833 l 490 957 q 526 921 511 947 z "},"Ś":{"ha":675,"x_min":35,"x_max":640,"o":"m 546 1160 l 274 1013 q 238 1049 253 1022 l 465 1221 q 511 1201 489 1219 q 546 1160 533 1183 m 550 903 q 596 819 596 867 q 573 752 596 771 q 519 733 550 733 q 476 847 519 806 q 348 889 433 889 q 208 851 263 889 q 154 742 154 813 q 232 607 154 658 q 374 533 293 567 q 490 482 454 500 q 567 433 526 464 q 640 269 640 379 q 547 69 640 158 q 307 -21 454 -21 q 117 24 200 -21 q 35 138 35 68 q 52 189 35 168 q 97 210 69 210 q 178 90 118 131 q 335 49 239 49 q 494 103 431 49 q 557 250 557 157 q 545 321 557 292 q 502 374 533 350 q 447 410 471 397 q 345 457 408 431 q 242 504 282 483 q 157 558 201 525 q 71 723 71 621 q 149 890 71 825 q 349 958 228 956 q 550 903 472 961 z "},"ś":{"ha":533,"x_min":32,"x_max":503,"o":"m 57 504 q 129 644 58 592 q 281 694 200 696 q 417 665 363 693 q 471 585 472 636 q 446 536 469 550 q 399 524 422 522 q 371 601 400 572 q 279 632 342 631 q 174 603 217 633 q 129 524 131 572 q 169 447 128 475 q 288 390 211 419 q 390 349 364 361 q 447 314 415 336 q 502 192 504 274 q 430 44 500 111 q 242 -21 360 -22 q 94 16 158 -18 q 32 106 31 50 q 50 150 33 133 q 90 165 67 167 q 149 77 103 111 q 263 42 194 43 q 378 75 331 40 q 428 165 426 110 q 397 247 429 219 q 301 297 365 274 q 217 328 238 321 q 159 356 197 336 q 103 393 121 375 q 57 504 57 442 m 467 882 l 194 735 q 158 771 174 744 l 386 943 q 432 924 410 942 q 467 882 454 906 z "},"Ŝ":{"ha":675,"x_min":35,"x_max":640,"o":"m 640 269 q 640 214 640 269 q 547 69 640 158 q 307 -21 454 -21 q 117 24 200 -21 q 35 138 35 68 q 52 189 35 168 q 97 210 69 210 q 178 90 118 131 q 335 49 239 49 q 494 103 431 49 q 557 250 557 157 q 545 321 557 292 q 502 374 533 350 q 447 410 471 397 q 345 457 408 431 q 242 504 282 483 q 157 558 201 525 q 71 723 71 621 q 149 890 71 825 q 349 958 228 956 q 550 903 472 961 q 596 819 596 867 q 573 752 596 771 q 519 733 550 733 q 476 847 519 806 q 348 889 433 889 q 208 851 263 889 q 154 742 154 813 q 232 607 154 658 q 374 533 293 567 q 490 482 454 500 q 567 433 526 464 q 640 269 640 379 m 347 1122 l 163 999 q 126 1035 142 1008 l 307 1200 q 388 1200 347 1211 l 568 1035 q 532 999 553 1008 l 347 1122 z "},"ŝ":{"ha":533,"x_min":32,"x_max":503,"o":"m 129 524 q 128 499 129 524 q 169 447 128 475 q 288 390 211 419 q 390 349 364 361 q 447 314 415 336 q 502 192 504 274 q 430 44 500 111 q 242 -21 360 -22 q 94 16 158 -18 q 32 106 31 50 q 50 150 33 133 q 90 165 67 167 q 149 77 103 111 q 263 42 194 43 q 378 75 331 40 q 428 165 426 110 q 397 247 429 219 q 301 297 365 274 q 217 328 238 321 q 159 356 197 336 q 103 393 121 375 q 57 504 57 442 q 129 644 58 592 q 281 694 200 696 q 417 665 363 693 q 471 585 472 636 q 446 536 469 550 q 399 524 422 522 q 371 601 400 572 q 279 632 342 631 q 174 603 217 633 q 129 524 131 572 m 268 858 l 83 735 q 47 771 63 744 l 228 936 q 308 936 268 947 l 489 771 q 453 735 474 744 l 268 858 z "},"Ş":{"ha":675,"x_min":35,"x_max":640,"o":"m 35 138 q 52 189 35 168 q 97 210 69 210 q 178 90 118 131 q 335 49 239 49 q 494 103 431 49 q 557 250 557 157 q 545 321 557 292 q 502 374 533 350 q 447 410 471 397 q 345 457 408 431 q 242 504 282 483 q 157 558 201 525 q 71 723 71 621 q 149 890 71 825 q 349 958 228 956 q 550 903 472 961 q 596 819 596 867 q 573 752 596 771 q 519 733 550 733 q 476 847 519 806 q 348 889 433 889 q 208 851 263 889 q 154 742 154 813 q 232 607 154 658 q 374 533 293 567 q 490 482 454 500 q 567 433 526 464 q 640 271 640 379 q 553 74 640 163 q 325 -21 465 -15 l 317 -57 q 401 -83 374 -57 q 428 -157 428 -110 q 392 -233 428 -204 q 297 -262 357 -262 q 200 -224 236 -262 q 217 -183 196 -197 q 288 -210 250 -210 q 356 -156 356 -210 q 253 -107 356 -107 l 276 -19 q 106 31 178 -12 q 35 138 35 74 z "},"ş":{"ha":533,"x_min":32,"x_max":503,"o":"m 274 -57 q 385 -157 385 -57 q 349 -233 385 -204 q 253 -262 314 -262 q 157 -224 193 -262 q 174 -183 153 -197 q 244 -210 207 -210 q 313 -156 313 -210 q 210 -107 313 -107 l 232 -21 q 90 17 150 -17 q 32 106 31 51 q 50 150 33 133 q 90 165 67 167 q 149 77 103 111 q 263 42 194 43 q 378 75 331 40 q 428 165 426 110 q 397 247 429 219 q 301 297 365 274 q 217 328 238 321 q 159 356 197 336 q 103 393 121 375 q 57 504 57 442 q 129 644 58 592 q 281 694 200 696 q 417 665 363 693 q 471 585 472 636 q 446 536 469 550 q 399 524 422 522 q 371 601 400 572 q 279 632 342 631 q 174 603 217 633 q 129 524 131 572 q 169 447 128 475 q 288 390 211 419 q 390 349 364 361 q 447 314 415 336 q 502 197 504 274 q 442 56 500 119 q 282 -19 383 -8 l 274 -57 z "},"Š":{"ha":675,"x_min":35,"x_max":640,"o":"m 640 269 q 640 214 640 269 q 547 69 640 158 q 307 -21 454 -21 q 117 24 200 -21 q 35 138 35 68 q 52 189 35 168 q 97 210 69 210 q 178 90 118 131 q 335 49 239 49 q 494 103 431 49 q 557 250 557 157 q 545 321 557 292 q 502 374 533 350 q 447 410 471 397 q 345 457 408 431 q 242 504 282 483 q 157 558 201 525 q 71 723 71 621 q 149 890 71 825 q 349 958 228 956 q 550 903 472 961 q 596 819 596 867 q 573 752 596 771 q 519 733 550 733 q 476 847 519 806 q 348 889 433 889 q 208 851 263 889 q 154 742 154 813 q 232 607 154 658 q 374 533 293 567 q 490 482 454 500 q 567 433 526 464 q 640 269 640 379 m 568 1185 l 388 1019 q 307 1019 347 1008 l 126 1185 q 163 1221 142 1211 l 347 1097 l 532 1221 q 568 1185 553 1211 z "},"š":{"ha":533,"x_min":32,"x_max":503,"o":"m 129 524 q 128 499 129 524 q 169 447 128 475 q 288 390 211 419 q 390 349 364 361 q 447 314 415 336 q 502 192 504 274 q 430 44 500 111 q 242 -21 360 -22 q 94 16 158 -18 q 32 106 31 50 q 50 150 33 133 q 90 165 67 167 q 149 77 103 111 q 263 42 194 43 q 378 75 331 40 q 428 165 426 110 q 397 247 429 219 q 301 297 365 274 q 217 328 238 321 q 159 356 197 336 q 103 393 121 375 q 57 504 57 442 q 129 644 58 592 q 281 694 200 696 q 417 665 363 693 q 471 585 472 636 q 446 536 469 550 q 399 524 422 522 q 371 601 400 572 q 279 632 342 631 q 174 603 217 633 q 129 524 131 572 m 489 921 l 308 756 q 228 756 268 744 l 47 921 q 83 957 63 947 l 268 833 l 453 957 q 489 921 474 947 z "},"Ţ":{"ha":825,"x_min":28,"x_max":797,"o":"m 28 938 l 797 938 l 797 778 q 743 746 797 740 l 735 875 l 456 875 l 456 63 l 558 54 q 526 0 564 0 l 267 0 q 267 11 267 0 q 285 50 267 42 q 306 56 293 54 l 375 60 l 375 875 l 90 875 l 82 746 q 28 778 28 740 l 28 938 m 364 -111 q 364 -98 364 -111 q 381 -67 364 -85 q 427 -49 399 -49 q 474 -67 456 -49 q 492 -128 492 -85 q 460 -223 492 -172 q 392 -289 429 -274 q 376 -283 386 -292 q 367 -268 367 -274 q 418 -179 403 -243 q 378 -157 393 -176 q 364 -111 364 -137 z "},"ţ":{"ha":507,"x_min":36,"x_max":486,"o":"m 210 618 l 210 203 q 227 83 210 119 q 295 47 244 47 q 378 58 346 47 q 463 108 411 68 q 486 76 486 100 q 421 9 486 40 q 297 -22 356 -22 q 170 31 207 -22 q 133 186 133 83 l 133 618 l 36 618 q 68 674 31 674 l 133 674 l 133 835 l 210 861 l 210 674 l 472 674 q 464 618 474 651 l 210 618 m 268 -107 q 268 -94 268 -107 q 285 -62 268 -81 q 331 -44 303 -44 q 378 -62 360 -44 q 396 -124 396 -81 q 365 -219 396 -168 q 296 -285 333 -269 q 281 -278 290 -287 q 271 -264 271 -269 q 322 -175 307 -239 q 283 -153 297 -172 q 268 -107 268 -133 z "},"Ť":{"ha":825,"x_min":28,"x_max":797,"o":"m 28 938 l 797 938 l 797 778 q 743 746 797 740 l 735 875 l 456 875 l 456 63 l 558 54 q 526 0 564 0 l 267 0 q 267 11 267 0 q 285 50 267 42 q 306 56 293 54 l 375 60 l 375 875 l 90 875 l 82 746 q 28 778 28 740 l 28 938 m 639 1185 l 458 1019 q 378 1019 418 1008 l 197 1185 q 233 1221 213 1211 l 418 1097 l 603 1221 q 639 1185 624 1211 z "},"ť":{"ha":507,"x_min":36,"x_max":486,"o":"m 210 618 l 210 203 q 227 83 210 119 q 295 47 244 47 q 378 58 346 47 q 463 108 411 68 q 486 76 486 100 q 421 9 486 40 q 297 -22 356 -22 q 170 31 207 -22 q 133 186 133 83 l 133 618 l 36 618 q 68 674 31 674 l 133 674 l 133 835 l 210 861 l 210 674 l 472 674 q 464 618 474 651 l 210 618 m 289 975 q 340 989 308 989 q 381 972 371 989 q 310 724 388 814 q 288 728 303 719 q 274 743 274 736 q 298 862 293 792 q 289 975 303 932 z "},"Ŧ":{"ha":825,"x_min":28,"x_max":797,"o":"m 28 938 l 797 938 l 797 778 q 743 746 797 740 l 735 875 l 456 875 l 456 63 l 558 54 q 526 0 564 0 l 267 0 q 267 11 267 0 q 285 50 267 42 q 306 56 293 54 l 375 60 l 375 875 l 90 875 l 82 746 q 28 778 28 740 l 28 938 m 594 1140 l 594 1067 l 240 1067 l 240 1140 l 594 1140 z "},"ŧ":{"ha":556,"x_min":36,"x_max":486,"o":"m 210 383 l 210 203 q 227 83 210 119 q 295 47 244 47 q 378 58 346 47 q 463 108 411 68 q 486 76 486 100 q 421 9 486 40 q 297 -22 356 -22 q 170 31 207 -22 q 133 186 133 83 l 133 383 l 63 383 l 63 446 l 133 446 l 133 618 l 36 618 q 68 674 31 674 l 133 674 l 133 835 l 210 861 l 210 674 l 472 674 q 464 618 474 651 l 210 618 l 210 446 l 476 446 l 476 383 l 210 383 z "},"Ũ":{"ha":889,"x_min":36,"x_max":854,"o":"m 614 938 l 854 938 q 854 928 854 938 q 836 888 854 897 q 815 882 828 883 l 749 878 l 749 339 q 671 76 749 174 q 426 -21 593 -21 q 138 317 138 -21 l 138 875 l 36 883 q 68 938 31 938 l 326 938 q 326 928 326 938 q 308 888 326 897 q 288 882 300 883 l 218 878 l 217 329 q 436 42 217 42 q 619 113 554 42 q 683 328 683 183 l 683 875 l 582 883 q 614 938 576 938 m 218 1067 q 273 1162 233 1129 q 357 1194 313 1194 q 456 1158 401 1194 q 546 1122 511 1122 q 603 1142 581 1122 q 633 1194 625 1163 l 675 1182 q 627 1088 664 1125 q 538 1050 590 1050 q 427 1085 485 1050 q 339 1119 369 1119 q 260 1051 283 1119 l 218 1067 z "},"ũ":{"ha":783,"x_min":25,"x_max":754,"o":"m 201 793 l 161 811 q 222 901 181 871 q 308 928 264 931 q 405 885 353 925 q 493 843 457 846 q 583 908 561 839 l 625 893 q 569 803 608 838 q 478 772 531 768 q 370 814 425 775 q 285 855 315 853 q 233 838 254 857 q 201 793 213 819 m 364 -21 q 201 46 271 -21 q 131 258 131 113 l 131 617 l 25 625 q 57 674 19 674 l 207 674 l 207 271 q 252 108 207 164 q 387 51 297 51 q 572 135 476 51 l 572 617 l 465 625 q 497 674 461 674 l 649 674 l 649 75 l 726 67 q 754 14 754 64 l 594 1 l 579 74 q 364 -21 488 -21 z "},"Ū":{"ha":889,"x_min":36,"x_max":854,"o":"m 269 1140 l 624 1140 l 624 1067 l 269 1067 l 269 1140 m 614 938 l 854 938 q 854 928 854 938 q 836 888 854 897 q 815 882 828 883 l 749 878 l 749 339 q 671 76 749 174 q 426 -21 593 -21 q 138 317 138 -21 l 138 875 l 36 883 q 68 938 31 938 l 326 938 q 326 928 326 938 q 308 888 326 897 q 288 882 300 883 l 218 878 l 217 329 q 436 42 217 42 q 619 113 554 42 q 683 328 683 183 l 683 875 l 582 883 q 614 938 576 938 z "},"ū":{"ha":783,"x_min":25,"x_max":754,"o":"m 215 876 l 569 876 l 569 803 l 215 803 l 215 876 m 364 -21 q 201 46 271 -21 q 131 258 131 113 l 131 617 l 25 625 q 57 674 19 674 l 207 674 l 207 271 q 252 108 207 164 q 387 51 297 51 q 572 135 476 51 l 572 617 l 465 625 q 497 674 461 674 l 649 674 l 649 75 l 726 67 q 754 14 754 64 l 594 1 l 579 74 q 364 -21 488 -21 z "},"Ŭ":{"ha":889,"x_min":36,"x_max":854,"o":"m 614 938 l 854 938 q 854 928 854 938 q 836 888 854 897 q 815 882 828 883 l 749 878 l 749 339 q 671 76 749 174 q 426 -21 593 -21 q 138 317 138 -21 l 138 875 l 36 883 q 68 938 31 938 l 326 938 q 326 928 326 938 q 308 888 326 897 q 288 882 300 883 l 218 878 l 217 329 q 436 42 217 42 q 619 113 554 42 q 683 328 683 183 l 683 875 l 582 883 q 614 938 576 938 m 449 1101 q 613 1208 572 1101 l 658 1190 q 594 1072 649 1125 q 447 1019 539 1019 q 300 1072 354 1019 q 236 1190 246 1125 l 282 1211 q 339 1136 297 1171 q 449 1101 381 1101 z "},"ŭ":{"ha":783,"x_min":25,"x_max":754,"o":"m 394 817 q 558 924 518 817 l 604 906 q 540 788 594 840 q 392 735 485 735 q 246 788 300 735 q 182 906 192 840 l 228 926 q 285 851 243 886 q 394 817 326 817 m 364 -21 q 201 46 271 -21 q 131 258 131 113 l 131 617 l 25 625 q 57 674 19 674 l 207 674 l 207 271 q 252 108 207 164 q 387 51 297 51 q 572 135 476 51 l 572 617 l 465 625 q 497 674 461 674 l 649 674 l 649 75 l 726 67 q 754 14 754 64 l 594 1 l 579 74 q 364 -21 488 -21 z "},"Ů":{"ha":889,"x_min":36,"x_max":854,"o":"m 497 1183 q 488 1191 497 1183 q 450 1200 479 1200 q 403 1183 421 1200 q 386 1136 386 1165 q 403 1090 386 1107 q 450 1072 421 1072 q 497 1090 479 1072 q 514 1136 514 1107 q 497 1183 514 1165 m 325 1135 q 325 1162 325 1135 q 360 1222 325 1189 q 452 1256 396 1256 q 542 1224 508 1256 q 574 1138 575 1192 q 539 1050 574 1083 q 448 1017 504 1017 q 358 1049 392 1017 q 325 1135 325 1081 m 614 938 l 854 938 l 854 928 q 836 888 854 897 q 815 882 828 883 l 749 878 l 749 339 q 671 76 749 174 q 426 -21 593 -21 q 138 317 138 -21 l 138 875 l 36 883 q 68 938 31 938 l 326 938 l 326 928 q 308 888 326 897 q 288 882 300 883 l 218 878 l 217 329 q 436 42 217 42 q 619 113 554 42 q 683 328 683 183 l 683 875 l 582 883 q 614 938 576 938 z "},"ů":{"ha":783,"x_min":25,"x_max":754,"o":"m 442 919 q 434 927 442 919 q 396 936 425 936 q 349 919 367 936 q 332 872 332 901 q 349 826 332 843 q 396 808 367 808 q 442 826 425 808 q 460 872 460 843 q 442 919 460 901 m 271 871 q 271 898 271 871 q 306 958 271 925 q 398 992 342 992 q 488 960 454 992 q 520 874 521 928 q 485 786 519 819 q 394 753 450 753 q 304 785 338 753 q 271 871 271 817 m 364 -21 q 201 46 271 -21 q 131 258 131 113 l 131 617 l 25 625 q 57 674 19 674 l 207 674 l 207 271 q 252 108 207 164 q 387 51 297 51 q 572 135 476 51 l 572 617 l 465 625 q 497 674 461 674 l 649 674 l 649 75 l 726 67 q 754 14 754 64 l 594 1 l 579 74 q 364 -21 488 -21 z "},"Ű":{"ha":889,"x_min":36,"x_max":854,"o":"m 614 938 l 854 938 q 854 928 854 938 q 836 888 854 897 q 815 882 828 883 l 749 878 l 749 339 q 671 76 749 174 q 426 -21 593 -21 q 138 317 138 -21 l 138 875 l 36 883 q 68 938 31 938 l 326 938 q 326 928 326 938 q 308 888 326 897 q 288 882 300 883 l 218 878 l 217 329 q 436 42 217 42 q 619 113 554 42 q 683 328 683 183 l 683 875 l 582 883 q 614 938 576 938 m 558 1103 l 286 956 q 250 992 265 965 l 478 1164 q 524 1144 501 1163 q 558 1103 546 1126 m 807 1103 l 535 956 q 499 992 514 965 l 726 1164 q 772 1144 750 1163 q 807 1103 794 1126 z "},"ű":{"ha":783,"x_min":25,"x_max":824,"o":"m 364 -21 q 201 46 271 -21 q 131 258 131 113 l 131 617 l 25 625 q 57 674 19 674 l 207 674 l 207 271 q 252 108 207 164 q 387 51 297 51 q 572 135 476 51 l 572 617 l 465 625 q 497 674 461 674 l 649 674 l 649 75 l 726 67 q 754 14 754 64 l 594 1 l 579 74 q 364 -21 488 -21 m 664 849 l 392 701 q 356 738 371 711 l 583 910 q 629 890 607 908 q 664 849 651 872 m 824 828 l 551 681 q 515 717 531 690 l 743 889 q 789 869 767 888 q 824 828 811 851 z "},"Ų":{"ha":889,"x_min":36,"x_max":854,"o":"m 614 938 l 854 938 q 854 928 854 938 q 836 888 854 897 q 815 882 828 883 l 749 878 l 749 339 q 547 -4 749 60 q 436 -117 436 -43 q 510 -182 436 -182 q 590 -150 547 -182 q 599 -168 596 -154 q 600 -190 603 -182 q 483 -239 565 -239 q 397 -211 432 -239 q 361 -125 361 -183 q 421 -21 361 -67 q 138 317 138 -17 l 138 875 l 36 883 q 68 938 31 938 l 326 938 l 326 928 q 308 888 326 897 q 288 882 300 883 l 218 878 l 217 329 q 436 42 217 42 q 619 113 554 42 q 683 328 683 183 l 683 875 l 582 883 q 614 938 576 938 z "},"ų":{"ha":783,"x_min":25,"x_max":808,"o":"m 733 13 q 644 -92 644 -26 q 718 -157 644 -157 q 799 -125 756 -157 q 808 -143 804 -129 q 808 -165 811 -157 q 761 -200 793 -186 q 685 -214 729 -214 q 605 -186 640 -214 q 569 -100 569 -158 q 629 4 569 -42 l 594 1 l 579 74 q 364 -21 488 -21 q 201 46 271 -21 q 131 258 131 113 l 131 617 l 25 625 q 57 674 19 674 l 207 674 l 207 271 q 252 108 207 164 q 387 51 297 51 q 572 135 476 51 l 572 617 l 465 625 q 497 674 461 674 l 649 674 l 649 75 l 726 67 q 754 22 754 64 l 756 21 l 754 21 l 754 14 l 733 13 z "},"Ŵ":{"ha":1303,"x_min":8,"x_max":1296,"o":"m 1083 938 l 1296 938 q 1296 928 1296 938 q 1278 888 1296 897 q 1232 879 1269 883 l 943 0 l 878 0 l 654 710 l 404 0 l 344 0 l 82 875 l 8 883 q 40 938 3 938 l 278 938 l 278 928 q 260 888 278 897 q 174 878 250 883 l 383 131 l 629 856 l 701 856 l 918 126 l 1154 875 l 1051 883 q 1083 938 1046 938 m 668 1122 l 483 999 q 447 1035 463 1008 l 628 1200 q 708 1200 668 1211 l 889 1035 q 853 999 874 1008 l 668 1122 z "},"ŵ":{"ha":968,"x_min":7,"x_max":961,"o":"m 788 674 l 961 674 q 961 656 961 674 q 951 635 961 644 q 922 624 942 625 l 918 624 l 689 0 l 640 0 l 485 447 l 317 0 l 268 0 l 60 617 l 7 625 q 36 674 3 674 l 244 674 l 244 664 q 226 628 244 636 q 146 619 217 625 l 301 101 l 483 617 l 513 617 l 675 108 l 842 617 l 840 617 l 756 625 q 788 674 750 674 m 507 858 l 322 735 q 286 771 301 744 l 467 936 q 547 936 507 947 l 728 771 q 692 735 713 744 l 507 858 z "},"Ŷ":{"ha":806,"x_min":8,"x_max":799,"o":"m 593 940 l 799 940 q 799 931 799 940 q 760 885 799 889 l 732 881 l 731 881 l 450 378 l 450 63 l 553 54 q 521 0 558 0 l 258 0 l 258 11 q 276 50 258 42 q 297 56 285 54 l 367 60 l 367 378 l 83 878 l 8 886 q 40 940 3 940 l 281 940 l 281 931 q 263 890 281 900 q 242 885 254 886 l 175 881 l 422 440 l 657 878 l 561 886 q 593 940 556 940 m 415 1122 l 231 999 q 194 1035 210 1008 l 375 1200 q 456 1200 415 1211 l 636 1035 q 600 999 621 1008 l 415 1122 z "},"ŷ":{"ha":672,"x_min":8,"x_max":667,"o":"m 488 674 l 667 674 q 667 664 665 669 q 666 651 668 658 q 661 639 664 644 q 611 622 654 626 l 367 17 q 242 -232 293 -165 q 142 -299 192 -299 q 71 -278 93 -299 q 49 -232 49 -258 q 63 -190 49 -206 q 93 -174 76 -174 q 117 -176 110 -174 q 150 -226 106 -226 q 314 26 210 -226 l 75 617 l 8 625 q 40 674 3 674 l 260 674 l 260 664 q 242 628 260 636 q 161 619 232 625 l 349 124 l 539 617 l 456 625 q 488 674 450 674 m 338 858 l 153 735 q 117 771 132 744 l 297 936 q 378 936 338 947 l 558 771 q 522 735 543 744 l 338 858 z "},"Ÿ":{"ha":806,"x_min":8,"x_max":799,"o":"m 593 940 l 799 940 q 799 931 799 940 q 760 885 799 889 l 732 881 l 731 881 l 450 378 l 450 63 l 553 54 q 521 0 558 0 l 258 0 l 258 11 q 276 50 258 42 q 297 56 285 54 l 367 60 l 367 378 l 83 878 l 8 886 q 40 940 3 940 l 281 940 l 281 931 q 263 890 281 900 q 242 885 254 886 l 175 881 l 422 440 l 657 878 l 561 886 q 593 940 556 940 m 371 1106 q 371 1093 371 1106 q 352 1060 371 1079 q 306 1042 333 1042 q 260 1060 279 1042 q 240 1106 240 1079 q 260 1153 240 1133 q 306 1172 279 1172 q 352 1153 333 1172 q 371 1106 371 1133 m 590 1106 q 590 1093 590 1106 q 572 1060 590 1079 q 525 1042 553 1042 q 478 1061 497 1042 q 460 1107 460 1081 q 478 1153 460 1133 q 525 1172 497 1172 q 572 1153 553 1172 q 590 1106 590 1133 z "},"Ź":{"ha":719,"x_min":32,"x_max":682,"o":"m 681 0 l 46 0 q 32 29 43 4 l 569 886 l 165 874 l 147 747 q 127 710 143 719 q 93 704 111 700 l 93 951 l 668 951 q 682 922 674 942 l 143 63 l 607 75 l 625 213 q 645 250 629 240 q 681 256 661 260 l 681 0 m 596 1160 l 324 1013 q 288 1049 303 1022 l 515 1221 q 561 1201 539 1219 q 596 1160 583 1183 z "},"ź":{"ha":539,"x_min":21,"x_max":518,"o":"m 72 674 l 503 674 q 517 643 511 661 l 118 54 l 457 60 l 464 140 q 477 170 465 158 q 500 182 489 182 q 518 179 511 182 l 518 0 l 33 0 q 21 31 25 13 l 424 625 l 132 618 l 128 539 q 115 509 126 521 q 91 497 103 497 q 72 500 79 497 l 72 674 m 492 882 l 219 735 q 183 771 199 744 l 411 943 q 457 924 435 942 q 492 882 479 906 z "},"Ż":{"ha":719,"x_min":32,"x_max":682,"o":"m 681 0 l 46 0 q 32 29 43 4 l 569 886 l 165 874 l 147 747 q 127 710 143 719 q 93 704 111 700 l 93 951 l 668 951 q 682 922 674 942 l 143 63 l 607 75 l 625 213 q 645 250 629 240 q 681 256 661 260 l 681 0 m 438 1123 q 430 1115 438 1123 q 394 1107 422 1107 q 351 1123 367 1107 q 335 1167 335 1139 q 351 1210 335 1194 q 394 1226 367 1226 q 438 1210 422 1226 q 454 1167 454 1194 q 438 1123 454 1139 z "},"ż":{"ha":539,"x_min":21,"x_max":518,"o":"m 333 859 q 325 851 333 859 q 290 843 317 843 q 247 859 264 843 q 231 903 231 875 q 247 947 231 931 q 290 963 264 963 q 333 947 317 963 q 350 903 350 931 q 333 859 350 875 m 72 674 l 503 674 q 517 643 511 661 l 118 54 l 457 60 l 464 140 q 477 170 465 158 q 500 182 489 182 q 518 179 511 182 l 518 0 l 33 0 q 21 31 25 13 l 424 625 l 132 618 l 128 539 q 115 509 126 521 q 91 497 103 497 q 72 500 79 497 l 72 674 z "},"Ž":{"ha":719,"x_min":32,"x_max":682,"o":"m 681 0 l 46 0 q 32 29 43 4 l 569 886 l 165 874 l 147 747 q 127 710 143 719 q 93 704 111 700 l 93 951 l 668 951 q 682 922 674 942 l 143 63 l 607 75 l 625 213 q 645 250 629 240 q 681 256 661 260 l 681 0 m 618 1185 l 438 1019 q 357 1019 397 1008 l 176 1185 q 213 1221 192 1211 l 397 1097 l 582 1221 q 618 1185 603 1211 z "},"ž":{"ha":539,"x_min":21,"x_max":518,"o":"m 477 170 q 483 176 477 170 q 500 182 489 182 q 518 179 511 182 l 518 0 l 33 0 q 21 31 25 13 l 424 625 l 132 618 l 128 539 q 115 509 126 521 q 91 497 103 497 q 72 500 79 497 l 72 674 l 503 674 q 517 643 511 661 l 118 54 l 457 60 l 464 140 q 477 170 465 158 m 514 921 l 333 756 q 253 756 293 744 l 72 921 q 108 957 88 947 l 293 833 l 478 957 q 514 921 499 947 z "},"ſ":{"ha":419,"x_min":68,"x_max":461,"o":"m 365 49 q 365 31 365 38 q 364 17 365 24 q 358 8 363 10 q 333 0 346 0 l 68 0 l 68 10 q 86 44 68 38 q 169 54 96 49 l 169 618 l 71 618 q 70 629 71 621 q 70 642 69 638 q 72 653 71 646 q 76 664 74 660 q 103 674 83 674 l 169 674 l 169 729 q 217 919 169 854 q 357 985 265 985 q 431 967 400 985 q 461 919 461 949 q 446 874 461 889 q 407 860 431 860 q 385 910 406 892 q 336 929 364 929 q 267 891 289 929 q 246 768 246 853 l 246 57 l 365 49 z "},"ƒ":{"ha":556,"x_min":68,"x_max":522,"o":"m 413 972 q 490 955 457 972 q 522 908 522 938 q 507 863 522 878 q 468 849 492 849 q 453 897 465 882 q 410 911 440 911 q 263 700 293 911 l 258 671 l 393 671 l 386 617 l 250 617 l 138 -158 l 68 -154 l 178 617 l 88 617 l 94 671 l 185 671 l 193 726 q 277 919 214 867 q 413 972 340 972 z "},"Ș":{"ha":675,"x_min":35,"x_max":640,"o":"m 640 269 q 640 214 640 269 q 547 69 640 158 q 307 -21 454 -21 q 117 24 200 -21 q 35 138 35 68 q 52 189 35 168 q 97 210 69 210 q 178 90 118 131 q 335 49 239 49 q 494 103 431 49 q 557 250 557 157 q 545 321 557 292 q 502 374 533 350 q 447 410 471 397 q 345 457 408 431 q 242 504 282 483 q 157 558 201 525 q 71 723 71 621 q 149 890 71 825 q 349 958 228 956 q 550 903 472 961 q 596 819 596 867 q 573 752 596 771 q 519 733 550 733 q 476 847 519 806 q 348 889 433 889 q 208 851 263 889 q 154 742 154 813 q 232 607 154 658 q 374 533 293 567 q 490 482 454 500 q 567 433 526 464 q 640 269 640 379 m 272 -111 q 272 -98 272 -111 q 290 -67 272 -85 q 335 -49 307 -49 q 382 -67 364 -49 q 400 -128 400 -85 q 369 -223 400 -172 q 300 -289 338 -274 q 285 -283 294 -292 q 275 -268 275 -274 q 326 -179 311 -243 q 287 -157 301 -176 q 272 -111 272 -137 z "},"ș":{"ha":533,"x_min":32,"x_max":503,"o":"m 129 524 q 128 499 129 524 q 169 447 128 475 q 288 390 211 419 q 390 349 364 361 q 447 314 415 336 q 502 192 504 274 q 430 44 500 111 q 242 -21 360 -22 q 94 16 158 -18 q 32 106 31 50 q 50 150 33 133 q 90 165 67 167 q 149 77 103 111 q 263 42 194 43 q 378 75 331 40 q 428 165 426 110 q 397 247 429 219 q 301 297 365 274 q 217 328 238 321 q 159 356 197 336 q 103 393 121 375 q 57 504 57 442 q 129 644 58 592 q 281 694 200 696 q 417 665 363 693 q 471 585 472 636 q 446 536 469 550 q 399 524 422 522 q 371 601 400 572 q 279 632 342 631 q 174 603 217 633 q 129 524 131 572 m 235 -107 q 235 -94 235 -107 q 252 -62 235 -81 q 298 -44 269 -44 q 344 -62 326 -44 q 363 -124 363 -81 q 331 -219 363 -168 q 263 -285 300 -269 q 247 -278 257 -287 q 238 -264 238 -269 q 289 -175 274 -239 q 249 -153 264 -172 q 235 -107 235 -133 z "},"Ț":{"ha":825,"x_min":28,"x_max":797,"o":"m 28 938 l 797 938 l 797 778 q 743 746 797 740 l 735 875 l 456 875 l 456 63 l 558 54 q 526 0 564 0 l 267 0 q 267 11 267 0 q 285 50 267 42 q 306 56 293 54 l 375 60 l 375 875 l 90 875 l 82 746 q 28 778 28 740 l 28 938 m 364 -111 q 364 -98 364 -111 q 381 -67 364 -85 q 427 -49 399 -49 q 474 -67 456 -49 q 492 -128 492 -85 q 460 -223 492 -172 q 392 -289 429 -274 q 376 -283 386 -292 q 367 -268 367 -274 q 418 -179 403 -243 q 378 -157 393 -176 q 364 -111 364 -137 z "},"ț":{"ha":507,"x_min":36,"x_max":486,"o":"m 210 618 l 210 203 q 227 83 210 119 q 295 47 244 47 q 378 58 346 47 q 463 108 411 68 q 486 76 486 100 q 421 9 486 40 q 297 -22 356 -22 q 170 31 207 -22 q 133 186 133 83 l 133 618 l 36 618 q 68 674 31 674 l 133 674 l 133 835 l 210 861 l 210 674 l 472 674 q 464 618 474 651 l 210 618 m 268 -107 q 268 -94 268 -107 q 285 -62 268 -81 q 331 -44 303 -44 q 378 -62 360 -44 q 396 -124 396 -81 q 365 -219 396 -168 q 296 -285 333 -269 q 281 -278 290 -287 q 271 -264 271 -269 q 322 -175 307 -239 q 283 -153 297 -172 q 268 -107 268 -133 z "},"ˆ":{"ha":833,"x_min":153,"x_max":594,"o":"m 414 936 l 594 771 q 558 735 579 744 l 374 858 l 189 735 q 153 771 168 744 l 333 936 q 414 936 374 947 z "},"ˇ":{"ha":833,"x_min":153,"x_max":594,"o":"m 374 833 l 558 957 q 594 921 579 947 l 414 756 q 333 756 374 744 l 153 921 q 189 957 168 947 l 374 833 z "},"ˉ":{"ha":833,"x_min":181,"x_max":535,"o":"m 181 876 l 535 876 l 535 803 l 181 803 l 181 876 z "},"˘":{"ha":833,"x_min":186,"x_max":608,"o":"m 399 817 q 563 924 522 817 l 608 906 q 544 788 599 840 q 397 735 489 735 q 250 788 304 735 q 186 906 196 840 l 232 926 q 289 851 247 886 q 399 817 331 817 z "},"˙":{"ha":833,"x_min":161,"x_max":281,"o":"m 264 859 q 256 851 264 859 q 221 843 247 843 q 178 859 194 843 q 161 903 161 875 q 178 947 161 931 q 221 963 194 963 q 264 947 247 963 q 281 903 281 931 q 264 859 281 875 z "},"˚":{"ha":833,"x_min":104,"x_max":354,"o":"m 276 919 q 267 927 276 919 q 229 936 258 936 q 183 919 200 936 q 165 872 165 901 q 183 826 165 843 q 229 808 200 808 q 276 826 258 808 q 293 872 293 843 q 276 919 293 901 m 104 871 q 104 898 104 871 q 140 958 104 925 q 231 992 175 992 q 321 960 288 992 q 353 874 354 928 q 318 786 353 819 q 227 753 283 753 q 138 785 171 753 q 104 871 104 817 z "},"˛":{"ha":833,"x_min":236,"x_max":475,"o":"m 311 -106 q 385 -171 311 -171 q 465 -139 422 -171 q 474 -157 471 -143 q 475 -179 478 -171 q 428 -214 460 -200 q 351 -228 396 -228 q 272 -200 307 -228 q 236 -117 236 -172 q 282 -21 236 -62 q 396 40 328 21 l 422 7 q 311 -106 311 -32 z "},"˜":{"ha":833,"x_min":119,"x_max":583,"o":"m 160 793 l 119 811 q 181 901 139 871 q 267 928 222 931 q 363 885 311 925 q 451 843 415 846 q 542 908 519 839 l 583 893 q 528 803 567 838 q 436 772 489 768 q 328 814 383 775 q 243 855 274 853 q 192 838 213 857 q 160 793 171 819 z "},"˝":{"ha":833,"x_min":342,"x_max":810,"o":"m 650 849 l 378 701 q 342 738 357 711 l 569 910 q 615 890 593 908 q 650 849 638 872 m 810 828 l 538 681 q 501 717 517 690 l 729 889 q 775 869 753 888 q 810 828 797 851 z "},"̦":{"ha":0,"x_min":-449,"x_max":-321,"o":"m -449 -107 q -449 -94 -449 -107 q -431 -62 -449 -81 q -385 -44 -414 -44 q -339 -62 -357 -44 q -321 -124 -321 -81 q -352 -219 -321 -168 q -421 -285 -383 -269 q -436 -278 -426 -287 q -446 -264 -446 -269 q -394 -175 -410 -239 q -434 -153 -419 -172 q -449 -107 -449 -133 z "},"π":{"ha":792,"x_min":15,"x_max":778,"o":"m 171 0 l 197 603 l 156 603 q 83 592 107 603 q 40 550 58 582 l 15 568 q 55 638 15 601 q 163 674 94 674 l 644 674 q 751 722 708 674 l 778 710 q 736 638 769 671 q 638 600 703 604 q 632 63 632 258 l 731 51 q 640 -12 731 -12 q 573 10 593 -12 q 554 79 553 32 q 564 600 557 185 l 272 603 l 249 0 l 171 0 z "},"ँ":{"ha":0,"x_min":-493,"x_max":58,"o":"m -292 1157 q -292 1163 -292 1157 q -265 1191 -292 1168 q -227 1214 -237 1214 q -194 1188 -217 1214 q -172 1151 -172 1161 q -198 1117 -172 1140 q -235 1094 -224 1094 q -269 1120 -246 1094 q -292 1157 -292 1146 m 58 1076 q -49 969 24 1019 q -206 918 -122 918 q -365 960 -289 918 q -493 1071 -440 1001 q -458 1106 -483 1088 q -347 1020 -392 1043 q -246 997 -303 997 q -11 1143 -101 997 q 58 1076 32 1119 z "},"ं":{"ha":0,"x_min":-272,"x_max":-135,"o":"m -135 1048 q -135 1042 -135 1048 q -165 1010 -135 1036 q -207 983 -194 983 q -246 1014 -219 983 q -272 1056 -272 1044 q -242 1094 -272 1068 q -199 1121 -211 1121 q -161 1090 -187 1121 q -135 1048 -135 1060 z "},"ः":{"ha":424,"x_min":113,"x_max":250,"o":"m 250 535 q 250 530 250 535 q 220 497 250 524 q 178 471 190 471 q 139 501 165 471 q 113 544 113 532 q 143 582 113 556 q 185 608 174 608 q 224 578 197 608 q 250 535 250 547 m 250 174 q 250 168 250 174 q 220 137 250 163 q 178 111 190 111 q 139 140 165 111 q 113 183 113 169 q 142 222 113 196 q 185 247 172 247 q 224 217 197 247 q 250 174 250 186 z "},"अ":{"ha":981,"x_min":13,"x_max":1015,"o":"m 1015 764 l 814 764 l 814 -28 q 763 -15 785 -28 q 740 11 740 -1 l 740 349 q 600 326 679 326 l 586 326 q 588 301 588 318 q 532 163 588 214 q 386 113 476 113 q 13 438 161 113 q 61 463 33 460 q 199 251 131 322 q 364 179 268 179 q 474 217 435 179 q 513 317 513 254 q 471 415 513 379 q 373 451 429 451 q 276 433 317 451 q 243 499 254 458 q 405 581 363 533 q 447 682 447 628 q 418 763 447 736 q 340 790 389 790 q 167 707 250 790 q 118 776 132 738 q 310 854 214 854 q 461 799 406 854 q 517 671 517 743 q 422 503 517 568 q 574 381 535 474 q 740 440 681 400 l 740 764 l 593 764 q 572 833 572 790 l 994 833 q 1015 764 1015 808 z "},"आ":{"ha":1361,"x_min":13,"x_max":1396,"o":"m 1396 764 l 1194 764 l 1194 -28 q 1143 -15 1165 -28 q 1121 11 1121 -1 l 1121 764 l 814 764 l 814 -28 q 763 -15 785 -28 q 740 11 740 -1 l 740 349 q 600 326 679 326 l 586 326 q 588 301 588 318 q 532 163 588 214 q 386 113 476 113 q 13 438 161 113 q 61 463 33 460 q 199 251 131 322 q 364 179 268 179 q 474 217 435 179 q 513 317 513 254 q 471 415 513 379 q 373 451 429 451 q 276 433 317 451 q 243 499 254 458 q 405 581 363 533 q 447 682 447 628 q 418 763 447 736 q 340 790 389 790 q 167 707 250 790 q 118 776 132 738 q 310 854 214 854 q 461 799 406 854 q 517 671 517 743 q 422 503 517 568 q 574 381 535 474 q 740 440 681 400 l 740 764 l 593 764 q 572 833 572 790 l 1375 833 q 1396 764 1396 808 z "},"इ":{"ha":654,"x_min":-35,"x_max":689,"o":"m 474 554 l 326 558 q 189 535 224 558 q 154 463 154 513 q 175 390 154 414 q 210 365 196 365 q 319 385 224 365 q 449 406 414 406 q 548 353 511 406 q 585 236 585 300 q 508 96 585 146 q 321 46 431 46 q 288 47 300 46 q 414 -126 379 -54 q 346 -181 385 -165 q 213 60 281 -31 q 78 158 78 93 q 100 210 78 189 q 149 231 122 231 q 247 129 199 231 q 314 121 275 121 q 462 156 396 121 q 528 262 528 192 q 461 332 528 332 q 351 313 431 332 q 247 293 272 293 q 130 357 179 293 q 81 500 81 421 q 267 629 81 629 l 439 629 l 439 764 l -14 764 q -35 833 -35 790 l 668 833 q 689 764 689 808 l 513 764 l 513 599 q 498 569 513 585 q 474 554 483 554 z "},"ई":{"ha":654,"x_min":-35,"x_max":690,"o":"m 474 554 l 326 558 q 189 535 224 558 q 154 463 154 513 q 175 390 154 414 q 210 365 196 365 q 319 385 224 365 q 449 406 414 406 q 548 353 511 406 q 585 236 585 300 q 508 96 585 146 q 321 46 431 46 q 288 47 300 46 q 414 -126 379 -54 q 346 -181 385 -165 q 213 60 281 -31 q 78 158 78 93 q 100 210 78 189 q 149 231 122 231 q 247 129 199 231 q 314 121 275 121 q 462 156 396 121 q 528 262 528 192 q 461 332 528 332 q 351 313 431 332 q 247 293 272 293 q 130 357 179 293 q 81 500 81 421 q 267 629 81 629 l 439 629 l 439 764 l -14 764 q -35 833 -35 790 l 443 833 q 356 931 393 872 q 318 1066 318 989 q 376 1197 318 1143 q 521 1251 435 1251 q 690 1136 642 1251 l 668 1118 q 636 1147 649 1138 q 532 1178 597 1178 q 432 1138 467 1178 q 397 1038 397 1099 q 511 833 397 932 l 668 833 q 689 764 689 808 l 513 764 l 513 599 q 498 569 513 585 q 474 554 483 554 z "},"उ":{"ha":704,"x_min":-35,"x_max":739,"o":"m 739 764 l 540 764 q 592 638 592 707 q 557 519 592 569 q 479 440 522 468 q 611 359 564 421 q 658 215 658 297 q 605 71 658 133 q 446 8 551 8 q -3 440 189 8 q 49 464 25 458 q 223 176 138 269 q 422 82 308 82 q 539 121 496 82 q 582 234 582 160 q 541 348 582 308 q 436 388 500 388 q 333 368 372 388 q 294 443 307 399 q 404 485 344 453 q 528 640 528 550 q 467 764 528 711 l -14 764 q -35 833 -35 790 l 718 833 q 739 764 739 808 z "},"ऊ":{"ha":1011,"x_min":-35,"x_max":1046,"o":"m 1046 764 l 532 764 q 583 638 583 707 q 549 519 583 569 q 471 440 514 468 q 590 374 544 424 q 769 472 667 472 q 919 404 854 472 q 985 236 985 336 q 858 14 985 114 q 796 78 818 40 q 925 271 925 163 q 886 365 925 329 q 792 401 847 401 q 632 310 704 401 q 650 221 650 269 q 597 71 650 133 q 438 8 543 8 q -11 440 181 8 q 40 464 17 458 q 215 176 129 269 q 414 82 300 82 q 531 121 488 82 q 574 234 574 160 q 533 348 574 308 q 428 388 492 388 q 325 368 364 388 q 286 443 299 399 q 396 485 336 453 q 519 640 519 550 q 458 764 519 711 l -14 764 q -35 833 -35 790 l 1025 833 q 1046 764 1046 808 z "},"ऋ":{"ha":946,"x_min":-15,"x_max":979,"o":"m 526 764 l 526 444 q 690 474 622 444 q 667 528 667 503 q 696 583 667 553 q 753 613 725 613 q 796 584 781 613 q 811 526 811 556 q 769 464 811 497 q 882 254 882 357 q 846 133 882 193 q 767 43 810 74 q 704 107 733 63 q 818 282 818 185 q 728 432 818 344 q 526 368 635 381 l 526 -28 q 475 -15 497 -28 q 453 11 453 -1 l 453 328 l 138 122 q 97 189 106 151 l 442 396 q 333 490 376 463 q 227 517 289 517 q 71 456 165 517 q 26 536 40 490 q 103 578 51 558 q 214 597 154 597 q 326 566 274 597 q 453 460 378 535 l 453 764 l 6 764 q -15 833 -15 790 l 958 833 q 979 764 979 808 l 526 764 z "},"ऌ":{"ha":929,"x_min":-40,"x_max":964,"o":"m 711 764 l 711 608 q 810 554 775 596 q 844 453 844 513 q 825 360 844 396 q 765 275 797 313 q 710 212 733 238 q 676 172 688 186 q 647 108 647 139 q 722 50 647 50 q 857 121 797 50 q 906 67 889 96 q 744 -15 840 -15 q 630 23 676 -15 q 583 121 583 61 q 621 217 583 167 q 662 263 632 231 q 699 303 692 294 q 781 465 781 394 q 685 551 781 551 q 548 476 603 551 q 478 301 493 400 q 438 324 458 308 q 411 353 417 339 q 425 413 413 374 q 358 503 401 464 q 256 543 314 543 q 160 497 199 543 q 122 383 122 451 q 358 51 122 224 q 322 7 346 28 q 46 411 46 218 q 110 563 46 510 q 250 615 174 615 q 451 475 372 615 q 638 613 518 603 l 638 764 l -19 764 q -40 833 -40 790 l 943 833 q 964 764 964 808 l 711 764 z "},"ऍ":{"ha":724,"x_min":-35,"x_max":758,"o":"m 196 764 l 196 419 q 230 292 196 335 q 382 182 264 250 q 552 81 533 99 q 590 44 571 63 q 617 8 608 25 q 636 -77 636 -33 q 615 -154 636 -121 q 549 -228 593 -187 q 496 -161 517 -203 q 553 -115 532 -143 q 574 -69 574 -86 q 571 -43 574 -51 q 560 -25 568 -35 q 544 -7 551 -15 q 522 12 536 1 q 496 30 507 22 q 464 50 485 38 q 430 70 443 63 q 391 93 417 78 q 330 129 365 108 q 266 170 294 150 q 199 231 238 190 q 125 460 125 308 l 125 764 l -14 764 q -35 833 -35 790 l 738 833 q 758 764 758 808 l 599 764 l 599 440 q 458 271 599 333 q 418 344 429 300 q 525 454 525 382 l 525 764 l 196 764 m 617 1189 q 503 1045 575 1103 q 342 988 432 988 q 186 1051 253 988 q 76 1211 119 1115 q 125 1233 104 1228 q 222 1108 175 1146 q 331 1069 268 1069 q 535 1233 469 1069 q 617 1189 574 1219 z "},"ऎ":{"ha":724,"x_min":-53,"x_max":758,"o":"m 196 764 l 196 419 q 230 292 196 335 q 382 182 264 250 q 552 81 533 99 q 590 44 571 63 q 617 8 608 25 q 636 -77 636 -33 q 615 -154 636 -121 q 549 -228 593 -187 q 496 -161 517 -203 q 553 -115 532 -143 q 574 -69 574 -86 q 571 -43 574 -51 q 560 -25 568 -35 q 544 -7 551 -15 q 522 12 536 1 q 496 30 507 22 q 464 50 485 38 q 430 70 443 63 q 391 93 417 78 q 330 129 365 108 q 266 170 294 150 q 199 231 238 190 q 125 460 125 308 l 125 764 l -14 764 q -35 833 -35 790 l 535 833 q 563 931 563 876 q 495 994 563 968 q 341 1032 428 1019 q 159 1070 254 1044 q 22 1131 64 1096 q -53 1281 -21 1167 l -11 1299 q 74 1183 35 1206 q 302 1122 114 1161 q 546 1056 490 1083 q 624 944 624 1015 q 593 833 624 894 l 738 833 q 758 764 758 808 l 599 764 l 599 440 q 458 271 599 333 q 418 344 429 300 q 525 454 525 382 l 525 764 l 196 764 z "},"ए":{"ha":724,"x_min":-35,"x_max":758,"o":"m 196 764 l 196 419 q 230 292 196 335 q 382 182 264 250 q 552 81 533 99 q 590 44 571 63 q 617 8 608 25 q 636 -77 636 -33 q 615 -154 636 -121 q 549 -228 593 -187 q 496 -161 517 -203 q 553 -115 532 -143 q 574 -69 574 -86 q 571 -43 574 -51 q 560 -25 568 -35 q 544 -7 551 -15 q 522 12 536 1 q 496 30 507 22 q 464 50 485 38 q 430 70 443 63 q 391 93 417 78 q 330 129 365 108 q 266 170 294 150 q 199 231 238 190 q 125 460 125 308 l 125 764 l -14 764 q -35 833 -35 790 l 738 833 q 758 764 758 808 l 599 764 l 599 440 q 458 271 599 333 q 418 344 429 300 q 525 454 525 382 l 525 764 l 196 764 z "},"ऐ":{"ha":775,"x_min":-10,"x_max":783,"o":"m 221 764 l 221 419 q 255 292 221 335 q 407 182 289 250 q 577 81 558 99 q 615 44 596 63 q 642 8 633 25 q 661 -77 661 -33 q 640 -154 661 -121 q 574 -228 618 -187 q 521 -161 542 -203 q 578 -115 557 -143 q 599 -69 599 -86 q 596 -43 599 -51 q 585 -25 593 -35 q 569 -7 576 -15 q 547 12 561 1 q 521 30 532 22 q 489 50 510 38 q 455 70 468 63 q 416 93 442 78 q 355 129 390 108 q 291 170 319 150 q 224 231 263 190 q 150 460 150 308 l 150 764 l 11 764 q -10 833 -10 790 l 553 833 q 419 1040 504 933 q 263 1147 333 1147 q 68 1108 168 1147 q 42 1190 47 1147 q 214 1222 114 1222 q 331 1189 272 1222 q 433 1111 390 1156 q 515 1006 475 1067 q 613 833 572 921 l 763 833 q 783 764 783 808 l 624 764 l 624 440 q 483 271 624 333 q 443 344 454 300 q 550 454 550 382 l 550 764 l 221 764 z "},"ऑ":{"ha":1306,"x_min":13,"x_max":1340,"o":"m 1340 764 l 1139 764 l 1139 -28 q 1088 -15 1110 -28 q 1065 11 1065 -1 l 1065 764 l 814 764 l 814 -28 q 763 -15 785 -28 q 740 11 740 -1 l 740 349 q 600 326 679 326 l 586 326 q 588 301 588 318 q 532 163 588 214 q 386 113 476 113 q 13 438 161 113 q 61 463 33 460 q 199 251 131 322 q 364 179 268 179 q 474 217 435 179 q 513 317 513 254 q 471 415 513 379 q 373 451 429 451 q 276 433 317 451 q 243 499 254 458 q 405 581 363 533 q 447 682 447 628 q 418 763 447 736 q 340 790 389 790 q 167 707 250 790 q 118 776 132 738 q 310 854 214 854 q 461 799 406 854 q 517 671 517 743 q 422 503 517 568 q 574 381 535 474 q 740 440 681 400 l 740 764 l 593 764 q 572 833 572 790 l 1319 833 q 1340 764 1340 808 m 1247 1169 q 1134 1026 1206 1083 q 973 968 1063 968 q 817 1032 883 968 q 707 1192 750 1096 q 756 1214 735 1208 q 852 1088 806 1126 q 961 1050 899 1050 q 1165 1214 1100 1050 q 1247 1169 1204 1200 z "},"ऒ":{"ha":1306,"x_min":13,"x_max":1340,"o":"m 1340 764 l 1139 764 l 1139 -28 q 1088 -15 1110 -28 q 1065 11 1065 -1 l 1065 764 l 814 764 l 814 -28 q 763 -15 785 -28 q 740 11 740 -1 l 740 349 q 600 326 679 326 l 586 326 q 588 301 588 318 q 532 163 588 214 q 386 113 476 113 q 13 438 161 113 q 61 463 33 460 q 199 251 131 322 q 364 179 268 179 q 474 217 435 179 q 513 317 513 254 q 471 415 513 379 q 373 451 429 451 q 276 433 317 451 q 243 499 254 458 q 405 581 363 533 q 447 682 447 628 q 418 763 447 736 q 340 790 389 790 q 167 707 250 790 q 118 776 132 738 q 310 854 214 854 q 461 799 406 854 q 517 671 517 743 q 422 503 517 568 q 574 381 535 474 q 740 440 681 400 l 740 764 l 593 764 q 572 833 572 790 l 1074 833 q 1101 931 1101 876 q 1034 994 1101 968 q 880 1032 967 1019 q 698 1070 793 1044 q 560 1131 603 1096 q 486 1281 518 1167 l 528 1299 q 579 1214 564 1233 q 624 1178 594 1194 q 841 1122 653 1161 q 1085 1056 1029 1083 q 1163 944 1163 1015 q 1132 833 1163 894 l 1319 833 q 1340 764 1340 808 z "},"ओ":{"ha":1317,"x_min":24,"x_max":1351,"o":"m 1351 764 l 1150 764 l 1150 -28 q 1099 -15 1121 -28 q 1076 11 1076 -1 l 1076 764 l 825 764 l 825 -28 q 774 -15 796 -28 q 751 11 751 -1 l 751 349 q 611 326 690 326 l 597 326 q 599 301 599 318 q 543 163 599 214 q 397 113 488 113 q 24 438 172 113 q 72 463 44 460 q 210 251 142 322 q 375 179 279 179 q 485 217 446 179 q 524 317 524 254 q 482 415 524 379 q 384 451 440 451 q 288 433 328 451 q 254 499 265 458 q 416 581 374 533 q 458 682 458 628 q 429 763 458 736 q 351 790 400 790 q 178 707 261 790 q 129 776 143 738 q 321 854 225 854 q 472 799 417 854 q 528 671 528 743 q 433 503 528 568 q 585 381 546 474 q 751 440 692 400 l 751 764 l 604 764 q 583 833 583 790 l 1079 833 q 960 1022 1038 921 q 863 1113 917 1078 q 750 1147 808 1147 q 594 1108 692 1147 q 568 1190 574 1147 q 645 1212 594 1201 q 733 1222 696 1222 q 1139 833 957 1222 l 1331 833 q 1351 764 1351 808 z "},"औ":{"ha":1307,"x_min":13,"x_max":1340,"o":"m 1340 764 l 1139 764 l 1139 -28 q 1088 -15 1110 -28 q 1065 11 1065 -1 l 1065 764 l 814 764 l 814 -28 q 763 -15 785 -28 q 740 11 740 -1 l 740 349 q 600 326 679 326 l 586 326 q 588 301 588 318 q 532 163 588 214 q 386 113 476 113 q 13 438 161 113 q 61 463 33 460 q 199 251 131 322 q 364 179 268 179 q 474 217 435 179 q 513 317 513 254 q 471 415 513 379 q 373 451 429 451 q 276 433 317 451 q 243 499 254 458 q 405 581 363 533 q 447 682 447 628 q 418 763 447 736 q 340 790 389 790 q 167 707 250 790 q 118 776 132 738 q 310 854 214 854 q 461 799 406 854 q 517 671 517 743 q 422 503 517 568 q 574 381 535 474 q 740 440 681 400 l 740 764 l 593 764 q 572 833 572 790 l 1063 833 q 957 941 1022 892 q 842 990 892 990 q 672 922 756 990 q 628 1001 646 951 q 808 1064 703 1064 q 1054 917 913 1064 q 808 1178 928 1178 q 661 1117 740 1178 q 615 1197 635 1139 q 789 1249 692 1249 q 908 1206 850 1249 q 1010 1099 967 1164 q 1131 833 1094 969 l 1319 833 q 1340 764 1340 808 z "},"क":{"ha":1008,"x_min":-35,"x_max":1043,"o":"m 568 764 l 568 492 q 744 574 653 574 q 897 508 835 574 q 960 342 960 443 q 844 113 960 203 q 782 176 804 140 q 871 268 842 215 q 900 377 900 321 q 860 467 900 433 q 768 501 821 501 q 568 369 669 501 l 568 -28 q 517 -15 539 -28 q 494 11 494 -1 l 494 229 q 306 151 410 151 q 128 224 201 151 q 56 395 56 297 q 124 553 56 493 q 304 614 193 614 q 494 535 415 614 l 494 764 l -14 764 q -35 833 -35 790 l 1022 833 q 1043 764 1043 808 l 568 764 m 494 467 q 328 542 414 542 q 190 494 242 542 q 138 370 138 447 q 178 253 138 293 q 276 213 218 213 q 392 247 335 213 q 494 346 450 282 l 494 467 z "},"ख":{"ha":1015,"x_min":-35,"x_max":1050,"o":"m 1050 764 l 849 764 l 849 -28 q 797 -15 819 -28 q 775 11 775 -1 l 775 251 q 624 193 703 193 q 449 265 521 193 q 376 430 376 336 q 445 576 376 524 q 606 628 514 628 q 775 569 699 628 l 775 764 l 276 764 q 299 610 299 681 q 290 492 299 539 q 261 403 281 444 q 206 335 242 361 q 121 307 169 310 q 292 133 185 192 q 568 35 400 75 q 535 -36 565 7 q 325 36 422 -15 q 169 149 228 88 q 76 271 110 211 q 43 370 43 331 q 67 432 43 410 q 131 454 92 454 q 218 440 171 454 q 236 576 236 486 q 190 764 236 667 l -14 764 q -35 833 -35 790 l 1029 833 q 1050 764 1050 808 m 775 507 q 631 558 708 558 q 504 521 554 558 q 454 405 454 483 q 499 292 454 326 q 594 257 544 257 q 694 285 644 257 q 775 363 743 314 l 775 507 z "},"ग":{"ha":729,"x_min":-35,"x_max":764,"o":"m 764 764 l 563 764 l 563 -28 q 511 -15 533 -28 q 489 11 489 -1 l 489 764 l 228 764 l 228 401 q 208 293 228 322 q 166 274 194 274 q 95 318 138 274 q 53 400 53 363 q 58 429 53 418 q 154 461 71 458 l 154 764 l -14 764 q -35 833 -35 790 l 743 833 q 764 764 764 808 z "},"घ":{"ha":804,"x_min":-35,"x_max":839,"o":"m 839 764 l 638 764 l 638 -28 q 586 -15 608 -28 q 564 11 564 -1 l 564 225 q 369 158 469 158 q 200 214 269 158 q 131 353 131 269 q 183 489 131 436 q 51 671 51 544 q 79 764 51 726 l -14 764 q -35 833 -35 790 l 818 833 q 839 764 839 808 m 564 764 l 168 764 q 132 666 132 724 q 167 574 132 608 q 244 533 201 540 q 357 578 285 556 q 403 511 390 544 q 258 440 311 481 q 206 340 206 400 q 248 250 206 281 q 347 219 290 219 q 466 253 404 219 q 564 340 528 288 l 564 764 z "},"ङ":{"ha":681,"x_min":-35,"x_max":714,"o":"m 533 478 q 533 484 533 478 q 564 517 533 490 q 606 543 594 543 q 644 513 618 543 q 671 470 671 482 q 641 432 671 458 q 599 406 611 406 q 560 436 586 406 q 533 478 533 467 m 472 554 l 342 558 q 190 537 229 558 q 151 466 151 515 q 171 391 151 417 q 214 365 190 365 q 316 386 221 365 q 446 407 411 407 q 546 354 510 407 q 582 233 582 301 q 515 89 582 143 q 340 35 447 35 q 17 219 156 35 q 58 256 31 240 q 181 141 122 178 q 329 104 239 104 q 472 152 419 104 q 524 264 524 200 q 457 332 524 332 q 349 313 428 332 q 242 293 269 293 q 126 358 175 293 q 76 497 76 422 q 264 629 76 629 l 436 629 l 436 764 l -14 764 q -35 833 -35 790 l 693 833 q 714 764 714 808 l 510 764 l 510 600 q 497 570 510 586 q 472 554 483 554 z "},"च":{"ha":843,"x_min":-35,"x_max":878,"o":"m 878 764 l 676 764 l 676 -28 q 625 -15 647 -28 q 603 11 603 -1 l 603 239 q 403 174 515 174 q 226 240 292 174 q 161 388 161 306 q 250 535 161 488 l 14 535 q -10 604 -6 564 l 506 604 q 526 535 522 575 l 478 535 q 310 490 383 535 q 238 361 238 446 q 281 267 238 300 q 384 235 325 235 q 503 269 443 235 q 603 361 564 303 l 603 764 l -14 764 q -35 833 -35 790 l 857 833 q 878 764 878 808 z "},"छ":{"ha":871,"x_min":-35,"x_max":906,"o":"m 704 764 l 704 663 q 798 575 768 640 q 828 426 828 510 q 715 109 828 232 q 425 -14 603 -14 q 226 53 299 -14 q 153 201 153 119 q 217 333 153 282 q 103 410 146 354 q 61 525 61 465 q 107 628 61 585 q 223 672 153 672 q 330 636 293 672 q 378 557 367 600 q 357 544 367 547 q 253 599 311 599 q 167 572 194 599 q 139 499 139 544 q 178 414 139 453 q 264 364 217 375 q 378 401 340 401 q 421 336 406 369 q 292 287 351 326 q 232 183 232 247 q 274 83 232 119 q 403 47 317 47 q 671 165 568 47 q 774 435 774 282 q 742 558 774 514 q 663 601 710 601 q 589 575 615 601 q 563 497 563 549 q 668 336 563 400 q 647 306 667 318 q 483 514 483 379 q 524 626 483 582 q 631 674 564 671 l 631 764 l -14 764 q -35 833 -35 790 l 885 833 q 906 764 906 808 l 704 764 z "},"ज":{"ha":994,"x_min":-15,"x_max":1029,"o":"m 1029 764 l 828 764 l 828 -28 q 776 -15 799 -28 q 754 11 754 -1 l 754 492 l 456 492 q 542 290 542 389 q 500 169 542 217 q 385 122 458 122 q 25 582 151 122 q 76 600 43 600 q 372 200 192 200 q 447 227 417 200 q 478 302 478 254 q 454 397 478 350 q 413 465 431 443 q 364 522 396 488 q 378 549 367 532 q 394 567 390 565 l 754 567 l 754 764 l 6 764 q -15 833 -15 790 l 1008 833 q 1029 764 1029 808 z "},"झ":{"ha":956,"x_min":-35,"x_max":992,"o":"m 992 764 l 789 764 l 789 -28 q 738 -15 760 -28 q 715 11 715 -1 l 715 326 q 571 286 647 297 q 578 236 578 258 q 501 96 578 146 q 314 46 424 46 q 281 47 293 46 q 407 -126 372 -54 q 339 -181 378 -165 q 206 60 274 -31 q 71 158 71 93 q 93 210 71 189 q 142 231 115 231 q 240 129 192 231 q 307 121 267 121 q 455 156 389 121 q 521 262 521 192 q 454 332 521 332 q 345 313 425 332 q 240 293 265 293 q 123 357 172 293 q 74 500 74 421 q 260 629 74 629 l 432 629 l 432 764 l -14 764 q -35 833 -35 790 l 971 833 q 992 764 992 808 m 467 554 l 319 558 q 182 535 217 558 q 147 463 147 513 q 168 390 147 414 q 203 365 189 365 q 312 385 217 365 q 442 406 407 406 q 547 343 508 406 q 715 418 649 365 l 715 764 l 506 764 l 506 599 q 491 569 506 585 q 467 554 476 554 z "},"ञ":{"ha":965,"x_min":-35,"x_max":1000,"o":"m 1000 764 l 799 764 l 799 -28 q 747 -15 769 -28 q 725 11 725 -1 l 725 357 q 643 346 685 346 l 622 346 q 556 219 611 265 q 413 172 500 172 q 171 266 282 172 q 0 472 60 360 q 39 500 13 488 q 390 243 214 243 q 507 283 465 243 q 549 390 549 324 q 516 493 549 457 q 415 529 483 529 q 253 458 346 529 q 204 531 222 485 q 383 600 286 600 q 547 550 481 600 q 622 404 614 500 q 725 440 679 413 l 725 764 l -14 764 q -35 833 -35 790 l 979 833 q 1000 764 1000 808 z "},"ट":{"ha":685,"x_min":-35,"x_max":718,"o":"m 493 521 l 419 528 q 209 472 286 528 q 132 314 132 417 q 198 158 132 211 q 357 104 264 104 q 611 235 519 104 q 671 178 644 217 q 554 76 629 118 q 381 35 479 35 q 150 115 243 35 q 57 324 57 196 q 147 526 57 453 q 385 599 236 599 q 453 593 421 599 l 453 764 l -14 764 q -35 833 -35 790 l 697 833 q 718 764 718 808 l 526 764 l 526 568 q 515 537 526 553 q 493 521 503 521 z "},"ठ":{"ha":751,"x_min":-35,"x_max":786,"o":"m 506 764 l 506 592 q 714 342 714 544 q 613 119 714 199 q 378 40 513 40 q 150 126 244 40 q 56 338 56 211 q 144 534 56 465 q 394 603 232 603 q 432 601 419 603 l 432 764 l -14 764 q -35 833 -35 790 l 765 833 q 786 764 786 808 l 506 764 m 133 311 q 196 163 133 217 q 366 110 258 110 q 560 181 474 110 q 646 356 646 253 q 581 497 646 458 q 424 536 515 536 q 233 492 321 536 q 161 423 189 469 q 133 311 133 376 z "},"ड":{"ha":613,"x_min":-35,"x_max":647,"o":"m 472 554 l 342 558 q 190 537 229 558 q 151 466 151 515 q 171 391 151 417 q 214 365 190 365 q 316 386 221 365 q 446 407 411 407 q 546 354 510 407 q 582 233 582 301 q 515 89 582 143 q 340 35 447 35 q 17 219 156 35 q 58 256 31 240 q 181 141 122 178 q 329 104 239 104 q 472 152 419 104 q 524 264 524 200 q 457 332 524 332 q 349 313 428 332 q 242 293 269 293 q 126 358 175 293 q 76 497 76 422 q 264 629 76 629 l 436 629 l 436 764 l -14 764 q -35 833 -35 790 l 626 833 q 647 764 647 808 l 510 764 l 510 600 q 497 570 510 586 q 472 554 483 554 z "},"ढ":{"ha":749,"x_min":-35,"x_max":783,"o":"m 554 764 l 554 594 q 542 567 554 583 q 525 551 531 551 q 488 556 519 551 q 435 561 456 561 q 215 502 283 561 q 146 348 146 443 q 209 192 146 253 q 382 131 272 131 q 449 135 417 131 q 393 270 393 204 q 429 380 393 336 q 529 424 465 424 q 646 386 593 424 q 699 270 699 349 q 626 131 699 192 q 404 69 554 69 q 162 157 254 69 q 69 366 69 244 q 156 558 69 488 q 399 629 243 629 q 481 624 428 629 l 481 764 l -14 764 q -35 833 -35 790 l 763 833 q 783 764 783 808 l 554 764 m 629 288 q 605 341 629 325 q 544 357 581 357 q 481 328 507 357 q 456 251 456 299 q 497 144 456 203 q 629 288 629 181 z "},"ण":{"ha":1024,"x_min":-35,"x_max":1058,"o":"m 1058 764 l 857 764 l 857 -28 q 806 -15 828 -28 q 783 11 783 -1 l 783 764 l 561 764 l 561 469 q 508 279 561 347 q 354 211 456 211 q 185 279 253 211 q 118 485 118 347 l 118 764 l -14 764 q -35 833 -35 790 l 1038 833 q 1058 764 1058 808 m 488 460 l 488 764 l 192 764 l 192 500 q 202 399 192 444 q 251 314 213 353 q 351 275 289 275 q 488 460 488 275 z "},"त":{"ha":732,"x_min":-35,"x_max":767,"o":"m 767 764 l 565 764 l 565 -28 q 514 -15 536 -28 q 492 11 492 -1 l 492 513 l 382 513 q 189 478 247 513 q 131 363 131 444 q 181 184 131 282 q 292 7 231 86 q 244 -28 274 -15 q 54 390 54 229 q 375 589 54 589 l 492 589 l 492 764 l -14 764 q -35 833 -35 790 l 746 833 q 767 764 767 808 z "},"थ":{"ha":804,"x_min":68,"x_max":839,"o":"m 839 764 l 638 764 l 638 -28 q 586 -15 608 -28 q 564 11 564 -1 l 564 232 q 369 183 483 183 q 173 259 256 183 q 68 457 90 335 q 347 671 347 501 q 317 763 347 729 q 244 796 288 796 q 170 772 201 796 q 139 704 139 749 q 224 585 139 639 q 197 553 211 561 q 75 721 75 628 q 119 817 75 781 q 238 854 164 854 q 368 798 311 854 q 425 656 425 742 q 355 500 425 569 q 140 397 285 431 q 365 254 213 254 q 564 332 478 254 l 564 764 l 489 764 q 468 833 468 790 l 818 833 q 839 764 839 808 z "},"द":{"ha":665,"x_min":-35,"x_max":701,"o":"m 525 764 l 525 594 q 511 566 525 582 q 491 550 497 550 q 453 555 485 550 q 390 560 421 560 q 117 340 117 560 q 188 191 117 246 q 343 136 258 136 q 481 172 428 136 q 450 244 450 210 q 484 301 450 279 q 542 322 518 322 q 580 302 565 322 q 594 236 594 282 q 561 146 594 190 q 701 -26 671 42 q 631 -78 676 -61 q 612 -41 625 -67 q 592 -2 599 -15 q 575 32 586 11 q 524 110 556 65 q 344 64 458 64 q 135 153 229 64 q 40 367 40 242 q 130 560 40 492 q 371 628 219 628 q 451 624 410 628 l 451 764 l -14 764 q -35 833 -35 790 l 679 833 q 700 764 700 808 l 525 764 z "},"ध":{"ha":846,"x_min":63,"x_max":879,"o":"m 879 764 l 679 764 l 679 -28 q 628 -15 650 -28 q 606 11 606 -1 l 606 219 q 416 158 515 158 q 250 213 317 158 q 183 361 183 268 q 224 474 183 426 q 103 561 143 506 q 63 685 63 617 q 117 803 63 753 q 254 854 172 854 q 343 826 307 854 q 379 743 379 797 q 268 613 379 654 q 243 644 251 622 q 290 687 276 668 q 304 738 304 706 q 247 803 304 803 q 172 766 203 803 q 140 671 140 729 q 182 569 140 613 q 272 514 224 526 q 399 568 324 546 q 444 501 432 535 q 306 433 354 471 q 258 338 258 396 q 300 248 258 279 q 399 217 342 217 q 512 248 456 217 q 606 328 568 279 l 606 764 l 464 764 q 443 833 443 790 l 858 833 q 879 764 879 808 z "},"न":{"ha":717,"x_min":-35,"x_max":753,"o":"m 753 764 l 550 764 l 550 -28 q 499 -15 521 -28 q 476 11 476 -1 l 476 436 l 290 436 q 207 435 233 436 q 139 300 197 300 q 118 305 133 300 q 70 357 103 310 q 38 443 38 404 q 133 501 38 494 q 315 506 197 506 l 476 506 l 476 764 l -14 764 q -35 833 -35 790 l 732 833 q 753 764 753 808 z "},"ऩ":{"ha":717,"x_min":-35,"x_max":753,"o":"m 753 764 l 550 764 l 550 -28 q 499 -15 521 -28 q 476 11 476 -1 l 476 436 l 290 436 q 207 435 233 436 q 139 300 197 300 q 118 305 133 300 q 70 357 103 310 q 38 443 38 404 q 133 501 38 494 q 315 506 197 506 l 476 506 l 476 764 l -14 764 q -35 833 -35 790 l 732 833 q 753 764 753 808 m 143 51 q 143 57 143 51 q 174 89 143 63 q 216 115 204 115 q 254 85 228 115 q 281 42 281 54 q 251 4 281 31 q 208 -22 221 -22 q 169 8 196 -22 q 143 51 143 39 z "},"प":{"ha":786,"x_min":-35,"x_max":821,"o":"m 821 764 l 619 764 l 619 -28 q 568 -15 590 -28 q 546 11 546 -1 l 546 278 q 356 215 463 215 q 187 294 249 215 q 125 514 125 372 l 125 764 l -14 764 q -35 833 -35 790 l 800 833 q 821 764 821 808 m 546 764 l 207 764 l 207 553 q 236 334 207 394 q 347 274 265 274 q 460 308 407 274 q 546 403 514 343 l 546 764 z "},"फ":{"ha":1033,"x_min":-35,"x_max":1067,"o":"m 599 764 l 599 488 q 776 575 683 575 q 931 513 869 575 q 993 350 993 450 q 836 60 993 186 q 779 126 808 78 q 933 364 933 240 q 893 469 933 435 q 801 503 853 503 q 599 364 699 503 l 599 -28 q 547 -15 569 -28 q 525 11 525 -1 l 525 308 q 342 249 442 249 q 184 328 243 249 q 125 547 125 407 l 125 764 l -14 764 q -35 833 -35 790 l 1046 833 q 1067 764 1067 808 l 599 764 m 207 764 l 207 586 q 233 368 207 429 q 324 307 260 307 q 440 340 388 307 q 525 431 492 374 l 525 764 l 207 764 z "},"ब":{"ha":754,"x_min":-35,"x_max":789,"o":"m 789 764 l 588 764 l 588 -28 q 536 -15 558 -28 q 514 11 514 -1 l 514 224 q 310 149 418 149 q 131 228 203 149 q 60 412 60 307 q 133 573 60 517 q 315 629 206 629 q 514 549 425 629 l 514 764 l -14 764 q -35 833 -35 790 l 768 833 q 789 764 789 808 m 176 496 q 135 370 135 447 q 182 250 135 293 q 297 207 229 207 q 432 244 365 207 l 176 496 m 329 560 q 225 536 269 560 l 482 282 q 514 319 501 301 l 514 481 q 329 560 424 560 z "},"भ":{"ha":929,"x_min":65,"x_max":964,"o":"m 964 764 l 763 764 l 763 -28 q 711 -15 733 -28 q 689 11 689 -1 l 689 339 q 390 349 553 349 q 383 285 390 317 q 366 243 376 253 q 327 233 356 233 q 257 274 299 233 q 215 355 215 315 q 240 406 215 394 q 317 418 265 418 l 317 578 q 269 783 317 749 q 214 799 249 799 q 160 776 179 799 q 140 718 140 754 q 257 565 140 628 q 235 526 249 539 q 65 732 65 611 q 104 822 65 790 q 220 854 143 854 q 344 799 297 854 q 390 653 390 743 l 390 417 q 689 410 567 417 l 689 764 l 538 764 q 517 833 517 790 l 943 833 q 964 764 964 808 z "},"म":{"ha":772,"x_min":-35,"x_max":807,"o":"m 807 764 l 606 764 l 606 -28 q 554 -15 576 -28 q 532 11 532 -1 l 532 339 q 214 350 403 350 q 194 251 214 288 q 155 232 185 232 q 82 276 125 232 q 39 358 39 321 q 44 388 39 376 q 140 419 57 417 l 140 764 l -14 764 q -35 833 -35 790 l 786 833 q 807 764 807 808 m 532 764 l 214 764 l 214 418 q 532 410 374 418 l 532 764 z "},"य":{"ha":775,"x_min":-35,"x_max":810,"o":"m 810 764 l 608 764 l 608 -28 q 557 -15 579 -28 q 535 11 535 -1 l 535 229 q 369 182 460 182 q 157 260 238 182 q 53 464 76 338 q 256 628 256 507 q 189 764 256 689 l -14 764 q -35 833 -35 790 l 789 833 q 810 764 810 808 m 535 764 l 257 764 q 332 619 332 694 q 275 489 332 543 q 122 413 218 435 q 350 257 179 257 q 535 326 465 257 l 535 764 z "},"र":{"ha":440,"x_min":-35,"x_max":475,"o":"m 475 764 l 289 764 q 311 584 311 681 q 267 415 311 488 q 128 338 224 342 q 267 159 181 251 q 424 11 354 67 q 361 -37 404 -14 q 92 285 171 153 q 49 400 49 358 q 74 463 49 442 q 142 485 99 485 q 229 469 186 485 q 249 567 249 510 q 203 764 249 661 l -14 764 q -35 833 -35 790 l 454 833 q 475 764 475 808 z "},"ऱ":{"ha":440,"x_min":-35,"x_max":475,"o":"m 475 764 l 289 764 q 311 584 311 681 q 267 415 311 488 q 128 338 224 342 q 267 159 181 251 q 424 11 354 67 q 361 -37 404 -14 q 92 285 171 153 q 49 400 49 358 q 74 463 49 442 q 142 485 99 485 q 229 469 186 485 q 249 567 249 510 q 203 764 249 661 l -14 764 q -35 833 -35 790 l 454 833 q 475 764 475 808 m 49 47 q 49 52 49 47 q 79 85 49 58 q 122 111 110 111 q 160 81 133 111 q 186 38 186 50 q 156 0 186 26 q 114 -26 126 -26 q 75 4 101 -26 q 49 47 49 35 z "},"ल":{"ha":936,"x_min":-35,"x_max":971,"o":"m 971 764 l 769 764 l 769 -28 q 718 -15 740 -28 q 696 11 696 -1 l 696 546 q 663 550 686 550 q 538 477 592 550 q 469 299 483 404 q 427 322 447 306 q 401 351 407 338 q 417 415 401 378 q 350 505 394 467 q 248 543 306 543 q 152 497 190 543 q 114 383 114 451 q 350 51 114 224 q 314 7 338 28 q 38 411 38 218 q 101 563 38 510 q 242 615 165 615 q 443 475 364 615 q 647 614 518 614 q 696 604 675 614 l 696 764 l -14 764 q -35 833 -35 790 l 950 833 q 971 764 971 808 z "},"ळ":{"ha":956,"x_min":-35,"x_max":992,"o":"m 736 764 l 736 624 q 877 544 828 611 q 926 373 926 476 q 859 194 926 269 q 683 119 792 119 q 547 158 606 119 q 456 254 489 196 q 369 153 414 188 q 263 119 324 119 q 103 190 171 119 q 36 375 36 260 q 97 558 36 490 q 254 625 158 625 q 410 584 350 625 q 504 492 471 543 q 579 582 543 551 q 663 622 615 613 l 663 764 l -14 764 q -35 833 -35 790 l 971 833 q 992 764 992 808 l 736 764 m 247 179 q 299 190 282 179 q 327 208 317 201 q 349 231 338 215 q 369 257 361 247 q 389 288 376 267 q 408 322 401 310 q 459 417 444 392 q 479 451 474 442 q 285 558 403 558 q 150 501 194 558 q 106 360 106 443 q 147 228 106 276 q 247 179 188 179 m 664 176 q 799 243 743 176 q 854 388 854 310 q 822 513 854 467 q 724 560 789 560 q 603 500 651 560 q 531 391 561 450 q 485 303 501 332 q 664 176 558 176 z "},"ऴ":{"ha":956,"x_min":-35,"x_max":992,"o":"m 736 764 l 736 624 q 877 544 828 611 q 926 373 926 476 q 859 194 926 269 q 683 119 792 119 q 547 158 606 119 q 456 254 489 196 q 369 153 414 188 q 263 119 324 119 q 103 190 171 119 q 36 375 36 260 q 97 558 36 490 q 254 625 158 625 q 410 584 350 625 q 504 492 471 543 q 579 582 543 551 q 663 622 615 613 l 663 764 l -14 764 q -35 833 -35 790 l 971 833 q 992 764 992 808 l 736 764 m 247 179 q 299 190 282 179 q 327 208 317 201 q 349 231 338 215 q 369 257 361 247 q 389 288 376 267 q 408 322 401 310 q 459 417 444 392 q 479 451 474 442 q 285 558 403 558 q 150 501 194 558 q 106 360 106 443 q 147 228 106 276 q 247 179 188 179 m 664 176 q 799 243 743 176 q 854 388 854 310 q 822 513 854 467 q 724 560 789 560 q 603 500 651 560 q 531 391 561 450 q 485 303 501 332 q 664 176 558 176 m 153 5 q 153 11 153 5 q 183 43 153 17 q 226 69 214 69 q 264 39 238 69 q 290 -3 290 8 q 260 -42 290 -15 q 218 -68 231 -68 q 179 -37 206 -68 q 153 5 153 -7 z "},"व":{"ha":753,"x_min":-35,"x_max":788,"o":"m 788 764 l 586 764 l 586 -28 q 535 -15 557 -28 q 513 11 513 -1 l 513 224 q 309 150 418 150 q 128 228 200 150 q 57 412 57 307 q 129 573 57 517 q 310 629 201 629 q 513 547 419 629 l 513 764 l -14 764 q -35 833 -35 790 l 767 833 q 788 764 788 808 m 513 476 q 339 557 422 557 q 197 510 256 557 q 138 374 138 464 q 184 248 138 285 q 286 211 231 211 q 408 247 342 211 q 513 339 474 282 l 513 476 z "},"श":{"ha":914,"x_min":-35,"x_max":949,"o":"m 949 764 l 747 764 l 747 -28 q 696 -15 718 -28 q 674 11 674 -1 l 674 764 l 418 764 q 482 600 482 697 q 406 417 482 503 q 228 299 331 332 q 379 152 288 254 q 485 14 471 50 q 418 -37 457 -22 q 312 131 388 28 q 179 286 236 233 q 122 282 157 282 q 52 308 86 282 q 18 359 18 333 q 47 408 18 385 q 99 432 75 432 q 200 361 146 432 q 346 452 279 378 q 413 626 413 526 q 388 715 413 674 q 311 764 364 757 l 274 764 q 206 731 233 758 q 178 663 178 704 q 293 510 178 583 q 274 476 289 486 q 101 671 101 551 q 133 764 101 721 l -14 764 q -35 833 -35 790 l 928 833 q 949 764 949 808 z "},"ष":{"ha":788,"x_min":-35,"x_max":822,"o":"m 822 764 l 621 764 l 621 -28 q 569 -15 592 -28 q 547 11 547 -1 l 547 275 q 351 208 457 208 q 161 311 213 208 q 118 547 118 399 l 118 764 l -14 764 q -35 833 -35 790 l 801 833 q 822 764 822 808 m 199 547 q 230 328 199 392 q 346 265 261 265 q 518 343 431 265 l 199 724 l 199 547 m 547 764 l 238 764 l 547 394 l 547 764 z "},"स":{"ha":856,"x_min":-35,"x_max":890,"o":"m 890 764 l 689 764 l 689 -28 q 638 -15 660 -28 q 615 11 615 -1 l 615 371 q 445 351 549 351 q 251 394 342 351 q 126 338 206 342 q 266 156 181 250 q 418 8 351 61 q 360 -37 400 -15 q 238 93 329 -12 q 97 280 146 199 q 47 401 47 361 q 72 463 47 442 q 141 485 97 485 q 228 469 185 485 q 247 567 247 510 q 201 764 247 661 l -14 764 q -35 833 -35 790 l 869 833 q 890 764 890 808 m 615 764 l 288 764 q 310 590 310 681 q 281 442 310 500 q 451 415 349 415 q 615 458 553 415 l 615 764 z "},"ह":{"ha":608,"x_min":-35,"x_max":643,"o":"m 479 556 l 321 556 q 187 539 218 556 q 156 485 156 522 q 214 378 156 426 q 357 414 279 414 q 515 354 461 414 q 568 225 568 294 q 538 140 568 181 q 464 82 508 100 q 419 151 433 113 q 508 260 508 188 q 476 317 508 294 q 369 339 444 339 q 238 296 293 339 q 182 193 182 253 q 213 90 182 133 q 303 13 244 46 q 554 -89 400 -44 q 533 -142 543 -132 q 253 -22 381 -99 q 144 77 185 19 q 103 201 103 135 q 172 349 103 290 q 81 507 81 432 q 276 626 81 626 l 436 626 l 436 764 l -14 764 q -35 833 -35 790 l 622 833 q 643 764 643 808 l 511 764 l 511 597 q 501 569 511 583 q 479 556 492 556 z "},"़":{"ha":0,"x_min":-424,"x_max":-286,"o":"m -286 -148 q -286 -154 -286 -148 q -316 -186 -286 -160 q -358 -212 -346 -212 q -397 -182 -371 -212 q -424 -140 -424 -151 q -393 -101 -424 -128 q -351 -75 -362 -75 q -312 -106 -339 -75 q -286 -148 -286 -136 z "},"ऽ":{"ha":742,"x_min":10,"x_max":642,"o":"m 200 722 q 385 506 200 657 q 500 404 444 457 q 578 319 556 351 q 622 242 601 288 q 642 157 642 197 q 578 35 642 78 q 419 -7 514 -7 q 10 256 172 -7 q 67 293 31 281 q 103 242 92 258 q 150 190 115 225 q 217 136 185 154 q 404 83 303 83 q 551 183 551 83 q 529 265 551 232 q 494 315 507 297 q 456 357 482 332 q 416 394 429 382 q 371 433 403 406 q 182 614 232 550 q 132 732 132 678 q 328 857 132 857 l 563 857 q 582 786 582 826 l 343 786 q 233 773 267 786 q 200 722 200 760 z "},"ा":{"ha":407,"x_min":-35,"x_max":442,"o":"m 442 764 l 240 764 l 240 -28 q 189 -15 211 -28 q 167 11 167 -1 l 167 764 l -14 764 q -35 833 -35 790 l 421 833 q 442 764 442 808 z "},"ि":{"ha":407,"x_min":-35,"x_max":947,"o":"m -35 833 l 150 833 q 78 1001 78 913 q 168 1154 78 1090 q 400 1218 258 1218 q 590 1183 494 1218 q 757 1097 686 1149 q 947 915 904 990 q 918 889 935 894 q 683 1072 814 1003 q 411 1140 553 1140 q 192 1074 265 1140 q 151 976 151 1036 q 218 833 151 915 l 421 833 q 442 764 442 808 l 240 764 l 240 -28 q 189 -15 211 -28 q 167 11 167 -1 l 167 764 l -14 764 q -35 833 -35 790 z "},"ी":{"ha":407,"x_min":-289,"x_max":442,"o":"m 442 764 l 240 764 l 240 -28 q 189 -15 211 -28 q 167 11 167 -1 l 167 764 l -14 764 q -35 833 -35 790 l 165 833 q 72 1026 142 919 q -13 1114 38 1079 q -117 1149 -64 1149 q -217 1029 -217 1149 q -181 904 -217 971 q -221 886 -203 886 q -264 955 -239 901 q -289 1073 -289 1008 q -249 1178 -289 1138 q -142 1219 -208 1219 q -19 1186 -76 1219 q 77 1106 38 1153 q 150 1001 117 1060 q 228 833 203 913 l 421 833 q 442 764 442 808 z "},"ु":{"ha":0,"x_min":-636,"x_max":-1,"o":"m -222 -17 q -58 -74 -114 -17 q -1 -205 -1 -131 q -54 -327 -1 -279 q -201 -375 -107 -375 q -441 -282 -324 -375 q -636 -65 -558 -189 q -590 -31 -621 -42 q -410 -231 -506 -161 q -219 -300 -314 -300 q -110 -269 -150 -300 q -69 -190 -69 -237 q -97 -113 -69 -143 q -188 -83 -125 -83 q -311 -119 -251 -83 q -347 -51 -337 -85 q -222 -17 -290 -17 z "},"ू":{"ha":0,"x_min":-439,"x_max":196,"o":"m -218 -375 q -383 -318 -326 -375 q -439 -187 -439 -261 q -386 -65 -439 -112 q -239 -17 -333 -17 q 1 -110 -117 -17 q 196 -326 118 -203 q 150 -361 181 -350 q -31 -161 65 -231 q -221 -92 -126 -92 q -331 -123 -290 -92 q -371 -201 -371 -154 q -343 -278 -371 -249 q -252 -308 -315 -308 q -129 -272 -189 -308 q -93 -340 -103 -307 q -218 -375 -150 -375 z "},"ृ":{"ha":0,"x_min":-369,"x_max":-36,"o":"m -311 -160 q -285 -218 -311 -197 q -225 -239 -260 -239 q -90 -172 -143 -239 q -36 -224 -53 -203 q -110 -278 -64 -258 q -218 -297 -157 -297 q -324 -253 -279 -297 q -369 -141 -369 -210 q -319 -24 -369 -72 q -201 43 -269 24 q -180 6 -192 32 q -167 -28 -168 -19 q -311 -160 -311 -58 z "},"ॅ":{"ha":0,"x_min":-492,"x_max":35,"o":"m 35 1122 q -78 978 -7 1035 q -237 921 -149 921 q -390 981 -325 921 q -492 1133 -456 1042 q -443 1156 -464 1150 q -243 994 -364 994 q -40 1161 -106 994 q 35 1122 0 1147 z "},"ॆ":{"ha":0,"x_min":-815,"x_max":-139,"o":"m -139 944 q -151 876 -139 915 q -178 814 -164 836 l -232 822 q -210 873 -219 839 q -200 925 -200 907 q -267 994 -200 967 q -421 1033 -335 1021 q -603 1069 -507 1044 q -742 1132 -699 1094 q -783 1187 -768 1154 q -815 1281 -797 1219 q -774 1299 -801 1289 q -683 1181 -740 1210 q -458 1122 -643 1160 q -217 1056 -274 1085 q -139 944 -139 1015 z "},"े":{"ha":0,"x_min":-753,"x_max":-182,"o":"m -385 1049 q -470 1118 -421 1089 q -574 1147 -519 1147 q -726 1108 -629 1147 q -753 1190 -747 1147 q -676 1212 -726 1201 q -587 1222 -625 1222 q -182 833 -364 1222 l -232 813 q -385 1049 -292 944 z "},"ै":{"ha":0,"x_min":-694,"x_max":-176,"o":"m -521 1249 q -400 1205 -460 1249 q -297 1094 -340 1161 q -176 825 -208 957 l -239 819 q -343 934 -274 878 q -479 990 -412 990 q -562 969 -518 990 q -637 922 -607 947 q -682 1001 -664 951 q -502 1064 -607 1064 q -256 917 -397 1064 q -501 1178 -382 1178 q -649 1117 -569 1178 q -694 1197 -675 1139 q -521 1249 -617 1249 z "},"ॉ":{"ha":407,"x_min":-74,"x_max":453,"o":"m -35 833 l 421 833 q 442 764 442 808 l 240 764 l 240 -28 q 189 -15 211 -28 q 167 11 167 -1 l 167 764 l -14 764 q -35 833 -35 790 m 453 1125 q 340 981 411 1038 q 181 924 269 924 q 28 984 93 924 q -74 1136 -37 1044 q -25 1158 -46 1153 q 175 997 54 997 q 378 1164 313 997 q 453 1125 418 1150 z "},"ॊ":{"ha":407,"x_min":-412,"x_max":442,"o":"m 442 764 l 240 764 l 240 -28 q 189 -15 211 -28 q 167 11 167 -1 l 167 764 l -14 764 q -35 833 -35 790 l 178 833 q 203 925 203 883 q 135 994 203 967 q -18 1033 68 1021 q -200 1069 -104 1044 q -339 1132 -296 1094 q -380 1187 -365 1154 q -412 1281 -394 1219 q -371 1299 -399 1289 q -281 1181 -337 1210 q -56 1122 -240 1160 q 186 1056 129 1085 q 264 944 264 1015 q 235 833 264 897 l 421 833 q 442 764 442 808 z "},"ो":{"ha":407,"x_min":-340,"x_max":442,"o":"m 442 764 l 240 764 l 240 -28 q 189 -15 211 -28 q 167 11 167 -1 l 167 764 l -14 764 q -35 833 -35 790 l 171 833 q 51 1022 129 921 q -46 1113 8 1078 q -158 1147 -100 1147 q -314 1108 -217 1147 q -340 1190 -335 1147 q -263 1212 -314 1201 q -175 1222 -212 1222 q 231 833 49 1222 l 421 833 q 442 764 442 808 z "},"ौ":{"ha":407,"x_min":-285,"x_max":442,"o":"m 442 764 l 240 764 l 240 -28 q 189 -15 211 -28 q 167 11 167 -1 l 167 764 l -14 764 q -35 833 -35 790 l 163 833 q 57 941 122 892 q -58 990 -8 990 q -228 922 -144 990 q -272 1001 -254 951 q -92 1064 -197 1064 q 154 917 13 1064 q -92 1178 28 1178 q -239 1117 -160 1178 q -285 1197 -265 1139 q -111 1249 -207 1249 q 8 1206 -50 1249 q 110 1099 67 1164 q 231 833 194 969 l 421 833 q 442 764 442 808 z "},"्":{"ha":0,"x_min":-362,"x_max":58,"o":"m -362 -103 q -275 -97 -321 -97 q 58 -317 -119 -97 q 22 -347 44 -335 q -179 -186 -83 -212 q -265 -175 -219 -175 q -353 -182 -311 -175 q -362 -103 -367 -149 z "},"ॐ":{"ha":1578,"x_min":272,"x_max":1490,"o":"m 914 994 q 914 1000 914 994 q 941 1028 914 1006 q 978 1051 968 1051 q 1011 1025 989 1051 q 1033 988 1033 999 q 1008 955 1033 978 q 971 932 982 932 q 937 958 960 932 q 914 994 914 983 m 997 756 q 713 908 849 756 q 747 943 722 929 q 863 857 821 879 q 960 835 906 835 q 1194 981 1104 835 q 1264 914 1238 957 q 1156 806 1229 857 q 997 756 1083 756 m 1422 438 q 1422 488 1422 438 q 1388 592 1422 538 q 1310 646 1353 646 q 1238 628 1268 646 q 1181 572 1208 611 q 1090 419 1142 521 q 1170 274 1121 333 q 1278 214 1219 214 q 1379 276 1336 214 q 1422 438 1422 338 m 424 722 q 620 800 519 800 q 772 744 721 800 q 822 610 822 688 q 728 451 822 507 q 853 372 811 428 q 895 331 882 339 q 919 322 908 322 q 988 376 957 322 q 1027 452 997 394 q 1078 544 1057 510 q 1131 622 1099 579 q 1280 711 1197 711 q 1426 626 1363 711 q 1490 417 1490 542 q 1431 215 1490 292 q 1289 139 1371 139 q 1061 363 1156 139 q 940 251 1006 251 q 890 272 911 251 q 837 113 890 164 q 690 61 783 61 q 453 156 568 61 q 272 396 338 251 q 315 418 290 414 q 474 208 379 288 q 668 128 568 128 q 779 167 742 128 q 817 269 817 207 q 783 369 817 332 q 694 406 750 406 q 590 379 639 406 q 547 447 558 406 q 683 513 633 475 q 744 578 732 550 q 756 642 756 607 q 664 738 756 738 q 471 653 557 738 q 424 722 438 682 z "},"॑":{"ha":0,"x_min":-219,"x_max":-132,"o":"m -219 1313 l -132 1313 l -132 981 l -219 981 l -219 1313 z "},"॒":{"ha":0,"x_min":-779,"x_max":-112,"o":"m -112 -293 l -779 -293 l -779 -210 l -112 -210 l -112 -293 z "},"॓":{"ha":447,"x_min":79,"x_max":365,"o":"m 79 1239 l 146 1292 l 365 1025 l 299 972 l 79 1239 z "},"॔":{"ha":444,"x_min":79,"x_max":365,"o":"m 299 1292 l 365 1239 l 146 972 l 79 1025 l 299 1292 z "},"क़":{"ha":1000,"x_min":-43,"x_max":1035,"o":"m 560 764 l 560 492 q 735 574 644 574 q 889 508 826 574 q 951 342 951 443 q 836 113 951 203 q 774 176 796 140 q 863 268 833 215 q 892 377 892 321 q 852 467 892 433 q 760 501 813 501 q 560 369 661 501 l 560 -28 q 508 -15 531 -28 q 486 11 486 -1 l 486 229 q 297 151 401 151 q 120 224 193 151 q 47 395 47 297 q 116 553 47 493 q 296 614 185 614 q 486 535 407 614 l 486 764 l -22 764 q -43 833 -43 790 l 1014 833 q 1035 764 1035 808 l 560 764 m 486 467 q 319 542 406 542 q 181 494 233 542 q 129 370 129 447 q 169 253 129 293 q 268 213 210 213 q 384 247 326 213 q 486 346 442 282 l 486 467 m 75 51 q 75 57 75 51 q 106 89 75 63 q 148 115 136 115 q 186 85 160 115 q 213 42 213 54 q 183 4 213 31 q 140 -22 153 -22 q 101 8 128 -22 q 75 51 75 39 z "},"ख़":{"ha":1014,"x_min":-36,"x_max":1049,"o":"m 1049 764 l 847 764 l 847 -28 q 796 -15 818 -28 q 774 11 774 -1 l 774 251 q 622 193 700 193 q 447 265 519 193 q 375 430 375 336 q 444 576 375 524 q 605 628 513 628 q 774 569 697 628 l 774 764 l 275 764 q 297 610 297 681 q 288 492 297 539 q 260 403 279 444 q 204 335 240 361 q 119 307 168 310 q 291 133 183 192 q 567 35 399 75 q 533 -36 564 7 q 324 36 421 -15 q 167 149 226 88 q 75 271 108 211 q 42 370 42 331 q 66 432 42 410 q 130 454 90 454 q 217 440 169 454 q 235 576 235 486 q 189 764 235 667 l -15 764 q -36 833 -36 790 l 1028 833 q 1049 764 1049 808 m 774 507 q 630 558 707 558 q 503 521 553 558 q 453 405 453 483 q 498 292 453 326 q 593 257 543 257 q 692 285 643 257 q 774 363 742 314 l 774 507 m -17 76 q -17 82 -17 76 q 14 114 -17 88 q 56 140 44 140 q 94 110 68 140 q 121 67 121 79 q 91 29 121 56 q 49 3 61 3 q 10 33 36 3 q -17 76 -17 64 z "},"ग़":{"ha":729,"x_min":-35,"x_max":764,"o":"m 764 764 l 563 764 l 563 -28 q 511 -15 533 -28 q 489 11 489 -1 l 489 764 l 228 764 l 228 401 q 208 293 228 322 q 166 274 194 274 q 95 318 138 274 q 53 400 53 363 q 58 429 53 418 q 154 461 71 458 l 154 764 l -14 764 q -35 833 -35 790 l 743 833 q 764 764 764 808 m 93 63 q 93 69 93 63 q 124 101 93 75 q 166 128 154 128 q 204 97 178 128 q 231 55 231 67 q 201 17 231 43 q 158 -10 171 -10 q 119 21 146 -10 q 93 63 93 51 z "},"ज़":{"ha":946,"x_min":-50,"x_max":994,"o":"m 994 764 l 793 764 l 793 -28 q 742 -15 764 -28 q 719 11 719 -1 l 719 492 l 421 492 q 507 290 507 389 q 465 169 507 217 q 350 122 424 122 q -10 582 117 122 q 42 600 8 600 q 338 200 157 200 q 413 227 382 200 q 443 302 443 254 q 419 397 443 350 q 378 465 396 443 q 329 522 361 488 q 344 549 332 532 q 360 567 356 565 l 719 567 l 719 764 l -29 764 q -50 833 -50 790 l 974 833 q 994 764 994 808 m 288 1 q 288 7 288 1 q 318 39 288 13 q 360 65 349 65 q 399 35 372 65 q 425 -8 425 4 q 395 -46 425 -19 q 353 -72 365 -72 q 314 -42 340 -72 q 288 1 288 -11 z "},"ड़":{"ha":613,"x_min":-35,"x_max":647,"o":"m 472 554 l 342 558 q 190 537 229 558 q 151 466 151 515 q 171 391 151 417 q 214 365 190 365 q 316 386 221 365 q 446 407 411 407 q 546 354 510 407 q 582 233 582 301 q 515 89 582 143 q 340 35 447 35 q 17 219 156 35 q 58 256 31 240 q 181 141 122 178 q 329 104 239 104 q 472 152 419 104 q 524 264 524 200 q 457 332 524 332 q 349 313 428 332 q 242 293 269 293 q 126 358 175 293 q 76 497 76 422 q 264 629 76 629 l 436 629 l 436 764 l -14 764 q -35 833 -35 790 l 626 833 q 647 764 647 808 l 510 764 l 510 600 q 497 570 510 586 q 472 554 483 554 m 256 -98 q 256 -92 256 -98 q 286 -60 256 -86 q 328 -33 317 -33 q 367 -64 340 -33 q 393 -106 393 -94 q 363 -144 393 -118 q 321 -171 333 -171 q 282 -140 308 -171 q 256 -98 256 -110 z "},"ढ़":{"ha":717,"x_min":-31,"x_max":788,"o":"m 558 764 l 558 594 q 547 567 558 583 q 529 551 535 551 q 492 556 524 551 q 439 561 460 561 q 219 502 288 561 q 150 348 150 443 q 213 192 150 253 q 386 131 276 131 q 453 135 422 131 q 397 270 397 204 q 433 380 397 336 q 533 424 469 424 q 650 386 597 424 q 703 270 703 349 q 631 131 703 192 q 408 69 558 69 q 166 157 258 69 q 74 366 74 244 q 160 558 74 488 q 403 629 247 629 q 485 624 432 629 l 485 764 l -10 764 q -31 833 -31 790 l 767 833 q 788 764 788 808 l 558 764 m 633 288 q 610 341 633 325 q 549 357 586 357 q 485 328 511 357 q 460 251 460 299 q 501 144 460 203 q 633 288 633 181 m 350 -112 q 350 -106 350 -112 q 381 -74 350 -100 q 423 -47 411 -47 q 461 -78 435 -47 q 488 -120 488 -108 q 458 -158 488 -132 q 415 -185 428 -185 q 376 -154 403 -185 q 350 -112 350 -124 z "},"फ़":{"ha":1040,"x_min":-35,"x_max":1067,"o":"m 599 764 l 599 488 q 776 575 683 575 q 931 513 869 575 q 993 350 993 450 q 836 60 993 186 q 779 126 808 78 q 933 364 933 240 q 893 469 933 435 q 801 503 853 503 q 599 364 699 503 l 599 -28 q 547 -15 569 -28 q 525 11 525 -1 l 525 308 q 342 249 442 249 q 184 328 243 249 q 125 547 125 407 l 125 764 l -14 764 q -35 833 -35 790 l 1046 833 q 1067 764 1067 808 l 599 764 m 207 764 l 207 586 q 233 368 207 429 q 324 307 260 307 q 440 340 388 307 q 525 431 492 374 l 525 764 l 207 764 m 136 130 q 136 136 136 130 q 167 168 136 142 q 209 194 197 194 q 247 164 221 194 q 274 122 274 133 q 244 83 274 110 q 201 57 214 57 q 163 88 189 57 q 136 130 136 118 z "},"य़":{"ha":769,"x_min":-4,"x_max":840,"o":"m 840 764 l 639 764 l 639 -28 q 588 -15 610 -28 q 565 11 565 -1 l 565 229 q 400 182 490 182 q 188 260 268 182 q 83 464 107 338 q 286 628 286 507 q 219 764 286 689 l 17 764 q -4 833 -4 790 l 819 833 q 840 764 840 808 m 565 764 l 288 764 q 363 619 363 694 q 306 489 363 543 q 153 413 249 435 q 381 257 210 257 q 565 326 496 257 l 565 764 m 100 67 q 100 73 100 67 q 131 106 100 79 q 173 132 161 132 q 211 101 185 132 q 238 59 238 71 q 208 21 238 47 q 165 -6 178 -6 q 126 25 153 -6 q 100 67 100 56 z "}}}
